<svg width="1400" height="307" viewBox="0 0 1400 307" fill="none" xmlns="http://www.w3.org/2000/svg">
<mask id="path-1-outside-1_1_56" maskUnits="userSpaceOnUse" x="-42.1584" y="0.186035" width="1492" height="307" fill="black">
<rect fill="white" x="-42.1584" y="0.186035" width="1492" height="307"/>
<path d="M-0.631847 295.812C1.41555 296.835 3.46296 297.603 5.51036 298.115C7.81368 298.371 10.245 298.499 12.8042 298.499C20.7379 298.499 27.264 295.94 32.3825 290.821C37.7569 285.447 40.4441 278.281 40.4441 269.323C40.4441 260.622 38.3967 251.537 34.3019 242.067C30.2071 232.598 24.8327 222.617 18.1787 212.124C12.0364 202.143 6.66202 192.802 2.05537 184.1C-2.55129 175.143 -4.85461 165.29 -4.85461 154.541C-4.85461 143.536 -2.03943 133.683 3.59092 124.982C9.22127 116.28 17.6668 109.37 28.9275 104.252C40.1882 99.1331 54.3921 96.5739 71.539 96.5739C82.2879 96.5739 92.6529 97.8535 102.634 100.413C112.871 102.972 121.189 107.451 127.587 113.849C134.241 119.991 137.568 128.948 137.568 140.721C137.568 145.839 136.544 151.086 134.497 156.46C132.449 161.835 129.378 166.313 125.283 169.896C121.444 173.223 116.454 174.887 110.312 174.887C102.634 174.887 96.6197 171.944 92.269 166.058C87.9183 159.915 85.7429 152.11 85.7429 142.64C85.7429 134.451 87.0225 127.157 89.5818 120.759C92.3969 114.361 95.2121 109.626 98.0273 106.555C95.9799 105.531 92.7808 105.019 88.4301 105.019C79.4727 105.019 72.6907 107.579 68.0841 112.697C63.7333 117.816 61.43 125.237 61.1741 134.963C61.1741 140.593 62.1978 146.351 64.2452 152.238C66.5485 157.868 69.4917 163.626 73.0746 169.513C76.6576 175.143 80.2405 181.029 83.8235 187.171C92.269 201.503 98.1553 213.276 101.482 222.489C105.065 231.446 106.857 240.276 106.857 248.977C106.857 259.47 103.914 269.067 98.0273 277.769C92.3969 286.47 83.8235 293.508 72.3068 298.883C61.0461 304.001 46.9702 306.56 30.0792 306.56C18.0507 306.56 6.53406 305.025 -4.47073 301.954C-15.2196 299.139 -24.049 294.148 -30.959 286.982C-37.613 279.816 -40.9401 269.963 -40.9401 257.423C-40.9401 247.954 -38.5088 239.892 -33.6462 233.238C-29.0395 226.584 -22.7694 223.257 -14.8357 223.257C-7.41386 223.257 -1.39962 226.328 3.20703 232.47C7.81368 238.612 10.117 246.802 10.117 257.039C10.117 265.229 8.70942 272.778 5.89424 279.688C3.33499 286.598 1.15963 291.973 -0.631847 295.812ZM208.314 220.57C216.504 216.731 224.565 212.124 232.499 206.75C240.433 201.375 247.726 195.489 254.381 189.091C264.618 179.11 272.935 167.721 279.333 154.925C285.987 142.129 289.314 128.309 289.314 113.465C289.314 109.882 288.802 107.451 287.779 106.171C286.755 104.636 285.22 103.868 283.172 103.868C278.054 103.868 272.423 106.811 266.281 112.697C260.395 118.328 254.509 126.005 248.622 135.73C242.736 145.2 237.362 155.949 232.499 167.977C227.892 180.005 224.053 192.418 220.982 205.214C218.167 217.754 216.76 229.911 216.76 241.683C216.76 256.527 219.703 266.508 225.589 271.627C231.475 276.489 239.153 278.921 248.622 278.921C253.741 278.921 261.418 277.001 271.656 273.162C281.893 269.323 292.13 262.285 302.367 252.048L308.509 255.12C302.878 263.565 295.457 271.755 286.243 279.688C277.03 287.622 266.153 294.148 253.613 299.267C241.072 304.129 226.997 306.56 211.385 306.56C199.357 306.56 188.224 304.513 177.987 300.418C168.006 296.323 159.944 290.309 153.802 282.376C147.916 274.186 144.973 264.205 144.973 252.432C144.973 237.333 147.276 222.361 151.883 207.517C156.745 192.674 163.527 178.598 172.229 165.29C180.93 151.982 191.295 140.209 203.323 129.972C215.608 119.479 229.172 111.29 244.016 105.403C258.859 99.517 274.727 96.5739 291.618 96.5739C305.182 96.5739 316.442 99.389 325.4 105.019C334.613 110.394 339.22 118.839 339.22 130.356C339.22 140.081 336.66 149.294 331.542 157.996C326.423 166.441 319.386 174.247 310.428 181.413C301.471 188.323 291.362 194.593 280.101 200.224C268.84 205.854 256.94 210.716 244.399 214.811C232.115 218.906 219.959 222.105 207.93 224.408L208.314 220.57ZM413.346 301.186H345.398L392.232 134.579C393.768 128.692 394.28 124.598 393.768 122.294C393.256 119.735 391.592 118.455 388.777 118.455C384.938 118.455 381.355 120.247 378.028 123.83C374.701 127.157 371.246 133.427 367.663 142.64L358.834 166.058H351.54L362.289 136.114C365.872 126.389 370.351 118.711 375.725 113.081C381.355 107.195 387.882 102.972 395.303 100.413C402.725 97.8535 410.787 96.5739 419.488 96.5739C428.19 96.5739 435.1 98.2374 440.218 101.564C445.337 104.636 449.048 108.858 451.351 114.233C453.654 119.607 454.806 125.493 454.806 131.892C455.062 138.034 454.422 144.176 452.887 150.318L413.346 301.186ZM511.237 104.252C506.375 104.252 501.128 105.019 495.498 106.555C490.124 108.09 484.365 112.057 478.223 118.455C472.337 124.598 465.939 134.579 459.029 148.399C452.375 162.219 445.209 181.413 437.531 205.982C429.853 230.551 421.792 261.902 413.346 300.034L421.408 246.29C429.085 216.347 436.123 191.778 442.522 172.584C448.92 153.133 455.318 137.906 461.716 126.901C468.114 115.64 475.152 107.835 482.83 103.484C490.508 98.8772 499.465 96.5739 509.702 96.5739C521.73 96.5739 530.944 100.157 537.342 107.323C543.74 114.489 546.939 123.318 546.939 133.811C546.939 142.257 545.02 150.19 541.181 157.612C537.598 164.778 532.479 170.664 525.825 175.271C519.427 179.622 512.005 181.797 503.56 181.797C494.09 181.797 486.925 179.366 482.062 174.503C477.199 169.641 474.768 162.475 474.768 153.005C474.768 145.328 476.688 138.162 480.526 131.508C484.365 124.854 489.484 119.223 495.882 114.617C502.28 109.754 509.19 106.683 516.612 105.403C515.844 105.147 514.948 104.891 513.925 104.636C513.157 104.38 512.261 104.252 511.237 104.252ZM721.233 187.555C708.693 181.669 698.2 173.607 689.754 163.37C681.309 152.877 677.086 141.105 677.086 128.053C677.086 118.328 679.645 110.65 684.764 105.019C690.138 99.389 697.56 96.5739 707.029 96.5739C717.266 96.5739 724.688 99.9009 729.295 106.555C733.901 113.209 736.205 122.422 736.205 134.195C736.205 148.271 734.541 163.242 731.214 179.11C728.143 194.977 723.28 210.461 716.626 225.56C710.228 240.66 701.911 254.352 691.674 266.636C681.693 278.665 669.792 288.39 655.972 295.812C642.408 302.978 626.797 306.56 609.138 306.56C593.27 306.56 580.858 304.257 571.901 299.65C563.199 294.788 557.057 288.774 553.474 281.608C549.891 274.186 548.1 266.636 548.1 258.958C548.1 242.323 552.962 225.944 562.687 209.821C572.413 193.442 585.721 177.19 602.612 161.067C619.759 144.944 638.953 128.948 660.195 113.081C652.261 113.337 645.479 115.384 639.849 119.223C634.474 122.806 629.612 126.901 625.261 131.508C620.91 136.114 616.56 140.209 612.209 143.792C608.114 147.119 603.379 148.783 598.005 148.783C593.91 148.783 590.327 147.887 587.256 146.095C584.441 144.048 581.242 143.024 577.659 143.024C574.332 143.024 571.773 144.176 569.981 146.479C568.19 148.783 566.526 152.494 564.991 157.612L562.303 165.674H555.01L563.455 137.65C568.062 121.271 573.564 110.266 579.962 104.636C586.36 99.0052 592.887 96.19 599.541 96.19C604.403 96.19 608.626 97.0857 612.209 98.8772C615.792 100.669 619.759 102.588 624.109 104.636C628.46 106.427 634.346 107.323 641.768 107.323C644.327 107.323 647.782 107.067 652.133 106.555C656.484 105.787 661.347 104.124 666.721 101.564L670.56 94.2705L678.621 98.1094C670.176 111.929 662.37 126.389 655.204 141.489C648.294 156.332 642.28 171.176 637.162 186.02C632.043 200.607 628.076 214.299 625.261 227.096C622.446 239.892 621.038 250.897 621.038 260.11C621.038 268.812 622.318 275.338 624.877 279.688C627.436 284.039 632.043 286.214 638.697 286.214C646.631 286.214 654.181 284.423 661.347 280.84C668.512 277.257 675.166 272.266 681.309 265.868C687.451 259.47 693.081 252.176 698.2 243.987C703.318 235.541 707.797 226.584 711.636 217.115C715.475 207.389 718.674 197.536 721.233 187.555ZM815.115 41.6779C815.115 27.858 819.593 17.621 828.551 10.9669C837.508 4.31284 848.641 0.985809 861.949 0.985809C873.21 0.985809 881.655 3.16117 887.285 7.51191C893.172 11.8626 896.115 18.3887 896.115 27.0902C896.115 39.1187 891.508 48.8438 882.295 56.2657C873.338 63.4316 862.205 67.0145 848.897 67.0145C837.892 67.0145 829.446 64.8392 823.56 60.4884C817.93 56.1377 815.115 49.8675 815.115 41.6779ZM798.991 134.579C802.574 123.83 801.423 118.455 795.536 118.455C791.697 118.455 788.114 120.247 784.787 123.83C781.46 127.157 778.005 133.427 774.422 142.64L765.593 166.058H758.299L769.048 136.114C772.631 126.389 777.11 118.711 782.484 113.081C788.114 107.195 794.641 102.972 802.062 100.413C809.484 97.8535 817.546 96.5739 826.247 96.5739C835.972 96.5739 843.778 98.2374 849.664 101.564C855.551 104.891 859.774 109.242 862.333 114.617C864.892 119.735 866.172 125.493 866.172 131.892C866.172 138.034 865.148 144.176 863.101 150.318L823.176 268.556C821.129 274.954 820.745 279.304 822.025 281.608C823.304 283.655 825.224 284.679 827.783 284.679C830.086 284.679 833.029 283.399 836.612 280.84C840.195 278.025 844.034 271.243 848.129 260.494L856.191 238.996H863.484L853.887 267.02C850.048 277.769 845.186 285.958 839.3 291.589C833.413 297.219 826.887 301.058 819.721 303.105C812.811 305.409 805.901 306.56 798.991 306.56C787.731 306.56 778.517 304.257 771.351 299.65C764.441 294.788 760.219 287.494 758.683 277.769C757.148 267.788 758.811 255.375 763.674 240.532L798.991 134.579ZM1033.52 104.252C1024.05 104.252 1014.84 108.346 1005.88 116.536C996.925 124.47 988.992 135.219 982.082 148.783C975.172 162.091 969.669 177.062 965.575 193.697C961.48 210.077 959.432 226.712 959.432 243.603C959.432 257.423 962.248 267.404 967.878 273.546C973.508 279.688 980.93 282.759 990.143 282.759C997.565 282.759 1005.11 280.584 1012.79 276.233C1020.47 271.883 1028.28 263.821 1036.21 252.048L1043.89 255.12C1038.51 263.565 1031.73 271.755 1023.54 279.688C1015.61 287.622 1006.01 294.148 994.75 299.267C983.745 304.129 970.821 306.56 955.977 306.56C936.527 306.56 920.276 301.698 907.224 291.973C894.171 282.248 887.645 266.892 887.645 245.906C887.645 232.598 889.693 219.034 893.788 205.214C898.138 191.138 904.28 177.702 912.214 164.906C920.404 151.854 930.257 140.209 941.774 129.972C953.29 119.735 966.342 111.673 980.93 105.787C995.518 99.645 1011.39 96.5739 1028.53 96.5739C1044.4 96.5739 1056.68 100.541 1065.39 108.474C1074.09 116.408 1078.44 125.749 1078.44 136.498C1078.44 144.688 1076.39 152.621 1072.3 160.299C1068.2 167.977 1062.7 174.375 1055.79 179.494C1049.13 184.356 1041.71 186.787 1033.52 186.787C1026.87 186.787 1020.85 184.484 1015.48 179.878C1010.11 175.271 1007.42 168.617 1007.42 159.915C1007.42 147.375 1011.39 136.498 1019.32 127.285C1027.25 118.072 1036.34 111.929 1046.57 108.858C1044.78 107.323 1042.86 106.171 1040.82 105.403C1038.77 104.636 1036.34 104.252 1033.52 104.252ZM1142.69 220.57C1150.88 216.731 1158.94 212.124 1166.88 206.75C1174.81 201.375 1182.1 195.489 1188.76 189.091C1198.99 179.11 1207.31 167.721 1213.71 154.925C1220.36 142.129 1223.69 128.309 1223.69 113.465C1223.69 109.882 1223.18 107.451 1222.16 106.171C1221.13 104.636 1219.6 103.868 1217.55 103.868C1212.43 103.868 1206.8 106.811 1200.66 112.697C1194.77 118.328 1188.89 126.005 1183 135.73C1177.11 145.2 1171.74 155.949 1166.88 167.977C1162.27 180.005 1158.43 192.418 1155.36 205.214C1152.54 217.754 1151.14 229.911 1151.14 241.683C1151.14 256.527 1154.08 266.508 1159.97 271.627C1165.85 276.489 1173.53 278.921 1183 278.921C1188.12 278.921 1195.8 277.001 1206.03 273.162C1216.27 269.323 1226.51 262.285 1236.74 252.048L1242.89 255.12C1237.26 263.565 1229.83 271.755 1220.62 279.688C1211.41 287.622 1200.53 294.148 1187.99 299.267C1175.45 304.129 1161.37 306.56 1145.76 306.56C1133.73 306.56 1122.6 304.513 1112.36 300.418C1102.38 296.323 1094.32 290.309 1088.18 282.376C1082.29 274.186 1079.35 264.205 1079.35 252.432C1079.35 237.333 1081.65 222.361 1086.26 207.517C1091.12 192.674 1097.9 178.598 1106.61 165.29C1115.31 151.982 1125.67 140.209 1137.7 129.972C1149.98 119.479 1163.55 111.29 1178.39 105.403C1193.24 99.517 1209.1 96.5739 1225.99 96.5739C1239.56 96.5739 1250.82 99.389 1259.78 105.019C1268.99 110.394 1273.6 118.839 1273.6 130.356C1273.6 140.081 1271.04 149.294 1265.92 157.996C1260.8 166.441 1253.76 174.247 1244.8 181.413C1235.85 188.323 1225.74 194.593 1214.48 200.224C1203.22 205.854 1191.32 210.716 1178.78 214.811C1166.49 218.906 1154.34 222.105 1142.31 224.408L1142.69 220.57ZM1310.87 295.812C1312.92 296.835 1314.96 297.603 1317.01 298.115C1319.32 298.371 1321.75 298.499 1324.31 298.499C1332.24 298.499 1338.77 295.94 1343.88 290.821C1349.26 285.447 1351.95 278.281 1351.95 269.323C1351.95 260.622 1349.9 251.537 1345.8 242.067C1341.71 232.598 1336.33 222.617 1329.68 212.124C1323.54 202.143 1318.16 192.802 1313.56 184.1C1308.95 175.143 1306.65 165.29 1306.65 154.541C1306.65 143.536 1309.46 133.683 1315.09 124.982C1320.72 116.28 1329.17 109.37 1340.43 104.252C1351.69 99.1331 1365.89 96.5739 1383.04 96.5739C1393.79 96.5739 1404.15 97.8535 1414.14 100.413C1424.37 102.972 1432.69 107.451 1439.09 113.849C1445.74 119.991 1449.07 128.948 1449.07 140.721C1449.07 145.839 1448.05 151.086 1446 156.46C1443.95 161.835 1440.88 166.313 1436.78 169.896C1432.95 173.223 1427.96 174.887 1421.81 174.887C1414.14 174.887 1408.12 171.944 1403.77 166.058C1399.42 159.915 1397.24 152.11 1397.24 142.64C1397.24 134.451 1398.52 127.157 1401.08 120.759C1403.9 114.361 1406.71 109.626 1409.53 106.555C1407.48 105.531 1404.28 105.019 1399.93 105.019C1390.97 105.019 1384.19 107.579 1379.59 112.697C1375.23 117.816 1372.93 125.237 1372.68 134.963C1372.68 140.593 1373.7 146.351 1375.75 152.238C1378.05 157.868 1380.99 163.626 1384.58 169.513C1388.16 175.143 1391.74 181.029 1395.32 187.171C1403.77 201.503 1409.66 213.276 1412.98 222.489C1416.57 231.446 1418.36 240.276 1418.36 248.977C1418.36 259.47 1415.42 269.067 1409.53 277.769C1403.9 286.47 1395.32 293.508 1383.81 298.883C1372.55 304.001 1358.47 306.56 1341.58 306.56C1329.55 306.56 1318.04 305.025 1307.03 301.954C1296.28 299.139 1287.45 294.148 1280.54 286.982C1273.89 279.816 1270.56 269.963 1270.56 257.423C1270.56 247.954 1272.99 239.892 1277.86 233.238C1282.46 226.584 1288.73 223.257 1296.67 223.257C1304.09 223.257 1310.1 226.328 1314.71 232.47C1319.32 238.612 1321.62 246.802 1321.62 257.039C1321.62 265.229 1320.21 272.778 1317.4 279.688C1314.84 286.598 1312.66 291.973 1310.87 295.812Z"/>
</mask>
<path d="M-0.631847 295.812L-1.08494 295.6L-1.29074 296.041L-0.855453 296.259L-0.631847 295.812ZM5.51036 298.115L5.38909 298.6L5.42171 298.608L5.45514 298.612L5.51036 298.115ZM32.3825 290.821L32.0289 290.468L32.0289 290.468L32.3825 290.821ZM34.3019 242.067L34.7609 241.869L34.7609 241.869L34.3019 242.067ZM18.1787 212.124L17.7528 212.386L17.7564 212.392L18.1787 212.124ZM2.05537 184.1L1.61069 184.329L1.61347 184.334L2.05537 184.1ZM28.9275 104.252L29.1344 104.707L29.1344 104.707L28.9275 104.252ZM102.634 100.413L102.51 100.897L102.513 100.898L102.634 100.413ZM127.587 113.849L127.233 114.202L127.24 114.209L127.248 114.216L127.587 113.849ZM134.497 156.46L134.029 156.282L134.029 156.282L134.497 156.46ZM125.283 169.896L125.611 170.274L125.613 170.273L125.283 169.896ZM92.269 166.058L91.8609 166.347L91.8669 166.355L92.269 166.058ZM89.5818 120.759L89.1241 120.557L89.1207 120.565L89.1175 120.573L89.5818 120.759ZM98.0273 106.555L98.3959 106.893L98.8438 106.404L98.2509 106.108L98.0273 106.555ZM68.0841 112.697L67.7124 112.363L67.7077 112.368L67.7031 112.373L68.0841 112.697ZM61.1741 134.963L60.6741 134.949V134.963H61.1741ZM64.2452 152.238L63.7729 152.402L63.7773 152.415L63.7824 152.427L64.2452 152.238ZM73.0746 169.513L72.6474 169.773L72.6528 169.781L73.0746 169.513ZM83.8235 187.171L83.3916 187.423L83.3927 187.425L83.8235 187.171ZM101.482 222.489L101.012 222.659L101.015 222.667L101.018 222.675L101.482 222.489ZM98.0273 277.769L97.6131 277.489L97.6075 277.497L98.0273 277.769ZM72.3068 298.883L72.5137 299.338L72.5183 299.336L72.3068 298.883ZM-4.47073 301.954L-4.33631 301.472L-4.34405 301.47L-4.47073 301.954ZM-30.959 286.982L-31.3254 287.322L-31.3189 287.329L-30.959 286.982ZM-33.6462 233.238L-33.2424 233.533L-33.2351 233.523L-33.6462 233.238ZM5.89424 279.688L5.4312 279.5L5.42816 279.507L5.42537 279.515L5.89424 279.688ZM-0.855453 296.259C1.22185 297.297 3.30345 298.079 5.38909 298.6L5.63162 297.63C3.62246 297.128 1.60926 296.373 -0.40824 295.364L-0.855453 296.259ZM5.45514 298.612C7.77858 298.87 10.2284 298.999 12.8042 298.999V297.999C10.2615 297.999 7.84879 297.872 5.56557 297.618L5.45514 298.612ZM12.8042 298.999C20.8565 298.999 27.5143 296.396 32.736 291.175L32.0289 290.468C27.0137 295.483 20.6193 297.999 12.8042 297.999V298.999ZM32.736 291.175C38.2208 285.69 40.9441 278.388 40.9441 269.323H39.9441C39.9441 278.174 37.293 285.203 32.0289 290.468L32.736 291.175ZM40.9441 269.323C40.9441 260.542 38.8778 251.389 34.7609 241.869L33.843 242.266C37.9157 251.684 39.9441 260.702 39.9441 269.323H40.9441ZM34.7609 241.869C30.6538 232.371 25.2662 222.367 18.6009 211.856L17.7564 212.392C24.3992 222.867 29.7604 232.825 33.843 242.266L34.7609 241.869ZM18.6045 211.862C12.4669 201.888 7.09802 192.557 2.49726 183.866L1.61347 184.334C6.22602 193.047 11.606 202.398 17.7528 212.386L18.6045 211.862ZM2.50001 183.872C-2.06784 174.99 -4.35461 165.216 -4.35461 154.541H-5.35461C-5.35461 165.364 -3.03473 175.296 1.61072 184.329L2.50001 183.872ZM-4.35461 154.541C-4.35461 143.626 -1.564 133.869 4.0107 125.253L3.17113 124.71C-2.51487 133.497 -5.35461 143.446 -5.35461 154.541H-4.35461ZM4.0107 125.253C9.57979 116.646 17.9437 109.793 29.1344 104.707L28.7206 103.796C17.3899 108.947 8.86275 115.914 3.17113 124.71L4.0107 125.253ZM29.1344 104.707C40.3101 99.6269 54.4376 97.0739 71.539 97.0739V96.0739C54.3465 96.0739 40.0663 98.6393 28.7206 103.796L29.1344 104.707ZM71.539 97.0739C82.2478 97.0739 92.571 98.3487 102.51 100.897L102.758 99.9284C92.7348 97.3583 82.328 96.0739 71.539 96.0739V97.0739ZM102.513 100.898C112.677 103.439 120.909 107.878 127.233 114.202L127.94 113.495C121.468 107.023 113.065 102.505 102.755 99.9277L102.513 100.898ZM127.248 114.216C133.771 120.237 137.068 129.044 137.068 140.721H138.068C138.068 128.853 134.711 119.745 127.926 113.481L127.248 114.216ZM137.068 140.721C137.068 145.772 136.058 150.958 134.029 156.282L134.964 156.638C137.03 151.214 138.068 145.907 138.068 140.721H137.068ZM134.029 156.282C132.009 161.585 128.984 165.994 124.954 169.52L125.613 170.273C129.772 166.633 132.889 162.085 134.964 156.638L134.029 156.282ZM124.956 169.519C121.226 172.751 116.36 174.387 110.312 174.387V175.387C116.548 175.387 121.663 173.696 125.611 170.274L124.956 169.519ZM110.312 174.387C102.783 174.387 96.9222 171.512 92.6711 165.76L91.8669 166.355C96.3172 172.376 102.484 175.387 110.312 175.387V174.387ZM92.677 165.769C88.4 159.73 86.2429 152.033 86.2429 142.64H85.2429C85.2429 152.186 87.4365 160.1 91.861 166.347L92.677 165.769ZM86.2429 142.64C86.2429 134.503 87.5144 127.274 90.046 120.944L89.1175 120.573C86.5307 127.04 85.2429 134.399 85.2429 142.64H86.2429ZM90.0394 120.96C92.8454 114.583 95.6343 109.905 98.3959 106.893L97.6587 106.217C94.7899 109.347 91.9485 114.138 89.1241 120.557L90.0394 120.96ZM98.2509 106.108C96.0962 105.03 92.8006 104.519 88.4301 104.519V105.519C92.761 105.519 95.8636 106.032 97.8037 107.002L98.2509 106.108ZM88.4301 104.519C79.3762 104.519 72.4404 107.109 67.7124 112.363L68.4557 113.032C72.941 108.048 79.5693 105.519 88.4301 105.519V104.519ZM67.7031 112.373C63.2516 117.61 60.9319 125.16 60.6742 134.949L61.6739 134.976C61.9281 125.315 64.215 118.021 68.465 113.021L67.7031 112.373ZM60.6741 134.963C60.6741 140.655 61.7091 146.468 63.7729 152.402L64.7174 152.073C62.6864 146.234 61.6741 140.531 61.6741 134.963H60.6741ZM63.7824 152.427C66.097 158.085 69.0526 163.867 72.6475 169.773L73.5017 169.253C69.9307 163.386 67.0001 157.651 64.708 152.048L63.7824 152.427ZM72.6528 169.781C76.232 175.406 79.8117 181.286 83.3916 187.423L84.2553 186.919C80.6694 180.772 77.0831 174.88 73.4964 169.244L72.6528 169.781ZM83.3927 187.425C91.8317 201.746 97.7003 213.488 101.012 222.659L101.953 222.319C98.6102 213.064 92.7062 201.26 84.2542 186.918L83.3927 187.425ZM101.018 222.675C104.58 231.579 106.357 240.346 106.357 248.977H107.357C107.357 240.206 105.551 231.313 101.947 222.303L101.018 222.675ZM106.357 248.977C106.357 259.37 103.444 268.87 97.6132 277.489L98.4414 278.049C104.384 269.265 107.357 259.57 107.357 248.977H106.357ZM97.6075 277.497C92.0386 286.104 83.5462 293.086 72.0954 298.43L72.5183 299.336C84.1007 293.931 92.7553 286.837 98.4471 278.041L97.6075 277.497ZM72.0999 298.428C60.9234 303.508 46.9234 306.06 30.0792 306.06V307.06C47.017 307.06 61.1689 304.495 72.5137 299.338L72.0999 298.428ZM30.0792 306.06C18.0937 306.06 6.62245 304.53 -4.33633 301.472L-4.60513 302.435C6.44567 305.519 18.0077 307.06 30.0792 307.06V306.06ZM-4.34405 301.47C-15.0147 298.675 -23.76 293.727 -30.5991 286.635L-31.3189 287.329C-24.338 294.569 -15.4245 299.602 -4.59741 302.437L-4.34405 301.47ZM-30.5926 286.642C-37.1386 279.592 -40.4401 269.874 -40.4401 257.423H-41.4401C-41.4401 270.052 -38.0875 280.04 -31.3254 287.322L-30.5926 286.642ZM-40.4401 257.423C-40.4401 248.043 -38.0335 240.089 -33.2425 233.533L-34.0499 232.943C-38.9841 239.695 -41.4401 247.864 -41.4401 257.423H-40.4401ZM-33.2351 233.523C-28.7196 227 -22.6014 223.757 -14.8357 223.757V222.757C-22.9373 222.757 -29.3595 226.168 -34.0573 232.953L-33.2351 233.523ZM-14.8357 223.757C-7.57751 223.757 -1.70902 226.749 2.80703 232.77L3.60703 232.17C-1.09023 225.907 -7.25022 222.757 -14.8357 222.757V223.757ZM2.80703 232.77C7.33015 238.801 9.61701 246.874 9.61701 257.039H10.617C10.617 246.73 8.29722 238.424 3.60703 232.17L2.80703 232.77ZM9.61701 257.039C9.61701 265.17 8.21969 272.655 5.4312 279.5L6.35729 279.877C9.19915 272.901 10.617 265.287 10.617 257.039H9.61701ZM5.42537 279.515C2.86795 286.42 0.698063 291.779 -1.08494 295.6L-0.178755 296.023C1.6212 292.166 3.80203 286.777 6.36312 279.862L5.42537 279.515ZM208.314 220.57L208.102 220.117L207.845 220.237L207.816 220.52L208.314 220.57ZM232.499 206.75L232.779 207.164L232.779 207.164L232.499 206.75ZM254.381 189.091L254.727 189.451L254.73 189.449L254.381 189.091ZM279.333 154.925L278.89 154.694L278.886 154.701L279.333 154.925ZM287.779 106.171L287.363 106.448L287.375 106.466L287.388 106.483L287.779 106.171ZM266.281 112.697L266.627 113.058L266.627 113.058L266.281 112.697ZM248.622 135.73L249.047 135.994L249.05 135.989L248.622 135.73ZM232.499 167.977L232.035 167.79L232.032 167.798L232.499 167.977ZM220.982 205.214L220.496 205.097L220.494 205.105L220.982 205.214ZM225.589 271.627L225.261 272.004L225.271 272.012L225.589 271.627ZM271.656 273.162L271.831 273.63L271.831 273.63L271.656 273.162ZM302.367 252.048L302.59 251.601L302.268 251.44L302.013 251.695L302.367 252.048ZM308.509 255.12L308.925 255.397L309.239 254.926L308.732 254.672L308.509 255.12ZM286.243 279.688L285.917 279.309L285.917 279.309L286.243 279.688ZM253.613 299.267L253.794 299.733L253.802 299.73L253.613 299.267ZM177.987 300.418L177.797 300.881L177.801 300.882L177.987 300.418ZM153.802 282.376L153.396 282.667L153.401 282.675L153.407 282.682L153.802 282.376ZM151.883 207.517L151.407 207.362L151.405 207.369L151.883 207.517ZM172.229 165.29L172.647 165.563L172.647 165.563L172.229 165.29ZM203.323 129.972L203.648 130.353L203.648 130.352L203.323 129.972ZM244.016 105.403L243.831 104.938L243.831 104.938L244.016 105.403ZM325.4 105.019L325.134 105.443L325.141 105.447L325.148 105.451L325.4 105.019ZM331.542 157.996L331.97 158.255L331.973 158.249L331.542 157.996ZM310.428 181.413L310.734 181.809L310.741 181.803L310.428 181.413ZM280.101 200.224L280.325 200.671L280.325 200.671L280.101 200.224ZM244.399 214.811L244.244 214.336L244.241 214.337L244.399 214.811ZM207.93 224.408L207.433 224.359L207.366 225.026L208.024 224.9L207.93 224.408ZM208.526 221.022C216.741 217.172 224.825 212.552 232.779 207.164L232.219 206.336C224.305 211.696 216.266 216.29 208.102 220.117L208.526 221.022ZM232.779 207.164C240.736 201.774 248.052 195.87 254.727 189.451L254.034 188.73C247.401 195.108 240.13 200.977 232.219 206.336L232.779 207.164ZM254.73 189.449C265.007 179.429 273.357 167.995 279.78 155.148L278.886 154.701C272.513 167.448 264.228 178.791 254.031 188.733L254.73 189.449ZM279.777 155.155C286.469 142.286 289.814 128.386 289.814 113.465H288.814C288.814 128.231 285.506 141.971 278.89 154.694L279.777 155.155ZM289.814 113.465C289.814 111.653 289.685 110.112 289.42 108.851C289.155 107.595 288.749 106.583 288.169 105.859L287.388 106.483C287.833 107.039 288.194 107.882 288.441 109.057C288.688 110.228 288.814 111.694 288.814 113.465H289.814ZM288.195 105.894C287.067 104.202 285.365 103.368 283.172 103.368V104.368C285.074 104.368 286.443 105.069 287.363 106.448L288.195 105.894ZM283.172 103.368C277.862 103.368 272.112 106.416 265.935 112.336L266.627 113.058C272.734 107.206 278.245 104.368 283.172 104.368V103.368ZM265.935 112.336C260.008 118.006 254.095 125.722 248.194 135.472L249.05 135.989C254.922 126.288 260.782 118.649 266.627 113.058L265.935 112.336ZM248.198 135.466C242.294 144.964 236.907 155.739 232.035 167.79L232.963 168.164C237.816 156.158 243.178 145.436 249.047 135.994L248.198 135.466ZM232.032 167.798C227.417 179.847 223.572 192.281 220.496 205.097L221.469 205.331C224.535 192.555 228.367 180.164 232.966 168.156L232.032 167.798ZM220.494 205.105C217.672 217.678 216.26 229.871 216.26 241.683H217.26C217.26 229.951 218.662 217.831 221.47 205.324L220.494 205.105ZM216.26 241.683C216.26 256.553 219.2 266.734 225.261 272.004L225.917 271.249C220.206 266.283 217.26 256.501 217.26 241.683H216.26ZM225.271 272.012C231.266 276.965 239.066 279.421 248.622 279.421V278.421C239.24 278.421 231.684 276.013 225.907 271.241L225.271 272.012ZM248.622 279.421C253.837 279.421 261.587 277.472 271.831 273.63L271.48 272.694C261.25 276.53 253.644 278.421 248.622 278.421V279.421ZM271.831 273.63C282.153 269.76 292.448 262.674 302.72 252.402L302.013 251.695C291.811 261.897 281.632 268.887 271.48 272.694L271.831 273.63ZM302.143 252.496L308.285 255.567L308.732 254.672L302.59 251.601L302.143 252.496ZM308.093 254.842C302.492 263.243 295.102 271.4 285.917 279.309L286.569 280.067C295.811 272.11 303.265 263.887 308.925 255.397L308.093 254.842ZM285.917 279.309C276.749 287.204 265.92 293.703 253.424 298.804L253.802 299.73C266.386 294.593 277.311 288.04 286.569 280.067L285.917 279.309ZM253.432 298.8C240.958 303.637 226.945 306.06 211.385 306.06V307.06C227.049 307.06 241.187 304.621 253.794 299.733L253.432 298.8ZM211.385 306.06C199.414 306.06 188.345 304.023 178.173 299.954L177.801 300.882C188.102 305.003 199.299 307.06 211.385 307.06V306.06ZM178.177 299.956C168.27 295.892 160.282 289.929 154.197 282.069L153.407 282.682C159.606 290.69 167.741 296.755 177.797 300.881L178.177 299.956ZM154.208 282.084C148.393 273.993 145.473 264.118 145.473 252.432H144.473C144.473 264.291 147.439 274.379 153.396 282.667L154.208 282.084ZM145.473 252.432C145.473 237.384 147.768 222.463 152.36 207.666L151.405 207.369C146.784 222.259 144.473 237.281 144.473 252.432H145.473ZM152.358 207.673C157.206 192.872 163.969 178.836 172.647 165.563L171.81 165.016C163.085 178.36 156.284 192.476 151.407 207.362L152.358 207.673ZM172.647 165.563C181.323 152.295 191.656 140.559 203.648 130.353L202.999 129.591C190.934 139.86 180.538 151.668 171.81 165.016L172.647 165.563ZM203.648 130.352C215.891 119.895 229.408 111.734 244.2 105.868L243.831 104.938C228.936 110.845 215.324 119.064 202.999 129.592L203.648 130.352ZM244.2 105.868C258.982 100.006 274.786 97.0739 291.618 97.0739V96.0739C274.667 96.0739 258.737 99.0276 243.831 104.938L244.2 105.868ZM291.618 97.0739C305.114 97.0739 316.276 99.8748 325.134 105.443L325.666 104.596C316.609 98.9033 305.25 96.0739 291.618 96.0739V97.0739ZM325.148 105.451C334.193 110.728 338.72 119 338.72 130.356H339.72C339.72 118.679 335.033 110.06 325.652 104.588L325.148 105.451ZM338.72 130.356C338.72 139.989 336.186 149.115 331.111 157.742L331.973 158.249C337.135 149.474 339.72 140.174 339.72 130.356H338.72ZM331.114 157.737C326.031 166.125 319.035 173.888 310.116 181.023L310.741 181.803C319.736 174.607 326.816 166.758 331.97 158.255L331.114 157.737ZM310.123 181.017C301.194 187.905 291.112 194.159 279.877 199.776L280.325 200.671C291.611 195.028 301.748 188.741 310.734 181.809L310.123 181.017ZM279.877 199.776C268.64 205.395 256.762 210.248 244.244 214.336L244.555 215.287C257.117 211.184 269.041 206.313 280.325 200.671L279.877 199.776ZM244.241 214.337C231.977 218.425 219.842 221.618 207.836 223.917L208.024 224.9C220.076 222.592 232.253 219.387 244.558 215.286L244.241 214.337ZM208.428 224.458L208.812 220.619L207.816 220.52L207.433 224.359L208.428 224.458ZM413.346 301.186V301.686H413.732L413.83 301.313L413.346 301.186ZM345.398 301.186L344.917 301.051L344.738 301.686H345.398V301.186ZM392.232 134.579L392.714 134.714L392.716 134.705L392.232 134.579ZM393.768 122.294L393.277 122.392L393.28 122.403L393.768 122.294ZM378.028 123.83L378.382 124.183L378.388 124.177L378.395 124.17L378.028 123.83ZM367.663 142.64L367.197 142.459L367.196 142.464L367.663 142.64ZM358.834 166.058V166.558H359.18L359.302 166.234L358.834 166.058ZM351.54 166.058L351.07 165.889L350.829 166.558H351.54V166.058ZM362.289 136.114L361.82 135.941L361.818 135.945L362.289 136.114ZM375.725 113.081L375.364 112.735L375.363 112.736L375.725 113.081ZM395.303 100.413L395.466 100.885L395.466 100.885L395.303 100.413ZM440.218 101.564L439.946 101.984L439.953 101.989L439.961 101.993L440.218 101.564ZM454.806 131.892H454.306V131.902L454.306 131.912L454.806 131.892ZM452.887 150.318L453.37 150.445L453.372 150.439L452.887 150.318ZM495.498 106.555L495.366 106.073L495.361 106.074L495.498 106.555ZM478.223 118.455L477.862 118.109L477.862 118.11L478.223 118.455ZM459.029 148.399L458.581 148.175L458.578 148.182L459.029 148.399ZM437.531 205.982L438.008 206.131L438.008 206.131L437.531 205.982ZM413.346 300.034L412.852 299.96L413.834 300.142L413.346 300.034ZM421.408 246.29L420.923 246.166L420.917 246.191L420.913 246.216L421.408 246.29ZM442.522 172.584L442.996 172.742L442.997 172.74L442.522 172.584ZM461.716 126.901L462.148 127.152L462.151 127.148L461.716 126.901ZM482.83 103.484L483.076 103.919L483.087 103.913L482.83 103.484ZM537.342 107.323L536.969 107.656L536.969 107.656L537.342 107.323ZM541.181 157.612L540.737 157.382L540.733 157.388L541.181 157.612ZM525.825 175.271L526.106 175.684L526.11 175.682L525.825 175.271ZM482.062 174.503L482.416 174.15L482.416 174.15L482.062 174.503ZM480.526 131.508L480.96 131.758L480.96 131.758L480.526 131.508ZM495.882 114.617L496.174 115.022L496.184 115.015L495.882 114.617ZM516.612 105.403L516.697 105.896L516.77 104.929L516.612 105.403ZM513.925 104.636L513.767 105.11L513.785 105.116L513.803 105.121L513.925 104.636ZM413.346 300.686H345.398V301.686H413.346V300.686ZM345.879 301.321L392.714 134.714L391.751 134.443L344.917 301.051L345.879 301.321ZM392.716 134.705C393.487 131.75 394.004 129.232 394.264 127.155C394.522 125.087 394.53 123.42 394.256 122.186L393.28 122.403C393.517 123.472 393.525 125.004 393.272 127.031C393.019 129.049 392.513 131.522 391.748 134.453L392.716 134.705ZM394.258 122.196C393.984 120.828 393.39 119.749 392.441 119.019C391.496 118.292 390.258 117.955 388.777 117.955V118.955C390.112 118.955 391.113 119.259 391.831 119.812C392.546 120.361 393.039 121.201 393.278 122.392L394.258 122.196ZM388.777 117.955C384.764 117.955 381.056 119.834 377.662 123.49L378.395 124.17C381.655 120.659 385.113 118.955 388.777 118.955V117.955ZM377.675 123.476C374.269 126.882 370.784 133.237 367.197 142.459L368.129 142.822C371.709 133.617 375.133 127.432 378.382 124.183L377.675 123.476ZM367.196 142.464L358.366 165.881L359.302 166.234L368.131 142.817L367.196 142.464ZM358.834 165.558H351.54V166.558H358.834V165.558ZM352.011 166.226L362.76 136.283L361.818 135.945L351.07 165.889L352.011 166.226ZM362.758 136.287C366.325 126.606 370.772 118.994 376.087 113.426L375.363 112.736C369.929 118.429 365.419 126.172 361.82 135.941L362.758 136.287ZM376.086 113.427C381.664 107.596 388.123 103.418 395.466 100.885L395.14 99.9401C387.64 102.526 381.047 106.794 375.364 112.735L376.086 113.427ZM395.466 100.885C402.83 98.3461 410.836 97.0739 419.488 97.0739V96.0739C410.737 96.0739 402.62 97.3609 395.14 99.9401L395.466 100.885ZM419.488 97.0739C428.132 97.0739 434.936 98.7273 439.946 101.984L440.491 101.145C435.263 97.7475 428.247 96.0739 419.488 96.0739V97.0739ZM439.961 101.993C444.991 105.011 448.63 109.154 450.891 114.43L451.811 114.036C449.465 108.563 445.682 104.26 440.475 101.136L439.961 101.993ZM450.891 114.43C453.166 119.736 454.306 125.555 454.306 131.892H455.306C455.306 125.432 454.143 119.478 451.811 114.036L450.891 114.43ZM454.306 131.912C454.56 138.005 453.926 144.1 452.401 150.197L453.372 150.439C454.918 144.252 455.563 138.062 455.306 131.871L454.306 131.912ZM452.403 150.191L412.862 301.059L413.83 301.313L453.37 150.445L452.403 150.191ZM511.237 103.752C506.323 103.752 501.031 104.528 495.366 106.073L495.63 107.037C501.225 105.511 506.427 104.752 511.237 104.752V103.752ZM495.361 106.074C489.865 107.644 484.033 111.681 477.862 118.109L478.584 118.802C484.697 112.433 490.382 108.537 495.635 107.036L495.361 106.074ZM477.862 118.11C471.924 124.306 465.499 134.341 458.582 148.175L459.476 148.622C466.379 134.817 472.75 124.889 478.584 118.801L477.862 118.11ZM458.578 148.182C451.909 162.033 444.735 181.254 437.054 205.833L438.008 206.131C445.683 181.572 452.84 162.404 459.479 148.616L458.578 148.182ZM437.054 205.833C429.37 230.42 421.305 261.786 412.858 299.926L413.834 300.142C422.278 262.017 430.336 230.681 438.008 206.131L437.054 205.833ZM413.841 300.109L421.902 246.364L420.913 246.216L412.852 299.96L413.841 300.109ZM421.892 246.414C429.568 216.477 436.603 191.921 442.996 172.742L442.047 172.426C435.644 191.635 428.603 216.217 420.923 246.166L421.892 246.414ZM442.997 172.74C449.389 153.305 455.775 138.114 462.148 127.152L461.284 126.65C454.861 137.697 448.45 152.961 442.047 172.427L442.997 172.74ZM462.151 127.148C468.524 115.931 475.506 108.209 483.076 103.919L482.583 103.049C474.798 107.46 467.704 115.349 461.281 126.654L462.151 127.148ZM483.087 103.913C490.676 99.3589 499.542 97.0739 509.702 97.0739V96.0739C499.388 96.0739 490.339 98.3954 482.573 103.055L483.087 103.913ZM509.702 97.0739C521.627 97.0739 530.689 100.622 536.969 107.656L537.715 106.99C531.199 99.6918 521.834 96.0739 509.702 96.0739V97.0739ZM536.969 107.656C543.277 114.721 546.439 123.429 546.439 133.811H547.439C547.439 123.207 544.203 114.256 537.715 106.99L536.969 107.656ZM546.439 133.811C546.439 142.177 544.538 150.032 540.737 157.382L541.625 157.842C545.501 150.348 547.439 142.336 547.439 133.811H546.439ZM540.733 157.388C537.189 164.478 532.126 170.3 525.541 174.86L526.11 175.682C532.832 171.028 538.007 165.077 541.628 157.836L540.733 157.388ZM525.544 174.857C519.236 179.147 511.915 181.297 503.56 181.297V182.297C512.096 182.297 519.618 180.097 526.106 175.684L525.544 174.857ZM503.56 181.297C494.172 181.297 487.154 178.888 482.416 174.15L481.708 174.857C486.696 179.844 494.009 182.297 503.56 182.297V181.297ZM482.416 174.15C477.678 169.412 475.268 162.393 475.268 153.005H474.268C474.268 162.556 476.721 169.869 481.708 174.857L482.416 174.15ZM475.268 153.005C475.268 145.415 477.164 138.336 480.96 131.758L480.093 131.258C476.211 137.988 474.268 145.24 474.268 153.005H475.268ZM480.96 131.758C484.762 125.166 489.832 119.589 496.174 115.022L495.59 114.211C489.136 118.858 483.969 124.541 480.093 131.258L480.96 131.758ZM496.184 115.015C502.523 110.197 509.359 107.161 516.697 105.896L516.527 104.911C509.021 106.205 502.037 109.311 495.579 114.219L496.184 115.015ZM516.77 104.929C515.987 104.668 515.079 104.409 514.046 104.15L513.803 105.121C514.818 105.374 515.701 105.627 516.454 105.878L516.77 104.929ZM514.083 104.161C513.253 103.884 512.301 103.752 511.237 103.752V104.752C512.221 104.752 513.061 104.875 513.767 105.11L514.083 104.161ZM721.233 187.555L721.717 187.679L721.82 187.279L721.445 187.103L721.233 187.555ZM689.754 163.37L689.365 163.684L689.369 163.689L689.754 163.37ZM684.764 105.019L684.402 104.674L684.394 104.683L684.764 105.019ZM729.295 106.555L728.884 106.84L728.884 106.84L729.295 106.555ZM731.214 179.11L730.725 179.007L730.723 179.015L731.214 179.11ZM716.626 225.56L716.169 225.358L716.166 225.365L716.626 225.56ZM691.674 266.636L691.29 266.316L691.289 266.317L691.674 266.636ZM655.972 295.812L656.206 296.254L656.209 296.252L655.972 295.812ZM571.901 299.65L571.657 300.087L571.664 300.091L571.672 300.095L571.901 299.65ZM553.474 281.608L553.024 281.825L553.027 281.831L553.474 281.608ZM562.687 209.821L563.116 210.079L563.117 210.076L562.687 209.821ZM602.612 161.067L602.269 160.703L602.266 160.705L602.612 161.067ZM660.195 113.081L660.494 113.482L661.768 112.53L660.179 112.581L660.195 113.081ZM639.849 119.223L640.126 119.639L640.13 119.636L639.849 119.223ZM625.261 131.508L624.898 131.164L624.898 131.164L625.261 131.508ZM612.209 143.792L612.524 144.18L612.527 144.178L612.209 143.792ZM587.256 146.095L586.962 146.5L586.982 146.515L587.004 146.527L587.256 146.095ZM569.981 146.479L570.376 146.786L570.376 146.786L569.981 146.479ZM564.991 157.612L565.465 157.77L565.467 157.763L565.47 157.756L564.991 157.612ZM562.303 165.674V166.174H562.664L562.778 165.832L562.303 165.674ZM555.01 165.674L554.531 165.529L554.337 166.174H555.01V165.674ZM563.455 137.65L563.934 137.794L563.936 137.785L563.455 137.65ZM579.962 104.636L580.293 105.011L580.293 105.011L579.962 104.636ZM612.209 98.8772L611.985 99.3244L611.985 99.3244L612.209 98.8772ZM624.109 104.636L623.897 105.088L623.908 105.093L623.919 105.098L624.109 104.636ZM652.133 106.555L652.192 107.052L652.206 107.05L652.22 107.047L652.133 106.555ZM666.721 101.564L666.936 102.016L667.086 101.944L667.163 101.797L666.721 101.564ZM670.56 94.2705L670.775 93.8191L670.341 93.6126L670.117 94.0377L670.56 94.2705ZM678.621 98.1094L679.048 98.3701L679.338 97.8966L678.836 97.658L678.621 98.1094ZM655.204 141.489L654.753 141.274L654.751 141.278L655.204 141.489ZM637.162 186.02L637.633 186.185L637.634 186.183L637.162 186.02ZM625.261 227.096L625.749 227.203L625.749 227.203L625.261 227.096ZM624.877 279.688L624.446 279.942L624.446 279.942L624.877 279.688ZM661.347 280.84L661.123 280.393L661.123 280.393L661.347 280.84ZM681.309 265.868L681.669 266.215L681.669 266.215L681.309 265.868ZM698.2 243.987L698.624 244.252L698.627 244.246L698.2 243.987ZM711.636 217.115L712.099 217.302L712.101 217.298L711.636 217.115ZM721.445 187.103C708.969 181.246 698.536 173.23 690.14 163.052L689.369 163.689C697.863 173.985 708.416 182.092 721.021 188.008L721.445 187.103ZM690.144 163.057C681.767 152.65 677.586 140.987 677.586 128.053H676.586C676.586 141.223 680.85 153.105 689.365 163.684L690.144 163.057ZM677.586 128.053C677.586 118.416 680.12 110.871 685.134 105.356L684.394 104.683C679.17 110.429 676.586 118.239 676.586 128.053H677.586ZM685.125 105.365C690.386 99.854 697.665 97.0739 707.029 97.0739V96.0739C697.455 96.0739 689.891 98.9241 684.402 104.674L685.125 105.365ZM707.029 97.0739C717.151 97.0739 724.395 100.356 728.884 106.84L729.706 106.27C724.981 99.4457 717.382 96.0739 707.029 96.0739V97.0739ZM728.884 106.84C733.411 113.38 735.705 122.48 735.705 134.195H736.705C736.705 122.365 734.391 113.038 729.706 106.27L728.884 106.84ZM735.705 134.195C735.705 148.232 734.046 163.169 730.725 179.007L731.703 179.212C735.037 163.316 736.705 148.31 736.705 134.195H735.705ZM730.723 179.015C727.659 194.845 722.808 210.292 716.169 225.359L717.084 225.762C723.753 210.629 728.627 195.11 731.705 179.205L730.723 179.015ZM716.166 225.365C709.787 240.421 701.494 254.07 691.29 266.316L692.058 266.956C702.327 254.633 710.67 240.899 717.087 225.755L716.166 225.365ZM691.289 266.317C681.349 278.296 669.499 287.98 655.736 295.371L656.209 296.252C670.085 288.8 682.036 279.034 692.058 266.955L691.289 266.317ZM655.739 295.37C642.257 302.492 626.728 306.06 609.138 306.06V307.06C626.866 307.06 642.559 303.463 656.206 296.254L655.739 295.37ZM609.138 306.06C593.309 306.06 580.987 303.761 572.129 299.206L571.672 300.095C580.729 304.753 593.232 307.06 609.138 307.06V306.06ZM572.145 299.214C563.509 294.388 557.449 288.441 553.921 281.384L553.027 281.831C556.665 289.107 562.889 295.187 571.657 300.087L572.145 299.214ZM553.924 281.39C550.372 274.031 548.6 266.555 548.6 258.958H547.6C547.6 266.717 549.411 274.341 553.024 281.825L553.924 281.39ZM548.6 258.958C548.6 242.426 553.431 226.135 563.116 210.079L562.259 209.563C552.493 225.753 547.6 242.221 547.6 258.958H548.6ZM563.117 210.076C572.815 193.744 586.092 177.527 602.957 161.429L602.266 160.705C585.35 176.853 572.01 193.139 562.257 209.565L563.117 210.076ZM602.954 161.431C620.086 145.322 639.266 129.339 660.494 113.482L659.896 112.68C638.641 128.558 619.431 144.565 602.269 160.703L602.954 161.431ZM660.179 112.581C652.166 112.84 645.288 114.909 639.567 118.81L640.13 119.636C645.67 115.859 652.356 113.834 660.211 113.581L660.179 112.581ZM639.571 118.807C634.166 122.411 629.275 126.53 624.898 131.164L625.625 131.851C629.949 127.272 634.782 123.202 640.126 119.639L639.571 118.807ZM624.898 131.164C620.559 135.758 616.224 139.838 611.891 143.406L612.527 144.178C616.895 140.58 621.261 136.471 625.625 131.851L624.898 131.164ZM611.894 143.404C607.89 146.657 603.267 148.283 598.005 148.283V149.283C603.492 149.283 608.338 147.581 612.524 144.18L611.894 143.404ZM598.005 148.283C593.985 148.283 590.492 147.404 587.508 145.663L587.004 146.527C590.163 148.37 593.835 149.283 598.005 149.283V148.283ZM587.55 145.691C584.647 143.58 581.344 142.524 577.659 142.524V143.524C581.14 143.524 584.235 144.516 586.962 146.5L587.55 145.691ZM577.659 142.524C574.202 142.524 571.487 143.729 569.587 146.172L570.376 146.786C572.059 144.623 574.462 143.524 577.659 143.524V142.524ZM569.587 146.172C567.738 148.549 566.053 152.331 564.512 157.468L565.47 157.756C567 152.656 568.642 149.016 570.376 146.786L569.587 146.172ZM564.516 157.454L561.829 165.516L562.778 165.832L565.465 157.77L564.516 157.454ZM562.303 165.174H555.01V166.174H562.303V165.174ZM555.488 165.818L563.934 137.794L562.976 137.506L554.531 165.529L555.488 165.818ZM563.936 137.785C568.538 121.423 574.01 110.54 580.293 105.011L579.632 104.26C573.119 109.992 567.585 121.119 562.974 137.514L563.936 137.785ZM580.293 105.011C586.626 99.4376 593.039 96.69 599.541 96.69V95.69C592.734 95.69 586.095 98.5727 579.632 104.26L580.293 105.011ZM599.541 96.69C604.342 96.69 608.485 97.5743 611.985 99.3244L612.432 98.43C608.767 96.5971 604.464 95.69 599.541 95.69V96.69ZM611.985 99.3244C615.572 101.118 619.543 103.039 623.897 105.088L624.322 104.183C619.974 102.137 616.011 100.219 612.432 98.43L611.985 99.3244ZM623.919 105.098C628.355 106.924 634.315 107.823 641.768 107.823V106.823C634.378 106.823 628.565 105.93 624.3 104.173L623.919 105.098ZM641.768 107.823C644.356 107.823 647.833 107.564 652.192 107.052L652.075 106.058C647.732 106.569 644.299 106.823 641.768 106.823V107.823ZM652.22 107.047C656.627 106.27 661.534 104.588 666.936 102.016L666.506 101.113C661.159 103.659 656.34 105.305 652.046 106.063L652.22 107.047ZM667.163 101.797L671.002 94.5034L670.117 94.0377L666.278 101.332L667.163 101.797ZM670.345 94.722L678.407 98.5608L678.836 97.658L670.775 93.8191L670.345 94.722ZM678.195 97.8487C669.74 111.684 661.926 126.159 654.753 141.274L655.656 141.703C662.815 126.619 670.612 112.175 679.048 98.3701L678.195 97.8487ZM654.751 141.278C647.834 156.136 641.813 170.996 636.689 185.857L637.634 186.183C642.747 171.356 648.755 156.528 655.658 141.7L654.751 141.278ZM636.69 185.854C631.566 200.458 627.593 214.169 624.773 226.988L625.749 227.203C628.56 214.43 632.52 200.757 637.633 186.185L636.69 185.854ZM624.773 226.988C621.953 239.806 620.538 250.849 620.538 260.11H621.538C621.538 250.944 622.939 239.978 625.749 227.203L624.773 226.988ZM620.538 260.11C620.538 268.844 621.82 275.477 624.446 279.942L625.308 279.435C622.816 275.198 621.538 268.779 621.538 260.11H620.538ZM624.446 279.942C627.124 284.494 631.93 286.714 638.697 286.714V285.714C632.156 285.714 627.749 283.585 625.308 279.435L624.446 279.942ZM638.697 286.714C646.709 286.714 654.336 284.905 661.57 281.287L661.123 280.393C654.026 283.941 646.552 285.714 638.697 285.714V286.714ZM661.57 281.287C668.792 277.676 675.492 272.65 681.669 266.215L680.948 265.522C674.841 271.883 668.233 276.838 661.123 280.393L661.57 281.287ZM681.669 266.215C687.837 259.79 693.489 252.468 698.624 244.252L697.776 243.722C692.674 251.885 687.064 259.151 680.948 265.522L681.669 266.215ZM698.627 244.246C703.76 235.777 708.251 226.796 712.099 217.302L711.172 216.927C707.343 226.372 702.876 235.306 697.772 243.728L698.627 244.246ZM712.101 217.298C715.947 207.554 719.153 197.681 721.717 187.679L720.749 187.431C718.195 197.392 715.002 207.225 711.171 216.931L712.101 217.298ZM887.285 7.51191L886.98 7.90764L886.988 7.914L887.285 7.51191ZM882.295 56.2657L882.607 56.6561L882.609 56.655L882.295 56.2657ZM823.56 60.4884L823.254 60.8842L823.263 60.8905L823.56 60.4884ZM798.991 134.579L799.466 134.737L798.991 134.579ZM784.787 123.83L785.141 124.183L785.148 124.177L785.154 124.17L784.787 123.83ZM774.422 142.64L773.956 142.459L773.955 142.464L774.422 142.64ZM765.593 166.058V166.558H765.939L766.061 166.234L765.593 166.058ZM758.299 166.058L757.829 165.889L757.588 166.558H758.299V166.058ZM769.048 136.114L768.579 135.941L768.577 135.945L769.048 136.114ZM782.484 113.081L782.123 112.735L782.122 112.736L782.484 113.081ZM802.062 100.413L802.225 100.885L802.225 100.885L802.062 100.413ZM849.664 101.564L849.418 102L849.418 102L849.664 101.564ZM862.333 114.617L861.881 114.832L861.886 114.84L862.333 114.617ZM863.101 150.318L863.574 150.478L863.575 150.476L863.101 150.318ZM823.176 268.556L822.702 268.396L822.7 268.403L823.176 268.556ZM822.025 281.608L821.587 281.851L821.594 281.862L821.601 281.873L822.025 281.608ZM836.612 280.84L836.903 281.247L836.912 281.24L836.921 281.233L836.612 280.84ZM848.129 260.494L848.596 260.672L848.597 260.669L848.129 260.494ZM856.191 238.996V238.496H855.844L855.722 238.821L856.191 238.996ZM863.484 238.996L863.957 239.158L864.184 238.496H863.484V238.996ZM853.887 267.02L854.358 267.188L854.36 267.182L853.887 267.02ZM839.3 291.589L838.954 291.228L838.954 291.228L839.3 291.589ZM819.721 303.105L819.584 302.625L819.573 302.628L819.563 302.631L819.721 303.105ZM771.351 299.65L771.064 300.059L771.072 300.065L771.081 300.071L771.351 299.65ZM758.683 277.769L758.189 277.845L758.189 277.847L758.683 277.769ZM763.674 240.532L763.199 240.374L763.198 240.376L763.674 240.532ZM815.615 41.6779C815.615 27.9741 820.049 17.9055 828.849 11.3683L828.252 10.5655C819.138 17.3365 814.615 27.7418 814.615 41.6779H815.615ZM828.849 11.3683C837.704 4.78989 848.727 1.48581 861.949 1.48581V0.485809C848.555 0.485809 837.312 3.83579 828.252 10.5655L828.849 11.3683ZM861.949 1.48581C873.159 1.48581 881.475 3.65382 886.98 7.90755L887.591 7.11627C881.835 2.66853 873.26 0.485809 861.949 0.485809V1.48581ZM886.988 7.914C892.722 12.152 895.615 18.5135 895.615 27.0902H896.615C896.615 18.264 893.621 11.5733 887.583 7.10982L886.988 7.914ZM895.615 27.0902C895.615 38.9703 891.074 48.5512 881.981 55.8763L882.609 56.655C891.942 49.1365 896.615 39.267 896.615 27.0902H895.615ZM881.983 55.8752C873.128 62.9592 862.11 66.5145 848.897 66.5145V67.5145C862.299 67.5145 873.547 63.904 882.607 56.6561L881.983 55.8752ZM848.897 66.5145C837.948 66.5145 829.624 64.3487 823.857 60.0863L823.263 60.8905C829.269 65.3296 837.836 67.5145 848.897 67.5145V66.5145ZM823.866 60.0928C818.378 55.8518 815.615 49.7391 815.615 41.6779H814.615C814.615 49.9959 817.482 56.4236 823.254 60.8841L823.866 60.0928ZM799.466 134.737C801.261 129.35 801.909 125.209 801.304 122.382C800.997 120.951 800.362 119.826 799.367 119.066C798.375 118.308 797.082 117.955 795.536 117.955V118.955C796.934 118.955 797.992 119.274 798.76 119.861C799.524 120.444 800.057 121.335 800.326 122.591C800.872 125.138 800.304 129.059 798.517 134.421L799.466 134.737ZM795.536 117.955C791.523 117.955 787.815 119.834 784.421 123.49L785.154 124.17C788.414 120.659 791.872 118.955 795.536 118.955V117.955ZM784.434 123.476C781.028 126.882 777.543 133.237 773.956 142.459L774.888 142.822C778.468 133.617 781.893 127.432 785.141 124.183L784.434 123.476ZM773.955 142.464L765.125 165.881L766.061 166.234L774.89 142.817L773.955 142.464ZM765.593 165.558H758.299V166.558H765.593V165.558ZM758.77 166.226L769.519 136.283L768.577 135.945L757.829 165.889L758.77 166.226ZM769.517 136.287C773.084 126.606 777.531 118.994 782.846 113.426L782.122 112.736C776.688 118.429 772.178 126.172 768.579 135.941L769.517 136.287ZM782.845 113.427C788.423 107.596 794.882 103.418 802.225 100.885L801.899 99.9401C794.399 102.526 787.806 106.794 782.123 112.735L782.845 113.427ZM802.225 100.885C809.589 98.3461 817.595 97.0739 826.247 97.0739V96.0739C817.496 96.0739 809.379 97.3609 801.899 99.9401L802.225 100.885ZM826.247 97.0739C835.922 97.0739 843.633 98.7297 849.418 102L849.91 101.129C843.923 97.7451 836.023 96.0739 826.247 96.0739V97.0739ZM849.418 102C855.228 105.283 859.372 109.562 861.881 114.832L862.784 114.402C860.175 108.922 855.874 104.5 849.91 101.129L849.418 102ZM861.886 114.84C864.406 119.881 865.672 125.562 865.672 131.892H866.672C866.672 125.425 865.378 119.589 862.78 114.393L861.886 114.84ZM865.672 131.892C865.672 137.977 864.658 144.066 862.626 150.16L863.575 150.476C865.638 144.286 866.672 138.09 866.672 131.892H865.672ZM862.627 150.158L822.702 268.396L823.65 268.716L863.574 150.478L862.627 150.158ZM822.7 268.403C821.67 271.621 821.051 274.347 820.855 276.573C820.659 278.789 820.877 280.571 821.587 281.851L822.462 281.365C821.893 280.341 821.662 278.796 821.851 276.661C822.038 274.537 822.635 271.888 823.652 268.708L822.7 268.403ZM821.601 281.873C822.978 284.077 825.064 285.179 827.783 285.179V284.179C825.384 284.179 823.63 283.234 822.449 281.343L821.601 281.873ZM827.783 285.179C830.249 285.179 833.301 283.82 836.903 281.247L836.322 280.433C832.758 282.979 829.923 284.179 827.783 284.179V285.179ZM836.921 281.233C838.788 279.766 840.682 277.302 842.614 273.888C844.55 270.468 846.544 266.06 848.596 260.672L847.662 260.316C845.619 265.677 843.646 270.034 841.744 273.396C839.837 276.765 838.02 279.098 836.303 280.447L836.921 281.233ZM848.597 260.669L856.659 239.172L855.722 238.821L847.661 260.318L848.597 260.669ZM856.191 239.496H863.484V238.496H856.191V239.496ZM863.011 238.834L853.414 266.858L854.36 267.182L863.957 239.158L863.011 238.834ZM853.416 266.852C849.594 277.555 844.766 285.668 838.954 291.228L839.645 291.95C845.606 286.249 850.503 277.983 854.358 267.188L853.416 266.852ZM838.954 291.228C833.121 296.807 826.665 300.602 819.584 302.625L819.859 303.586C827.11 301.514 833.706 297.631 839.645 291.95L838.954 291.228ZM819.563 302.631C812.701 304.918 805.845 306.06 798.991 306.06V307.06C805.958 307.06 812.921 305.899 819.879 303.58L819.563 302.631ZM798.991 306.06C787.796 306.06 778.685 303.77 771.622 299.23L771.081 300.071C778.35 304.744 787.665 307.06 798.991 307.06V306.06ZM771.639 299.242C764.858 294.47 760.695 287.306 759.177 277.691L758.189 277.847C759.742 287.682 764.025 295.106 771.064 300.059L771.639 299.242ZM759.177 277.693C757.658 267.82 759.299 255.493 764.149 240.687L763.198 240.376C758.324 255.257 756.637 267.755 758.189 277.845L759.177 277.693ZM764.148 240.69L799.466 134.737L798.517 134.421L763.199 240.374L764.148 240.69ZM1005.88 116.536L1006.21 116.91L1006.22 116.905L1005.88 116.536ZM982.082 148.783L982.525 149.013L982.527 149.01L982.082 148.783ZM965.575 193.697L966.06 193.819L966.06 193.817L965.575 193.697ZM967.878 273.546L968.246 273.208L968.246 273.208L967.878 273.546ZM1012.79 276.233L1012.55 275.798L1012.55 275.798L1012.79 276.233ZM1036.21 252.048L1036.4 251.584L1036.02 251.434L1035.8 251.769L1036.21 252.048ZM1043.89 255.12L1044.31 255.388L1044.63 254.879L1044.07 254.655L1043.89 255.12ZM1023.54 279.688L1023.19 279.329L1023.19 279.335L1023.54 279.688ZM994.75 299.267L994.952 299.724L994.957 299.722L994.75 299.267ZM907.224 291.973L907.522 291.572L907.224 291.973ZM893.788 205.214L893.31 205.066L893.308 205.072L893.788 205.214ZM912.214 164.906L911.791 164.64L911.789 164.642L912.214 164.906ZM941.774 129.972L942.106 130.346L942.106 130.346L941.774 129.972ZM980.93 105.787L981.117 106.251L981.124 106.248L980.93 105.787ZM1065.39 108.474L1065.72 108.105L1065.72 108.105L1065.39 108.474ZM1055.79 179.494L1056.08 179.897L1056.09 179.895L1055.79 179.494ZM1019.32 127.285L1019.7 127.611L1019.7 127.611L1019.32 127.285ZM1046.57 108.858L1046.72 109.337L1047.6 109.074L1046.9 108.479L1046.57 108.858ZM1040.82 105.403L1040.99 104.935L1040.99 104.935L1040.82 105.403ZM1033.52 103.752C1023.9 103.752 1014.57 107.918 1005.55 116.167L1006.22 116.905C1015.11 108.775 1024.21 104.752 1033.52 104.752V103.752ZM1005.55 116.162C996.536 124.147 988.567 134.95 981.636 148.556L982.527 149.01C989.416 135.487 997.315 124.793 1006.21 116.91L1005.55 116.162ZM981.638 148.552C974.707 161.9 969.192 176.91 965.089 193.578L966.06 193.817C970.147 177.215 975.636 162.281 982.525 149.013L981.638 148.552ZM965.089 193.576C960.985 209.995 958.932 226.671 958.932 243.603H959.932C959.932 226.753 961.975 210.158 966.06 193.819L965.089 193.576ZM958.932 243.603C958.932 257.471 961.754 267.605 967.509 273.884L968.246 273.208C962.741 267.203 959.932 257.375 959.932 243.603H958.932ZM967.509 273.884C973.245 280.141 980.806 283.259 990.143 283.259V282.259C981.054 282.259 973.772 279.236 968.246 273.208L967.509 273.884ZM990.143 283.259C997.667 283.259 1005.3 281.054 1013.04 276.668L1012.55 275.798C1004.93 280.115 997.464 282.259 990.143 282.259V283.259ZM1013.04 276.668C1020.81 272.263 1028.67 264.13 1036.62 252.328L1035.8 251.769C1027.88 263.512 1020.13 271.502 1012.55 275.798L1013.04 276.668ZM1036.02 252.513L1043.7 255.584L1044.07 254.655L1036.4 251.584L1036.02 252.513ZM1043.47 254.851C1038.12 263.259 1031.36 271.419 1023.19 279.329L1023.89 280.047C1032.1 272.09 1038.91 263.871 1044.31 255.388L1043.47 254.851ZM1023.19 279.335C1015.3 287.222 1005.75 293.715 994.543 298.811L994.957 299.722C1006.27 294.581 1015.91 288.022 1023.9 280.042L1023.19 279.335ZM994.548 298.809C983.62 303.638 970.767 306.06 955.977 306.06V307.06C970.875 307.06 983.871 304.62 994.952 299.724L994.548 298.809ZM955.977 306.06C936.613 306.06 920.472 301.221 907.522 291.572L906.925 292.374C920.079 302.175 936.441 307.06 955.977 307.06V306.06ZM907.522 291.572C894.632 281.967 888.145 266.784 888.145 245.906H887.145C887.145 267 893.711 282.528 906.925 292.374L907.522 291.572ZM888.145 245.906C888.145 232.65 890.185 219.134 894.267 205.356L893.308 205.072C889.201 218.934 887.145 232.546 887.145 245.906H888.145ZM894.265 205.362C898.603 191.327 904.727 177.93 912.639 165.169L911.789 164.642C903.834 177.474 897.673 190.949 893.31 205.066L894.265 205.362ZM912.638 165.172C920.802 152.16 930.624 140.551 942.106 130.346L941.441 129.598C929.889 139.867 920.005 151.548 911.791 164.64L912.638 165.172ZM942.106 130.346C953.579 120.148 966.581 112.116 981.117 106.251L980.743 105.324C966.103 111.231 953.002 119.323 941.441 129.598L942.106 130.346ZM981.124 106.248C995.645 100.134 1011.45 97.0739 1028.53 97.0739V96.0739C1011.32 96.0739 995.39 99.1562 980.736 105.326L981.124 106.248ZM1028.53 97.0739C1044.32 97.0739 1056.47 101.02 1065.05 108.844L1065.72 108.105C1056.9 100.062 1044.48 96.0739 1028.53 96.0739V97.0739ZM1065.05 108.844C1073.66 116.693 1077.94 125.904 1077.94 136.498H1078.94C1078.94 125.594 1074.52 116.123 1065.72 108.105L1065.05 108.844ZM1077.94 136.498C1077.94 144.601 1075.91 152.454 1071.85 160.064L1072.74 160.535C1076.87 152.789 1078.94 144.775 1078.94 136.498H1077.94ZM1071.85 160.064C1067.79 167.677 1062.34 174.018 1055.49 179.092L1056.09 179.895C1063.06 174.732 1068.61 168.277 1072.74 160.535L1071.85 160.064ZM1055.49 179.09C1048.92 183.89 1041.61 186.287 1033.52 186.287V187.287C1041.82 187.287 1049.34 184.822 1056.08 179.897L1055.49 179.09ZM1033.52 186.287C1027 186.287 1021.1 184.032 1015.81 179.498L1015.15 180.257C1020.61 184.936 1026.74 187.287 1033.52 187.287V186.287ZM1015.81 179.498C1010.57 175.008 1007.92 168.507 1007.92 159.915H1006.92C1006.92 168.726 1009.64 175.534 1015.15 180.257L1015.81 179.498ZM1007.92 159.915C1007.92 147.491 1011.84 136.731 1019.7 127.611L1018.94 126.959C1010.93 136.266 1006.92 147.259 1006.92 159.915H1007.92ZM1019.7 127.611C1027.58 118.46 1036.58 112.377 1046.72 109.337L1046.43 108.379C1036.09 111.482 1026.93 117.683 1018.94 126.959L1019.7 127.611ZM1046.9 108.479C1045.07 106.908 1043.1 105.725 1040.99 104.935L1040.64 105.871C1042.63 106.617 1044.5 107.737 1046.25 109.238L1046.9 108.479ZM1040.99 104.935C1038.88 104.141 1036.38 103.752 1033.52 103.752V104.752C1036.29 104.752 1038.66 105.13 1040.64 105.871L1040.99 104.935ZM1142.69 220.57L1142.48 220.117L1142.22 220.237L1142.19 220.52L1142.69 220.57ZM1166.88 206.75L1167.16 207.164L1167.16 207.164L1166.88 206.75ZM1188.76 189.091L1189.1 189.451L1189.11 189.449L1188.76 189.091ZM1213.71 154.925L1213.27 154.694L1213.26 154.701L1213.71 154.925ZM1222.16 106.171L1221.74 106.448L1221.75 106.466L1221.77 106.483L1222.16 106.171ZM1200.66 112.697L1201 113.058L1201 113.058L1200.66 112.697ZM1183 135.73L1183.42 135.994L1183.43 135.989L1183 135.73ZM1166.88 167.977L1166.41 167.79L1166.41 167.798L1166.88 167.977ZM1155.36 205.214L1154.87 205.097L1154.87 205.105L1155.36 205.214ZM1159.97 271.627L1159.64 272.004L1159.65 272.012L1159.97 271.627ZM1206.03 273.162L1206.21 273.63L1206.21 273.63L1206.03 273.162ZM1236.74 252.048L1236.97 251.601L1236.64 251.44L1236.39 251.695L1236.74 252.048ZM1242.89 255.12L1243.3 255.397L1243.62 254.926L1243.11 254.672L1242.89 255.12ZM1220.62 279.688L1220.29 279.309L1220.29 279.309L1220.62 279.688ZM1187.99 299.267L1188.17 299.733L1188.18 299.73L1187.99 299.267ZM1112.36 300.418L1112.17 300.881L1112.18 300.882L1112.36 300.418ZM1088.18 282.376L1087.77 282.667L1087.78 282.675L1087.78 282.682L1088.18 282.376ZM1086.26 207.517L1085.78 207.362L1085.78 207.369L1086.26 207.517ZM1106.61 165.29L1107.02 165.563L1107.02 165.563L1106.61 165.29ZM1137.7 129.972L1138.02 130.353L1138.02 130.352L1137.7 129.972ZM1178.39 105.403L1178.21 104.938L1178.21 104.938L1178.39 105.403ZM1259.78 105.019L1259.51 105.443L1259.52 105.447L1259.52 105.451L1259.78 105.019ZM1265.92 157.996L1266.35 158.255L1266.35 158.249L1265.92 157.996ZM1244.8 181.413L1245.11 181.809L1245.12 181.803L1244.8 181.413ZM1214.48 200.224L1214.7 200.671L1214.7 200.671L1214.48 200.224ZM1178.78 214.811L1178.62 214.336L1178.62 214.337L1178.78 214.811ZM1142.31 224.408L1141.81 224.359L1141.74 225.026L1142.4 224.9L1142.31 224.408ZM1142.9 221.022C1151.12 217.172 1159.2 212.552 1167.16 207.164L1166.6 206.336C1158.68 211.696 1150.64 216.29 1142.48 220.117L1142.9 221.022ZM1167.16 207.164C1175.11 201.774 1182.43 195.87 1189.1 189.451L1188.41 188.73C1181.78 195.108 1174.51 200.977 1166.6 206.336L1167.16 207.164ZM1189.11 189.449C1199.38 179.429 1207.73 167.995 1214.16 155.148L1213.26 154.701C1206.89 167.448 1198.61 178.791 1188.41 188.733L1189.11 189.449ZM1214.15 155.155C1220.85 142.286 1224.19 128.386 1224.19 113.465H1223.19C1223.19 128.231 1219.88 141.971 1213.27 154.694L1214.15 155.155ZM1224.19 113.465C1224.19 111.653 1224.06 110.112 1223.8 108.851C1223.53 107.595 1223.13 106.583 1222.55 105.859L1221.77 106.483C1222.21 107.039 1222.57 107.882 1222.82 109.057C1223.06 110.228 1223.19 111.694 1223.19 113.465H1224.19ZM1222.57 105.894C1221.44 104.202 1219.74 103.368 1217.55 103.368V104.368C1219.45 104.368 1220.82 105.069 1221.74 106.448L1222.57 105.894ZM1217.55 103.368C1212.24 103.368 1206.49 106.416 1200.31 112.336L1201 113.058C1207.11 107.206 1212.62 104.368 1217.55 104.368V103.368ZM1200.31 112.336C1194.38 118.006 1188.47 125.722 1182.57 135.472L1183.43 135.989C1189.3 126.288 1195.16 118.649 1201 113.058L1200.31 112.336ZM1182.57 135.466C1176.67 144.964 1171.28 155.739 1166.41 167.79L1167.34 168.164C1172.19 156.158 1177.55 145.436 1183.42 135.994L1182.57 135.466ZM1166.41 167.798C1161.79 179.847 1157.95 192.281 1154.87 205.097L1155.85 205.331C1158.91 192.555 1162.74 180.164 1167.34 168.156L1166.41 167.798ZM1154.87 205.105C1152.05 217.678 1150.64 229.871 1150.64 241.683H1151.64C1151.64 229.951 1153.04 217.831 1155.85 205.324L1154.87 205.105ZM1150.64 241.683C1150.64 256.553 1153.58 266.734 1159.64 272.004L1160.29 271.249C1154.58 266.283 1151.64 256.501 1151.64 241.683H1150.64ZM1159.65 272.012C1165.64 276.965 1173.44 279.421 1183 279.421V278.421C1173.62 278.421 1166.06 276.013 1160.28 271.241L1159.65 272.012ZM1183 279.421C1188.21 279.421 1195.96 277.472 1206.21 273.63L1205.86 272.694C1195.63 276.53 1188.02 278.421 1183 278.421V279.421ZM1206.21 273.63C1216.53 269.76 1226.82 262.674 1237.1 252.402L1236.39 251.695C1226.19 261.897 1216.01 268.887 1205.86 272.694L1206.21 273.63ZM1236.52 252.496L1242.66 255.567L1243.11 254.672L1236.97 251.601L1236.52 252.496ZM1242.47 254.842C1236.87 263.243 1229.48 271.4 1220.29 279.309L1220.95 280.067C1230.19 272.11 1237.64 263.887 1243.3 255.397L1242.47 254.842ZM1220.29 279.309C1211.13 287.204 1200.3 293.703 1187.8 298.804L1188.18 299.73C1200.76 294.593 1211.69 288.04 1220.95 280.067L1220.29 279.309ZM1187.81 298.8C1175.33 303.637 1161.32 306.06 1145.76 306.06V307.06C1161.43 307.06 1175.56 304.621 1188.17 299.733L1187.81 298.8ZM1145.76 306.06C1133.79 306.06 1122.72 304.023 1112.55 299.954L1112.18 300.882C1122.48 305.003 1133.68 307.06 1145.76 307.06V306.06ZM1112.55 299.956C1102.65 295.892 1094.66 289.929 1088.57 282.069L1087.78 282.682C1093.98 290.69 1102.12 296.755 1112.17 300.881L1112.55 299.956ZM1088.58 282.084C1082.77 273.993 1079.85 264.118 1079.85 252.432H1078.85C1078.85 264.291 1081.82 274.379 1087.77 282.667L1088.58 282.084ZM1079.85 252.432C1079.85 237.384 1082.14 222.463 1086.74 207.666L1085.78 207.369C1081.16 222.259 1078.85 237.281 1078.85 252.432H1079.85ZM1086.73 207.673C1091.58 192.872 1098.35 178.836 1107.02 165.563L1106.19 165.016C1097.46 178.36 1090.66 192.476 1085.78 207.362L1086.73 207.673ZM1107.02 165.563C1115.7 152.295 1126.03 140.559 1138.02 130.353L1137.38 129.591C1125.31 139.86 1114.91 151.668 1106.19 165.016L1107.02 165.563ZM1138.02 130.352C1150.27 119.895 1163.78 111.734 1178.58 105.868L1178.21 104.938C1163.31 110.845 1149.7 119.064 1137.38 129.592L1138.02 130.352ZM1178.58 105.868C1193.36 100.006 1209.16 97.0739 1225.99 97.0739V96.0739C1209.04 96.0739 1193.11 99.0276 1178.21 104.938L1178.58 105.868ZM1225.99 97.0739C1239.49 97.0739 1250.65 99.8748 1259.51 105.443L1260.04 104.596C1250.99 98.9033 1239.63 96.0739 1225.99 96.0739V97.0739ZM1259.52 105.451C1268.57 110.728 1273.1 119 1273.1 130.356H1274.1C1274.1 118.679 1269.41 110.06 1260.03 104.588L1259.52 105.451ZM1273.1 130.356C1273.1 139.989 1270.56 149.115 1265.49 157.742L1266.35 158.249C1271.51 149.474 1274.1 140.174 1274.1 130.356H1273.1ZM1265.49 157.737C1260.41 166.125 1253.41 173.888 1244.49 181.023L1245.12 181.803C1254.11 174.607 1261.19 166.758 1266.35 158.255L1265.49 157.737ZM1244.5 181.017C1235.57 187.905 1225.49 194.159 1214.25 199.776L1214.7 200.671C1225.99 195.028 1236.12 188.741 1245.11 181.809L1244.5 181.017ZM1214.25 199.776C1203.02 205.395 1191.14 210.248 1178.62 214.336L1178.93 215.287C1191.49 211.184 1203.42 206.313 1214.7 200.671L1214.25 199.776ZM1178.62 214.337C1166.35 218.425 1154.22 221.618 1142.21 223.917L1142.4 224.9C1154.45 222.592 1166.63 219.387 1178.93 215.286L1178.62 214.337ZM1142.8 224.458L1143.19 220.619L1142.19 220.52L1141.81 224.359L1142.8 224.458ZM1310.87 295.812L1310.42 295.6L1310.21 296.041L1310.65 296.259L1310.87 295.812ZM1317.01 298.115L1316.89 298.6L1316.92 298.608L1316.96 298.612L1317.01 298.115ZM1343.88 290.821L1343.53 290.468L1343.53 290.468L1343.88 290.821ZM1345.8 242.067L1346.26 241.869L1346.26 241.869L1345.8 242.067ZM1329.68 212.124L1329.25 212.386L1329.26 212.392L1329.68 212.124ZM1313.56 184.1L1313.11 184.329L1313.11 184.334L1313.56 184.1ZM1340.43 104.252L1340.64 104.707L1340.64 104.707L1340.43 104.252ZM1414.14 100.413L1414.01 100.897L1414.01 100.898L1414.14 100.413ZM1439.09 113.849L1438.73 114.202L1438.74 114.209L1438.75 114.216L1439.09 113.849ZM1446 156.46L1445.53 156.282L1445.53 156.282L1446 156.46ZM1436.78 169.896L1437.11 170.274L1437.11 170.273L1436.78 169.896ZM1403.77 166.058L1403.36 166.347L1403.37 166.355L1403.77 166.058ZM1401.08 120.759L1400.63 120.557L1400.62 120.565L1400.62 120.573L1401.08 120.759ZM1409.53 106.555L1409.9 106.893L1410.35 106.404L1409.75 106.108L1409.53 106.555ZM1379.59 112.697L1379.21 112.363L1379.21 112.368L1379.2 112.373L1379.59 112.697ZM1372.68 134.963L1372.18 134.949V134.963H1372.68ZM1375.75 152.238L1375.27 152.402L1375.28 152.415L1375.28 152.427L1375.75 152.238ZM1384.58 169.513L1384.15 169.773L1384.15 169.781L1384.58 169.513ZM1395.32 187.171L1394.89 187.423L1394.89 187.425L1395.32 187.171ZM1412.98 222.489L1412.51 222.659L1412.52 222.667L1412.52 222.675L1412.98 222.489ZM1409.53 277.769L1409.11 277.489L1409.11 277.497L1409.53 277.769ZM1383.81 298.883L1384.02 299.338L1384.02 299.336L1383.81 298.883ZM1307.03 301.954L1307.17 301.472L1307.16 301.47L1307.03 301.954ZM1280.54 286.982L1280.18 287.322L1280.18 287.329L1280.54 286.982ZM1277.86 233.238L1278.26 233.533L1278.27 233.523L1277.86 233.238ZM1317.4 279.688L1316.93 279.5L1316.93 279.507L1316.93 279.515L1317.4 279.688ZM1310.65 296.259C1312.72 297.297 1314.8 298.079 1316.89 298.6L1317.13 297.63C1315.12 297.128 1313.11 296.373 1311.09 295.364L1310.65 296.259ZM1316.96 298.612C1319.28 298.87 1321.73 298.999 1324.31 298.999V297.999C1321.76 297.999 1319.35 297.872 1317.07 297.618L1316.96 298.612ZM1324.31 298.999C1332.36 298.999 1339.02 296.396 1344.24 291.175L1343.53 290.468C1338.52 295.483 1332.12 297.999 1324.31 297.999V298.999ZM1344.24 291.175C1349.72 285.69 1352.45 278.388 1352.45 269.323H1351.45C1351.45 278.174 1348.79 285.203 1343.53 290.468L1344.24 291.175ZM1352.45 269.323C1352.45 260.542 1350.38 251.389 1346.26 241.869L1345.34 242.266C1349.42 251.684 1351.45 260.702 1351.45 269.323H1352.45ZM1346.26 241.869C1342.16 232.371 1336.77 222.367 1330.1 211.856L1329.26 212.392C1335.9 222.867 1341.26 232.825 1345.34 242.266L1346.26 241.869ZM1330.11 211.862C1323.97 201.888 1318.6 192.557 1314 183.866L1313.11 184.334C1317.73 193.047 1323.11 202.398 1329.25 212.386L1330.11 211.862ZM1314 183.872C1309.43 174.99 1307.15 165.216 1307.15 154.541H1306.15C1306.15 165.364 1308.47 175.296 1313.11 184.329L1314 183.872ZM1307.15 154.541C1307.15 143.626 1309.94 133.869 1315.51 125.253L1314.67 124.71C1308.99 133.497 1306.15 143.446 1306.15 154.541H1307.15ZM1315.51 125.253C1321.08 116.646 1329.45 109.793 1340.64 104.707L1340.22 103.796C1328.89 108.947 1320.36 115.914 1314.67 124.71L1315.51 125.253ZM1340.64 104.707C1351.81 99.6269 1365.94 97.0739 1383.04 97.0739V96.0739C1365.85 96.0739 1351.57 98.6393 1340.22 103.796L1340.64 104.707ZM1383.04 97.0739C1393.75 97.0739 1404.07 98.3487 1414.01 100.897L1414.26 99.9284C1404.24 97.3583 1393.83 96.0739 1383.04 96.0739V97.0739ZM1414.01 100.898C1424.18 103.439 1432.41 107.878 1438.73 114.202L1439.44 113.495C1432.97 107.023 1424.57 102.505 1414.26 99.9277L1414.01 100.898ZM1438.75 114.216C1445.27 120.237 1448.57 129.044 1448.57 140.721H1449.57C1449.57 128.853 1446.21 119.745 1439.43 113.481L1438.75 114.216ZM1448.57 140.721C1448.57 145.772 1447.56 150.958 1445.53 156.282L1446.47 156.638C1448.53 151.214 1449.57 145.907 1449.57 140.721H1448.57ZM1445.53 156.282C1443.51 161.585 1440.49 165.994 1436.46 169.52L1437.11 170.273C1441.27 166.633 1444.39 162.085 1446.47 156.638L1445.53 156.282ZM1436.46 169.519C1432.73 172.751 1427.86 174.387 1421.81 174.387V175.387C1428.05 175.387 1433.16 173.696 1437.11 170.274L1436.46 169.519ZM1421.81 174.387C1414.28 174.387 1408.42 171.512 1404.17 165.76L1403.37 166.355C1407.82 172.376 1413.99 175.387 1421.81 175.387V174.387ZM1404.18 165.769C1399.9 159.73 1397.74 152.033 1397.74 142.64H1396.74C1396.74 152.186 1398.94 160.1 1403.36 166.347L1404.18 165.769ZM1397.74 142.64C1397.74 134.503 1399.02 127.274 1401.55 120.944L1400.62 120.573C1398.03 127.04 1396.74 134.399 1396.74 142.64H1397.74ZM1401.54 120.96C1404.35 114.583 1407.14 109.905 1409.9 106.893L1409.16 106.217C1406.29 109.347 1403.45 114.138 1400.63 120.557L1401.54 120.96ZM1409.75 106.108C1407.6 105.03 1404.3 104.519 1399.93 104.519V105.519C1404.26 105.519 1407.37 106.032 1409.31 107.002L1409.75 106.108ZM1399.93 104.519C1390.88 104.519 1383.94 107.109 1379.21 112.363L1379.96 113.032C1384.44 108.048 1391.07 105.519 1399.93 105.519V104.519ZM1379.2 112.373C1374.75 117.61 1372.43 125.16 1372.18 134.949L1373.18 134.976C1373.43 125.315 1375.72 118.021 1379.97 113.021L1379.2 112.373ZM1372.18 134.963C1372.18 140.655 1373.21 146.468 1375.27 152.402L1376.22 152.073C1374.19 146.234 1373.18 140.531 1373.18 134.963H1372.18ZM1375.28 152.427C1377.6 158.085 1380.55 163.867 1384.15 169.773L1385 169.253C1381.43 163.386 1378.5 157.651 1376.21 152.048L1375.28 152.427ZM1384.15 169.781C1387.73 175.406 1391.31 181.286 1394.89 187.423L1395.76 186.919C1392.17 180.772 1388.58 174.88 1385 169.244L1384.15 169.781ZM1394.89 187.425C1403.33 201.746 1409.2 213.488 1412.51 222.659L1413.45 222.319C1410.11 213.064 1404.21 201.26 1395.76 186.918L1394.89 187.425ZM1412.52 222.675C1416.08 231.579 1417.86 240.346 1417.86 248.977H1418.86C1418.86 240.206 1417.05 231.313 1413.45 222.303L1412.52 222.675ZM1417.86 248.977C1417.86 259.37 1414.95 268.87 1409.11 277.489L1409.94 278.049C1415.89 269.265 1418.86 259.57 1418.86 248.977H1417.86ZM1409.11 277.497C1403.54 286.104 1395.05 293.086 1383.6 298.43L1384.02 299.336C1395.6 293.931 1404.26 286.837 1409.95 278.041L1409.11 277.497ZM1383.6 298.428C1372.42 303.508 1358.42 306.06 1341.58 306.06V307.06C1358.52 307.06 1372.67 304.495 1384.02 299.338L1383.6 298.428ZM1341.58 306.06C1329.6 306.06 1318.12 304.53 1307.17 301.472L1306.9 302.435C1317.95 305.519 1329.51 307.06 1341.58 307.06V306.06ZM1307.16 301.47C1296.49 298.675 1287.74 293.727 1280.9 286.635L1280.18 287.329C1287.16 294.569 1296.08 299.602 1306.9 302.437L1307.16 301.47ZM1280.91 286.642C1274.36 279.592 1271.06 269.874 1271.06 257.423H1270.06C1270.06 270.052 1273.41 280.04 1280.18 287.322L1280.91 286.642ZM1271.06 257.423C1271.06 248.043 1273.47 240.089 1278.26 233.533L1277.45 232.943C1272.52 239.695 1270.06 247.864 1270.06 257.423H1271.06ZM1278.27 233.523C1282.78 227 1288.9 223.757 1296.67 223.757V222.757C1288.56 222.757 1282.14 226.168 1277.44 232.953L1278.27 233.523ZM1296.67 223.757C1303.92 223.757 1309.79 226.749 1314.31 232.77L1315.11 232.17C1310.41 225.907 1304.25 222.757 1296.67 222.757V223.757ZM1314.31 232.77C1318.83 238.801 1321.12 246.874 1321.12 257.039H1322.12C1322.12 246.73 1319.8 238.424 1315.11 232.17L1314.31 232.77ZM1321.12 257.039C1321.12 265.17 1319.72 272.655 1316.93 279.5L1317.86 279.877C1320.7 272.901 1322.12 265.287 1322.12 257.039H1321.12ZM1316.93 279.515C1314.37 286.42 1312.2 291.779 1310.42 295.6L1311.32 296.023C1313.12 292.166 1315.3 286.777 1317.86 279.862L1316.93 279.515Z" fill="#6C6456" mask="url(#path-1-outside-1_1_56)"/>
</svg>
