<svg width="390" height="311" viewBox="0 0 390 311" fill="none" xmlns="http://www.w3.org/2000/svg">
<mask id="path-1-outside-1_1_198" maskUnits="userSpaceOnUse" x="-42.2882" y="3.01904" width="479" height="308" fill="black">
<rect fill="white" x="-42.2882" y="3.01904" width="479" height="308"/>
<path d="M-20.864 154.282C-19.8212 154.803 -18.7784 155.194 -17.7356 155.455C-16.5625 155.585 -15.3241 155.65 -14.0206 155.65C-9.97976 155.65 -6.65582 154.347 -4.04881 151.74C-1.31145 149.002 0.0572348 145.353 0.0572348 140.79C0.0572348 136.358 -0.98557 131.731 -3.07118 126.908C-5.15679 122.085 -7.89415 117.001 -11.2833 111.657C-14.4117 106.573 -17.149 101.816 -19.4954 97.3837C-21.8417 92.8214 -23.0148 87.8029 -23.0148 82.3282C-23.0148 76.7231 -21.581 71.7046 -18.7132 67.2727C-15.8455 62.8407 -11.544 59.3213 -5.80854 56.7143C-0.073116 54.1073 7.16134 52.8037 15.8948 52.8037C21.3696 52.8037 26.6488 53.4555 31.7324 54.759C36.9464 56.0625 41.1828 58.3437 44.4416 61.6024C47.8307 64.7308 49.5253 69.2931 49.5253 75.2892C49.5253 77.8962 49.0039 80.5684 47.9611 83.3058C46.9183 86.0432 45.3541 88.3243 43.2685 90.1492C41.3132 91.8438 38.7714 92.691 35.6429 92.691C31.7324 92.691 28.6692 91.192 26.4532 88.1939C24.2373 85.0655 23.1293 81.0898 23.1293 76.2669C23.1293 72.0956 23.781 68.3806 25.0845 65.1219C26.5184 61.8631 27.9523 59.4516 29.3861 57.8874C28.3433 57.366 26.7139 57.1053 24.498 57.1053C19.9357 57.1053 16.4814 58.4088 14.1351 61.0158C11.9191 63.6229 10.746 67.403 10.6156 72.3563C10.6156 75.2241 11.137 78.1569 12.1798 81.155C13.353 84.0227 14.852 86.9556 16.6769 89.9537C18.5018 92.8214 20.3268 95.8194 22.1517 98.9479C26.4532 106.247 29.4513 112.244 31.1458 116.936C32.9708 121.499 33.8832 125.996 33.8832 130.428C33.8832 135.772 32.3842 140.66 29.3861 145.092C26.5184 149.524 22.1517 153.109 16.2859 155.846C10.5505 158.453 3.38117 159.756 -5.22197 159.756C-11.3484 159.756 -17.2142 158.974 -22.8193 157.41C-28.294 155.976 -32.7911 153.434 -36.3106 149.785C-39.6997 146.135 -41.3943 141.116 -41.3943 134.729C-41.3943 129.906 -40.1559 125.8 -37.6793 122.411C-35.3329 119.022 -32.1394 117.327 -28.0985 117.327C-24.3183 117.327 -21.2551 118.891 -18.9088 122.02C-16.5625 125.148 -15.3893 129.32 -15.3893 134.534C-15.3893 138.705 -16.1062 142.55 -17.5401 146.07C-18.8436 149.589 -19.9516 152.326 -20.864 154.282ZM85.5586 115.959C89.7298 114.003 93.8358 111.657 97.8767 108.92C101.918 106.182 105.633 103.184 109.022 99.9255C114.236 94.8418 118.472 89.0412 121.731 82.5237C125.12 76.0062 126.815 68.9672 126.815 61.4069C126.815 59.582 126.554 58.3437 126.032 57.6919C125.511 56.9098 124.729 56.5187 123.686 56.5187C121.079 56.5187 118.211 58.0178 115.083 61.0158C112.085 63.8836 109.087 67.7941 106.089 72.7474C103.091 77.5704 100.353 83.0451 97.8767 89.1716C95.5304 95.298 93.5751 101.62 92.0109 108.138C90.5771 114.525 89.8601 120.716 89.8601 126.713C89.8601 134.273 91.3592 139.357 94.3572 141.964C97.3553 144.44 101.266 145.679 106.089 145.679C108.696 145.679 112.606 144.701 117.82 142.746C123.034 140.79 128.248 137.206 133.462 131.992L136.591 133.556C133.723 137.858 129.943 142.029 125.25 146.07C120.558 150.11 115.018 153.434 108.631 156.041C102.243 158.518 95.0741 159.756 87.1228 159.756C80.9963 159.756 75.326 158.714 70.112 156.628C65.0283 154.542 60.9223 151.479 57.7939 147.438C54.7958 143.267 53.2968 138.183 53.2968 132.187C53.2968 124.497 54.4699 116.871 56.8162 109.311C59.2929 101.75 62.7472 94.5811 67.1791 87.8029C71.611 81.0247 76.8902 75.0285 83.0167 69.8145C89.2735 64.4701 96.1821 60.2989 103.742 57.3008C111.303 54.3028 119.385 52.8037 127.988 52.8037C134.896 52.8037 140.632 54.2376 145.194 57.1053C149.887 59.8427 152.233 64.1443 152.233 70.01C152.233 74.9634 150.929 79.656 148.322 84.0879C145.715 88.3895 142.131 92.3652 137.568 96.015C133.006 99.5344 127.857 102.728 122.122 105.596C116.386 108.463 110.325 110.94 103.938 113.026C97.6812 115.111 91.4895 116.741 85.363 117.914L85.5586 115.959ZM189.988 157.019H155.38L179.234 72.1608C180.016 69.1628 180.277 67.0771 180.016 65.904C179.755 64.6005 178.908 63.9487 177.474 63.9487C175.519 63.9487 173.694 64.8612 171.999 66.6861C170.305 68.3806 168.545 71.5742 166.72 76.2669L162.223 88.1939H158.508L163.983 72.9429C165.808 67.9896 168.089 64.0791 170.826 61.2114C173.694 58.2133 177.018 56.0625 180.798 54.759C184.578 53.4555 188.684 52.8037 193.116 52.8037C197.548 52.8037 201.067 53.651 203.675 55.3456C206.282 56.9098 208.172 59.0606 209.345 61.7979C210.518 64.5353 211.104 67.5334 211.104 70.7921C211.235 73.9205 210.909 77.049 210.127 80.1774L189.988 157.019ZM239.847 56.7143C237.37 56.7143 234.698 57.1053 231.83 57.8874C229.093 58.6695 226.16 60.69 223.032 63.9487C220.034 67.0771 216.775 72.1608 213.255 79.1997C209.866 86.2387 206.216 96.015 202.306 108.529C198.395 121.042 194.289 137.01 189.988 156.432L194.094 129.059C198.004 113.808 201.589 101.294 204.848 91.5179C208.106 81.6112 211.365 73.8554 214.624 68.2503C217.883 62.5149 221.467 58.5392 225.378 56.3232C229.288 53.9769 233.851 52.8037 239.065 52.8037C245.191 52.8037 249.884 54.6287 253.143 58.2785C256.401 61.9283 258.031 66.4254 258.031 71.7698C258.031 76.0713 257.053 80.1122 255.098 83.8924C253.273 87.5422 250.666 90.5402 247.277 92.8866C244.018 95.1025 240.238 96.2105 235.936 96.2105C231.113 96.2105 227.463 94.9722 224.987 92.4955C222.51 90.0188 221.272 86.369 221.272 81.5461C221.272 77.6355 222.249 73.9857 224.205 70.5966C226.16 67.2075 228.767 64.3398 232.026 61.9935C235.285 59.5168 238.804 57.9526 242.584 57.3008C242.193 57.1705 241.737 57.0401 241.215 56.9098C240.824 56.7794 240.368 56.7143 239.847 56.7143ZM346.804 99.1434C340.417 96.1453 335.072 92.0393 330.771 86.8253C326.469 81.4809 324.319 75.4848 324.319 68.8369C324.319 63.8836 325.622 59.973 328.229 57.1053C330.966 54.2376 334.747 52.8037 339.57 52.8037C344.784 52.8037 348.564 54.4983 350.91 57.8874C353.256 61.2765 354.43 65.9692 354.43 71.9653C354.43 79.1346 353.582 86.7601 351.888 94.8418C350.323 102.924 347.847 110.81 344.458 118.5C341.199 126.191 336.963 133.165 331.749 139.422C326.665 145.548 320.604 150.502 313.565 154.282C306.656 157.931 298.705 159.756 289.71 159.756C281.629 159.756 275.307 158.583 270.744 156.237C266.313 153.76 263.184 150.697 261.359 147.047C259.534 143.267 258.622 139.422 258.622 135.511C258.622 127.038 261.099 118.696 266.052 110.484C271.005 102.141 277.783 93.8642 286.387 85.6521C295.12 77.44 304.896 69.2931 315.715 61.2114C311.675 61.3417 308.22 62.3845 305.353 64.3398C302.615 66.1647 300.139 68.2503 297.923 70.5966C295.707 72.9429 293.491 75.0285 291.275 76.8534C289.189 78.548 286.778 79.3953 284.04 79.3953C281.955 79.3953 280.13 78.939 278.565 78.0266C277.132 76.9838 275.502 76.4624 273.677 76.4624C271.983 76.4624 270.679 77.049 269.767 78.2221C268.854 79.3953 268.007 81.2854 267.225 83.8924L265.856 87.9984H262.141L266.443 73.725C268.789 65.3826 271.592 59.7775 274.851 56.9098C278.109 54.0421 281.433 52.6082 284.822 52.6082C287.299 52.6082 289.45 53.0645 291.275 53.9769C293.1 54.8894 295.12 55.867 297.336 56.9098C299.552 57.8223 302.55 58.2785 306.33 58.2785C307.634 58.2785 309.393 58.1481 311.609 57.8874C313.825 57.4964 316.302 56.6491 319.039 55.3456L320.995 51.6306L325.101 53.5859C320.799 60.6248 316.823 67.9896 313.174 75.6803C309.654 83.2406 306.591 90.8009 303.984 98.3613C301.377 105.791 299.356 112.765 297.923 119.283C296.489 125.8 295.772 131.405 295.772 136.098C295.772 140.53 296.424 143.854 297.727 146.07C299.031 148.286 301.377 149.394 304.766 149.394C308.807 149.394 312.652 148.481 316.302 146.656C319.952 144.831 323.341 142.289 326.469 139.031C329.598 135.772 332.465 132.057 335.072 127.886C337.679 123.584 339.961 119.022 341.916 114.199C343.871 109.246 345.501 104.227 346.804 99.1434ZM394.621 24.8435C394.621 17.8046 396.902 12.5906 401.464 9.20148C406.026 5.81236 411.697 4.1178 418.475 4.1178C424.21 4.1178 428.512 5.22579 431.38 7.44175C434.378 9.65771 435.877 12.9817 435.877 17.4136C435.877 23.54 433.53 28.4934 428.838 32.2735C424.276 35.9234 418.605 37.7483 411.827 37.7483C406.222 37.7483 401.92 36.6403 398.922 34.4243C396.055 32.2084 394.621 29.0148 394.621 24.8435ZM386.409 72.1608C388.234 66.6861 387.647 63.9487 384.649 63.9487C382.694 63.9487 380.869 64.8612 379.174 66.6861C377.48 68.3806 375.72 71.5742 373.895 76.2669L369.398 88.1939H365.683L371.158 72.9429C372.983 67.9896 375.264 64.0791 378.001 61.2114C380.869 58.2133 384.193 56.0625 387.973 54.759C391.753 53.4555 395.859 52.8037 400.291 52.8037C405.244 52.8037 409.22 53.651 412.218 55.3456C415.216 57.0401 417.367 59.2561 418.67 61.9935C419.974 64.6005 420.626 67.5334 420.626 70.7921C420.626 73.9205 420.104 77.049 419.062 80.1774L398.727 140.399C397.684 143.658 397.489 145.874 398.14 147.047C398.792 148.09 399.77 148.611 401.073 148.611C402.246 148.611 403.745 147.96 405.57 146.656C407.395 145.222 409.35 141.768 411.436 136.293L415.542 125.344H419.257L414.369 139.617C412.414 145.092 409.937 149.263 406.939 152.131C403.941 154.999 400.617 156.954 396.967 157.997C393.448 159.17 389.928 159.756 386.409 159.756C380.673 159.756 375.981 158.583 372.331 156.237C368.811 153.76 366.661 150.045 365.879 145.092C365.096 140.008 365.944 133.686 368.42 126.126L386.409 72.1608ZM37.4027 206.714C32.5797 206.714 27.8871 208.8 23.3248 212.971C18.7625 217.012 14.7217 222.487 11.2022 229.395C7.68274 236.174 4.88021 243.799 2.7946 252.272C0.708987 260.614 -0.333818 269.087 -0.333818 277.69C-0.333818 284.729 1.10004 289.813 3.96775 292.941C6.83546 296.07 10.6156 297.634 15.3083 297.634C19.0884 297.634 22.9338 296.526 26.8443 294.31C30.7548 292.094 34.7305 287.988 38.7714 281.992L42.6819 283.556C39.9445 287.858 36.4902 292.029 32.319 296.07C28.2781 300.11 23.39 303.434 17.6546 306.041C12.0495 308.518 5.46678 309.756 -2.09355 309.756C-12.0002 309.756 -20.2775 307.28 -26.9253 302.326C-33.5732 297.373 -36.8972 289.552 -36.8972 278.863C-36.8972 272.085 -35.8544 265.177 -33.7687 258.138C-31.5528 250.968 -28.4244 244.125 -24.3835 237.607C-20.2123 230.959 -15.1938 225.029 -9.32801 219.815C-3.46223 214.6 3.18565 210.494 10.6156 207.496C18.0456 204.368 26.1274 202.804 34.8608 202.804C42.9426 202.804 49.1994 204.824 53.6313 208.865C58.0632 212.906 60.2792 217.664 60.2792 223.138C60.2792 227.31 59.2364 231.351 57.1508 235.261C55.0652 239.172 52.2626 242.43 48.7432 245.037C45.3541 247.514 41.5739 248.752 37.4027 248.752C34.0136 248.752 30.9503 247.579 28.213 245.233C25.4756 242.887 24.1069 239.497 24.1069 235.066C24.1069 228.678 26.1274 223.138 30.1682 218.446C34.2091 213.753 38.8365 210.625 44.0506 209.061C43.1381 208.278 42.1605 207.692 41.1177 207.301C40.0749 206.91 38.8365 206.714 37.4027 206.714ZM93.0053 265.959C97.1766 264.003 101.283 261.657 105.323 258.92C109.364 256.182 113.079 253.184 116.468 249.925C121.682 244.842 125.919 239.041 129.178 232.524C132.567 226.006 134.261 218.967 134.261 211.407C134.261 209.582 134.001 208.344 133.479 207.692C132.958 206.91 132.176 206.519 131.133 206.519C128.526 206.519 125.658 208.018 122.53 211.016C119.532 213.884 116.534 217.794 113.536 222.747C110.537 227.57 107.8 233.045 105.323 239.172C102.977 245.298 101.022 251.62 99.4577 258.138C98.0238 264.525 97.3069 270.716 97.3069 276.713C97.3069 284.273 98.8059 289.357 101.804 291.964C104.802 294.44 108.713 295.679 113.536 295.679C116.143 295.679 120.053 294.701 125.267 292.746C130.481 290.79 135.695 287.206 140.909 281.992L144.038 283.556C141.17 287.858 137.39 292.029 132.697 296.07C128.004 300.11 122.465 303.434 116.077 306.041C109.69 308.518 102.521 309.756 94.5695 309.756C88.4431 309.756 82.7728 308.714 77.5588 306.628C72.4751 304.542 68.3691 301.479 65.2407 297.438C62.2426 293.267 60.7436 288.183 60.7436 282.187C60.7436 274.497 61.9167 266.871 64.263 259.311C66.7397 251.75 70.194 244.581 74.6259 237.803C79.0578 231.025 84.337 225.029 90.4635 219.815C96.7203 214.47 103.629 210.299 111.189 207.301C118.75 204.303 126.831 202.804 135.434 202.804C142.343 202.804 148.078 204.238 152.641 207.105C157.333 209.843 159.68 214.144 159.68 220.01C159.68 224.963 158.376 229.656 155.769 234.088C153.162 238.389 149.577 242.365 145.015 246.015C140.453 249.534 135.304 252.728 129.569 255.596C123.833 258.463 117.772 260.94 111.385 263.026C105.128 265.111 98.9363 266.741 92.8098 267.914L93.0053 265.959ZM178.664 304.282C179.707 304.803 180.75 305.194 181.792 305.455C182.966 305.585 184.204 305.65 185.507 305.65C189.548 305.65 192.872 304.347 195.479 301.74C198.217 299.002 199.585 295.353 199.585 290.79C199.585 286.358 198.542 281.731 196.457 276.908C194.371 272.085 191.634 267.001 188.245 261.657C185.116 256.573 182.379 251.816 180.033 247.384C177.686 242.821 176.513 237.803 176.513 232.328C176.513 226.723 177.947 221.705 180.815 217.273C183.682 212.841 187.984 209.321 193.719 206.714C199.455 204.107 206.689 202.804 215.423 202.804C220.898 202.804 226.177 203.456 231.26 204.759C236.474 206.063 240.711 208.344 243.97 211.602C247.359 214.731 249.053 219.293 249.053 225.289C249.053 227.896 248.532 230.568 247.489 233.306C246.446 236.043 244.882 238.324 242.796 240.149C240.841 241.844 238.299 242.691 235.171 242.691C231.26 242.691 228.197 241.192 225.981 238.194C223.765 235.066 222.657 231.09 222.657 226.267C222.657 222.096 223.309 218.381 224.613 215.122C226.046 211.863 227.48 209.452 228.914 207.887C227.871 207.366 226.242 207.105 224.026 207.105C219.464 207.105 216.009 208.409 213.663 211.016C211.447 213.623 210.274 217.403 210.144 222.356C210.144 225.224 210.665 228.157 211.708 231.155C212.881 234.023 214.38 236.956 216.205 239.954C218.03 242.821 219.855 245.819 221.68 248.948C225.981 256.247 228.979 262.244 230.674 266.936C232.499 271.499 233.411 275.996 233.411 280.428C233.411 285.772 231.912 290.66 228.914 295.092C226.046 299.524 221.68 303.109 215.814 305.846C210.078 308.453 202.909 309.756 194.306 309.756C188.18 309.756 182.314 308.974 176.709 307.41C171.234 305.976 166.737 303.434 163.217 299.785C159.828 296.135 158.134 291.116 158.134 284.729C158.134 279.906 159.372 275.8 161.849 272.411C164.195 269.022 167.389 267.327 171.43 267.327C175.21 267.327 178.273 268.891 180.619 272.02C182.966 275.148 184.139 279.32 184.139 284.534C184.139 288.705 183.422 292.55 181.988 296.07C180.684 299.589 179.576 302.326 178.664 304.282Z"/>
</mask>
<path d="M-20.864 154.282L-21.3171 154.07L-21.5229 154.511L-21.0876 154.729L-20.864 154.282ZM-17.7356 155.455L-17.8569 155.94L-17.8243 155.948L-17.7908 155.952L-17.7356 155.455ZM-4.04881 151.74L-4.40236 151.386L-4.04881 151.74ZM-3.07118 126.908L-2.61225 126.71L-3.07118 126.908ZM-11.2833 111.657L-11.7091 111.919L-11.7055 111.925L-11.2833 111.657ZM-19.4954 97.3837L-19.94 97.6123L-19.9372 97.6176L-19.4954 97.3837ZM-5.80854 56.7143L-5.60164 57.1695H-5.60164L-5.80854 56.7143ZM31.7324 54.759L31.6082 55.2434L31.6112 55.2441L31.7324 54.759ZM44.4416 61.6024L44.0881 61.956L44.0951 61.963L44.1025 61.9698L44.4416 61.6024ZM47.9611 83.3058L47.4938 83.1278L47.9611 83.3058ZM43.2685 90.1492L43.5959 90.527L43.5977 90.5255L43.2685 90.1492ZM26.4532 88.1939L26.0451 88.483L26.0511 88.4911L26.4532 88.1939ZM25.0845 65.1219L24.6269 64.9205L24.6235 64.9283L24.6203 64.9362L25.0845 65.1219ZM29.3861 57.8874L29.7547 58.2253L30.2026 57.7367L29.6097 57.4402L29.3861 57.8874ZM14.1351 61.0158L13.7635 60.6814L13.7587 60.6866L13.7541 60.692L14.1351 61.0158ZM10.6156 72.3563L10.1156 72.3432V72.3563H10.6156ZM12.1798 81.155L11.7076 81.3193L11.712 81.3319L11.7171 81.3443L12.1798 81.155ZM16.6769 89.9537L16.2498 90.2137L16.2551 90.2221L16.6769 89.9537ZM22.1517 98.9479L21.7198 99.1998L21.7209 99.2017L22.1517 98.9479ZM31.1459 116.936L30.6756 117.106L30.6785 117.114L30.6816 117.122L31.1459 116.936ZM29.3861 145.092L28.9719 144.812L28.9663 144.82L29.3861 145.092ZM16.2859 155.846L16.4928 156.301L16.4973 156.299L16.2859 155.846ZM-22.8193 157.41L-22.6849 156.928L-22.6926 156.926L-22.8193 157.41ZM-36.3106 149.785L-36.677 150.125L-36.6705 150.132L-36.3106 149.785ZM-37.6793 122.411L-37.2754 122.706L-37.2682 122.696L-37.6793 122.411ZM-17.5401 146.07L-18.0031 145.881L-18.0062 145.888L-18.009 145.896L-17.5401 146.07ZM-21.0876 154.729C-20.0149 155.265 -18.9379 155.67 -17.8569 155.94L-17.6144 154.97C-18.6189 154.719 -19.6275 154.341 -20.6404 153.834L-21.0876 154.729ZM-17.7908 155.952C-16.5976 156.084 -15.3407 156.15 -14.0206 156.15V155.15C-15.3076 155.15 -16.5274 155.086 -17.6804 154.958L-17.7908 155.952ZM-14.0206 156.15C-9.86116 156.15 -6.40549 154.804 -3.69526 152.093L-4.40236 151.386C-6.90615 153.89 -10.0984 155.15 -14.0206 155.15V156.15ZM-3.69526 152.093C-0.847527 149.246 0.557236 145.46 0.557236 140.79H-0.442764C-0.442764 145.246 -1.77537 148.759 -4.40236 151.386L-3.69526 152.093ZM0.557236 140.79C0.557236 136.279 -0.504498 131.584 -2.61225 126.71L-3.53011 127.107C-1.46664 131.878 -0.442764 136.438 -0.442764 140.79H0.557236ZM-2.61225 126.71C-4.7101 121.858 -7.46061 116.751 -10.861 111.389L-11.7055 111.925C-8.32769 117.251 -5.60348 122.312 -3.53011 127.107L-2.61225 126.71ZM-10.8574 111.395C-13.9812 106.319 -16.713 101.571 -19.0535 97.1497L-19.9372 97.6176C-17.585 102.061 -14.8421 106.828 -11.7091 111.919L-10.8574 111.395ZM-19.0507 97.155C-21.3582 92.6682 -22.5148 87.7288 -22.5148 82.3282H-23.5148C-23.5148 87.8769 -22.3251 92.9746 -19.94 97.6123L-19.0507 97.155ZM-22.5148 82.3282C-22.5148 76.8132 -21.1055 71.8902 -18.2935 67.5443L-19.133 67.001C-22.0564 71.519 -23.5148 76.6329 -23.5148 82.3282H-22.5148ZM-18.2935 67.5443C-15.487 63.2071 -11.2671 59.7446 -5.60164 57.1695L-6.01544 56.2591C-11.8209 58.8979 -16.2041 62.4744 -19.133 67.001L-18.2935 67.5443ZM-5.60164 57.1695C0.0488091 54.6011 7.20688 53.3037 15.8948 53.3037V52.3037C7.1158 52.3037 -0.195042 53.6134 -6.01544 56.2591L-5.60164 57.1695ZM15.8948 53.3037C21.3295 53.3037 26.5669 53.9507 31.6082 55.2433L31.8566 54.2747C26.7306 52.9603 21.4096 52.3037 15.8948 52.3037V53.3037ZM31.6112 55.2441C36.7521 56.5293 40.9034 58.7713 44.0881 61.956L44.7952 61.2489C41.4623 57.916 37.1408 55.5957 31.8537 54.2739L31.6112 55.2441ZM44.1025 61.9698C47.3605 64.9773 49.0253 69.3885 49.0253 75.2892H50.0253C50.0253 69.1978 48.3009 64.4844 44.7807 61.235L44.1025 61.9698ZM49.0253 75.2892C49.0253 77.8284 48.5176 80.4403 47.4938 83.1278L48.4283 83.4838C49.4901 80.6966 50.0253 77.9641 50.0253 75.2892H49.0253ZM47.4938 83.1278C46.4784 85.7933 44.9598 88.0049 42.9392 89.7729L43.5977 90.5255C45.7483 88.6437 47.3581 86.293 48.4283 83.4838L47.4938 83.1278ZM42.941 89.7714C41.0947 91.3715 38.6774 92.191 35.6429 92.191V93.191C38.8654 93.191 41.5317 92.316 43.5959 90.527L42.941 89.7714ZM35.6429 92.191C31.8819 92.191 28.9717 90.7601 26.8553 87.8967L26.0511 88.4911C28.3667 91.6239 31.5829 93.191 35.6429 93.191V92.191ZM26.8612 87.9049C24.719 84.8806 23.6293 81.0132 23.6293 76.2669H22.6293C22.6293 81.1665 23.7555 85.2505 26.0452 88.4829L26.8612 87.9049ZM23.6293 76.2669C23.6293 72.1475 24.2729 68.4973 25.5488 65.3076L24.6203 64.9362C23.2892 68.264 22.6293 72.0438 22.6293 76.2669H23.6293ZM25.5422 65.3232C26.9668 62.0854 28.3745 59.731 29.7547 58.2253L29.0175 57.5496C27.5301 59.1723 26.07 61.6408 24.6269 64.9205L25.5422 65.3232ZM29.6097 57.4402C28.4596 56.8652 26.7337 56.6053 24.498 56.6053V57.6053C26.6941 57.6053 28.227 57.8669 29.1625 58.3346L29.6097 57.4402ZM24.498 56.6053C19.8391 56.6053 16.2311 57.9395 13.7635 60.6814L14.5067 61.3503C16.7317 58.8781 20.0323 57.6053 24.498 57.6053V56.6053ZM13.7541 60.692C11.4375 63.4175 10.2478 67.3255 10.1158 72.3432L11.1155 72.3695C11.2441 67.4806 12.4008 63.8282 14.5161 61.3397L13.7541 60.692ZM10.1156 72.3563C10.1156 75.2856 10.6484 78.274 11.7076 81.3193L12.6521 80.9907C11.6257 78.0399 11.1156 75.1625 11.1156 72.3563H10.1156ZM11.7171 81.3443C12.9014 84.2395 14.413 87.1959 16.2498 90.2136L17.104 89.6937C15.2911 86.7153 13.8046 83.806 12.6426 80.9657L11.7171 81.3443ZM16.2551 90.2221C18.0763 93.084 19.8979 96.0766 21.7198 99.1998L22.5835 98.6959C20.7556 95.5623 18.9273 92.5587 17.0988 89.6852L16.2551 90.2221ZM21.7209 99.2017C26.016 106.49 28.9963 112.456 30.6756 117.106L31.6161 116.766C29.9063 112.031 26.8905 106.005 22.5824 98.694L21.7209 99.2017ZM30.6816 117.122C32.4855 121.632 33.3832 126.066 33.3832 130.428H34.3832C34.3832 125.925 33.4561 121.365 31.6101 116.751L30.6816 117.122ZM33.3832 130.428C33.3832 135.672 31.9142 140.462 28.972 144.812L29.8003 145.372C32.8542 140.858 34.3832 135.872 34.3832 130.428H33.3832ZM28.9663 144.82C26.1601 149.157 21.8744 152.686 16.0744 155.393L16.4973 156.299C22.4289 153.531 26.8767 149.891 29.8059 145.364L28.9663 144.82ZM16.079 155.391C10.4277 157.959 3.33438 159.256 -5.22197 159.256V160.256C3.42797 160.256 10.6732 158.946 16.4928 156.301L16.079 155.391ZM-5.22197 159.256C-11.3054 159.256 -17.1258 158.48 -22.6849 156.928L-22.9537 157.892C-17.3026 159.469 -11.3915 160.256 -5.22197 160.256V159.256ZM-22.6926 156.926C-28.0891 155.513 -32.5021 153.014 -35.9507 149.438L-36.6705 150.132C-33.0801 153.855 -28.4989 156.439 -22.946 157.894L-22.6926 156.926ZM-35.9442 149.444C-39.2252 145.911 -40.8943 141.027 -40.8943 134.729H-41.8943C-41.8943 141.206 -40.1742 146.359 -36.677 150.125L-35.9442 149.444ZM-40.8943 134.729C-40.8943 129.996 -39.6806 125.997 -37.2756 122.706L-38.083 122.116C-40.6312 125.603 -41.8943 129.816 -41.8943 134.729H-40.8943ZM-37.2682 122.696C-35.013 119.438 -31.9714 117.827 -28.0985 117.827V116.827C-32.3073 116.827 -35.6529 118.606 -38.0904 122.126L-37.2682 122.696ZM-28.0985 117.827C-24.482 117.827 -21.5645 119.312 -19.3088 122.32L-18.5088 121.72C-20.9457 118.471 -24.1547 116.827 -28.0985 116.827V117.827ZM-19.3088 122.32C-17.046 125.337 -15.8893 129.392 -15.8893 134.534H-14.8893C-14.8893 129.247 -16.0789 124.96 -18.5088 121.72L-19.3088 122.32ZM-15.8893 134.534C-15.8893 138.646 -16.596 142.427 -18.0031 145.881L-17.077 146.258C-15.6165 142.673 -14.8893 138.763 -14.8893 134.534H-15.8893ZM-18.009 145.896C-19.3106 149.41 -20.4131 152.133 -21.3171 154.07L-20.4109 154.493C-19.49 152.52 -18.3766 149.768 -17.0712 146.243L-18.009 145.896ZM85.5586 115.959L85.3463 115.506L85.0893 115.626L85.061 115.909L85.5586 115.959ZM97.8767 108.92L98.1571 109.334L97.8767 108.92ZM109.022 99.9255L109.368 100.286L109.371 100.283L109.022 99.9255ZM121.731 82.5237L121.287 82.293L121.284 82.3001L121.731 82.5237ZM126.032 57.6919L125.616 57.9693L125.628 57.9873L125.642 58.0042L126.032 57.6919ZM115.083 61.0158L115.429 61.3772L115.429 61.3768L115.083 61.0158ZM106.089 72.7474L106.513 73.0114L106.517 73.0063L106.089 72.7474ZM97.8767 89.1716L97.4131 88.9841L97.4098 88.9927L97.8767 89.1716ZM92.0109 108.138L91.5247 108.021L91.5231 108.028L92.0109 108.138ZM94.3572 141.964L94.029 142.341L94.0388 142.349L94.3572 141.964ZM117.82 142.746L117.996 143.214L117.82 142.746ZM133.462 131.992L133.686 131.545L133.364 131.383L133.109 131.638L133.462 131.992ZM136.591 133.556L137.007 133.833L137.321 133.362L136.814 133.109L136.591 133.556ZM125.25 146.07L124.924 145.691L125.25 146.07ZM108.631 156.041L108.811 156.508L108.82 156.504L108.631 156.041ZM70.112 156.628L69.9222 157.091L69.9263 157.092L70.112 156.628ZM57.7939 147.438L57.3879 147.73L57.3931 147.737L57.3985 147.744L57.7939 147.438ZM56.8163 109.311L56.341 109.155L56.3387 109.163L56.8163 109.311ZM67.1791 87.8029L67.5976 88.0765L67.1791 87.8029ZM83.0167 69.8145L83.3408 70.1953L83.3415 70.1947L83.0167 69.8145ZM103.742 57.3008L103.558 56.8361L103.742 57.3008ZM145.194 57.1053L144.928 57.5286L144.935 57.533L144.942 57.5372L145.194 57.1053ZM148.322 84.0879L148.75 84.3471L148.753 84.3414L148.322 84.0879ZM137.568 96.015L137.874 96.4109L137.881 96.4054L137.568 96.015ZM122.122 105.596L122.345 106.043L122.122 105.596ZM103.938 113.026L103.783 112.55L103.78 112.551L103.938 113.026ZM85.363 117.914L84.8655 117.864L84.7988 118.531L85.4571 118.405L85.363 117.914ZM85.7708 116.411C89.9671 114.444 94.0958 112.085 98.1571 109.334L97.5963 108.506C93.5758 111.229 89.4925 113.562 85.3463 115.506L85.7708 116.411ZM98.1571 109.334C102.221 106.581 105.958 103.565 109.368 100.286L108.675 99.5651C105.307 102.803 101.615 105.784 97.5963 108.506L98.1571 109.334ZM109.371 100.283C114.625 95.1608 118.894 89.3148 122.178 82.7473L121.284 82.3001C118.05 88.7677 113.847 94.5228 108.673 99.5675L109.371 100.283ZM122.174 82.7544C125.602 76.1635 127.315 69.0451 127.315 61.4069H126.315C126.315 68.8894 124.638 75.8489 121.287 82.293L122.174 82.7544ZM127.315 61.4069C127.315 60.4736 127.248 59.6707 127.108 59.0065C126.969 58.3468 126.751 57.7899 126.423 57.3796L125.642 58.0042C125.835 58.2456 126.008 58.6338 126.13 59.2125C126.251 59.7865 126.315 60.5153 126.315 61.4069H127.315ZM126.448 57.4146C125.823 56.4763 124.875 56.0187 123.686 56.0187V57.0187C124.583 57.0187 125.199 57.3433 125.616 57.9693L126.448 57.4146ZM123.686 56.0187C120.888 56.0187 117.901 57.6231 114.737 60.6548L115.429 61.3768C118.522 58.4124 121.271 57.0187 123.686 57.0187V56.0187ZM114.737 60.6545C111.698 63.5619 108.674 67.5112 105.661 72.4885L106.517 73.0063C109.5 68.077 112.472 64.2052 115.429 61.3772L114.737 60.6545ZM105.664 72.4834C102.649 77.3343 99.8988 82.8353 97.4131 88.9842L98.3402 89.359C100.808 83.2549 103.533 77.8064 106.513 73.0114L105.664 72.4834ZM97.4098 88.9927C95.0555 95.1399 93.0939 101.483 91.5247 108.021L92.4971 108.254C94.0564 101.757 96.0052 95.4562 98.3436 89.3504L97.4098 88.9927ZM91.5231 108.028C90.0819 114.448 89.3601 120.676 89.3601 126.713H90.3601C90.3601 120.756 91.0723 114.602 92.4988 108.247L91.5231 108.028ZM89.3601 126.713C89.3601 134.299 90.8563 139.582 94.0291 142.341L94.6853 141.586C91.862 139.131 90.3601 134.247 90.3601 126.713H89.3601ZM94.0388 142.349C97.1464 144.916 101.178 146.179 106.089 146.179V145.179C101.353 145.179 97.5642 143.964 94.6757 141.578L94.0388 142.349ZM106.089 146.179C108.792 146.179 112.775 145.172 117.996 143.214L117.645 142.277C112.438 144.23 108.599 145.179 106.089 145.179V146.179ZM117.996 143.214C123.295 141.227 128.567 137.594 133.816 132.345L133.109 131.638C127.93 136.817 122.774 140.354 117.645 142.277L117.996 143.214ZM133.239 132.439L136.367 134.003L136.814 133.109L133.686 131.545L133.239 132.439ZM136.175 133.279C133.337 137.536 129.589 141.674 124.924 145.691L125.577 146.448C130.297 142.384 134.11 138.179 137.007 133.833L136.175 133.279ZM124.924 145.691C120.277 149.693 114.784 152.99 108.442 155.578L108.82 156.504C115.251 153.879 120.839 150.528 125.577 146.448L124.924 145.691ZM108.45 155.575C102.129 158.026 95.0221 159.256 87.1228 159.256V160.256C95.1262 160.256 102.358 159.01 108.811 156.508L108.45 155.575ZM87.1228 159.256C81.0541 159.256 75.4475 158.224 70.2977 156.164L69.9263 157.092C75.2046 159.204 80.9385 160.256 87.1228 160.256V159.256ZM70.3018 156.165C65.2929 154.11 61.26 151.099 58.1892 147.132L57.3985 147.744C60.5846 151.86 64.7638 154.974 69.9222 157.091L70.3018 156.165ZM58.1999 147.146C55.2727 143.074 53.7968 138.097 53.7968 132.187H52.7968C52.7968 138.27 54.3189 143.46 57.3879 147.73L58.1999 147.146ZM53.7968 132.187C53.7968 124.548 54.9619 116.973 57.2938 109.459L56.3387 109.163C53.978 116.769 52.7968 124.445 52.7968 132.187H53.7968ZM57.2914 109.466C59.7542 101.948 63.1892 94.8187 67.5976 88.0765L66.7606 87.5293C62.3052 94.3435 58.8316 101.552 56.3411 109.155L57.2914 109.466ZM67.5976 88.0765C72.0035 81.3381 77.251 75.3781 83.3408 70.1953L82.6927 69.4337C76.5295 74.679 71.2186 80.7113 66.7606 87.5293L67.5976 88.0765ZM83.3415 70.1947C89.557 64.8856 96.4182 60.7432 103.927 57.7656L103.558 56.8361C95.9461 59.8546 88.9901 64.0546 82.692 69.4343L83.3415 70.1947ZM103.927 57.7656C111.425 54.7922 119.444 53.3037 127.988 53.3037V52.3037C119.325 52.3037 111.18 53.8134 103.558 56.8361L103.927 57.7656ZM127.988 53.3037C134.828 53.3037 140.465 54.7234 144.928 57.5286L145.46 56.682C140.798 53.7519 134.964 52.3037 127.988 52.3037V53.3037ZM144.942 57.5372C149.467 60.1766 151.733 64.3048 151.733 70.01H152.733C152.733 63.9837 150.306 59.5088 145.446 56.6734L144.942 57.5372ZM151.733 70.01C151.733 74.8707 150.455 79.4762 147.891 83.8344L148.753 84.3414C151.404 79.8357 152.733 75.056 152.733 70.01H151.733ZM147.895 83.8287C145.323 88.0727 141.78 92.0056 137.256 95.6245L137.881 96.4054C142.482 92.7247 146.108 88.7062 148.75 84.347L147.895 83.8287ZM137.263 95.6191C132.729 99.1168 127.608 102.294 121.898 105.149L122.345 106.043C128.107 103.162 133.283 99.9521 137.874 96.4109L137.263 95.6191ZM121.898 105.149C116.186 108.005 110.148 110.472 103.783 112.55L104.093 113.501C110.503 111.408 116.587 108.922 122.345 106.043L121.898 105.149ZM103.78 112.551C97.5428 114.63 91.3726 116.254 85.269 117.423L85.4571 118.405C91.6064 117.227 97.8195 115.592 104.096 113.5L103.78 112.551ZM85.8605 117.964L86.0561 116.008L85.061 115.909L84.8655 117.864L85.8605 117.964ZM189.988 157.019V157.519H190.374L190.471 157.146L189.988 157.019ZM155.38 157.019L154.898 156.884L154.72 157.519H155.38V157.019ZM179.234 72.1608L179.715 72.2962L179.718 72.287L179.234 72.1608ZM180.016 65.904L179.525 66.0021L179.528 66.0125L180.016 65.904ZM171.999 66.6861L172.353 67.0396L172.359 67.0331L172.366 67.0263L171.999 66.6861ZM166.72 76.2669L166.254 76.0856L166.252 76.0905L166.72 76.2669ZM162.223 88.1939V88.6939H162.569L162.691 88.3703L162.223 88.1939ZM158.508 88.1939L158.037 88.025L157.797 88.6939H158.508V88.1939ZM163.983 72.9429L163.514 72.7701L163.512 72.774L163.983 72.9429ZM170.826 61.2114L170.465 60.8658L170.464 60.8661L170.826 61.2114ZM180.798 54.759L180.961 55.2317L180.798 54.759ZM203.675 55.3456L203.402 55.7648L203.41 55.7697L203.417 55.7743L203.675 55.3456ZM211.104 70.7921H210.604V70.8025L210.605 70.813L211.104 70.7921ZM210.127 80.1774L210.611 80.3041L210.612 80.2986L210.127 80.1774ZM231.83 57.8874L231.699 57.405L231.693 57.4067L231.83 57.8874ZM223.032 63.9487L222.671 63.6025L222.671 63.6028L223.032 63.9487ZM213.255 79.1997L212.808 78.9761L212.805 78.9828L213.255 79.1997ZM202.306 108.529L202.783 108.678L202.306 108.529ZM189.988 156.432L189.493 156.358L190.476 156.541L189.988 156.432ZM194.094 129.059L193.609 128.935L193.603 128.959L193.599 128.985L194.094 129.059ZM204.848 91.5179L205.322 91.676L205.323 91.6741L204.848 91.5179ZM214.624 68.2503L215.056 68.5016L215.059 68.4973L214.624 68.2503ZM225.378 56.3232L225.624 56.7584L225.635 56.752L225.378 56.3232ZM253.143 58.2785L252.77 58.6115L253.143 58.2785ZM255.098 83.8924L254.654 83.6626L254.651 83.6688L255.098 83.8924ZM247.277 92.8866L247.558 93.3L247.561 93.2977L247.277 92.8866ZM224.987 92.4955L225.34 92.142L224.987 92.4955ZM224.205 70.5966L224.638 70.8465L224.205 70.5966ZM232.026 61.9935L232.318 62.3994L232.328 62.3915L232.026 61.9935ZM242.584 57.3008L242.669 57.7936L242.742 56.8265L242.584 57.3008ZM241.215 56.9098L241.057 57.3841L241.076 57.3902L241.094 57.3949L241.215 56.9098ZM189.988 156.519H155.38V157.519H189.988V156.519ZM155.861 157.154L179.715 72.2961L178.752 72.0255L154.898 156.884L155.861 157.154ZM179.718 72.287C180.112 70.7758 180.378 69.482 180.512 68.4101C180.645 67.3464 180.653 66.4649 180.504 65.7955L179.528 66.0125C179.64 66.5162 179.647 67.2642 179.52 68.286C179.393 69.2997 179.138 70.5478 178.75 72.0346L179.718 72.287ZM180.506 65.8059C180.358 65.0656 180.031 64.4575 179.49 64.0412C178.953 63.6284 178.264 63.4487 177.474 63.4487V64.4487C178.118 64.4487 178.569 64.5949 178.88 64.8339C179.186 65.0693 179.413 65.4389 179.526 66.002L180.506 65.8059ZM177.474 63.4487C175.344 63.4487 173.395 64.4487 171.633 66.3459L172.366 67.0263C173.993 65.2737 175.694 64.4487 177.474 64.4487V63.4487ZM171.646 66.3325C169.873 68.1056 168.083 71.384 166.254 76.0856L167.186 76.4481C169.008 71.7644 170.737 68.6557 172.353 67.0396L171.646 66.3325ZM166.252 76.0905L161.755 88.0175L162.691 88.3703L167.188 76.4433L166.252 76.0905ZM162.223 87.6939H158.508V88.6939H162.223V87.6939ZM158.979 88.3629L164.453 73.1119L163.512 72.774L158.037 88.025L158.979 88.3629ZM164.452 73.1158C166.261 68.2065 168.511 64.3613 171.188 61.5566L170.464 60.8661C167.667 63.7968 165.355 67.7727 163.514 72.7701L164.452 73.1158ZM171.187 61.557C174.002 58.6142 177.259 56.5083 180.961 55.2317L180.635 54.2863C176.777 55.6168 173.385 57.8124 170.465 60.8658L171.187 61.557ZM180.961 55.2317C184.683 53.9481 188.734 53.3037 193.116 53.3037V52.3037C188.635 52.3037 184.473 52.9629 180.635 54.2863L180.961 55.2317ZM193.116 53.3037C197.491 53.3037 200.904 54.1409 203.402 55.7648L203.947 54.9264C201.231 53.1611 197.605 52.3037 193.116 52.3037V53.3037ZM203.417 55.7743C205.936 57.2857 207.754 59.3563 208.885 61.9949L209.804 61.601C208.589 58.7649 206.627 56.5339 203.932 54.9168L203.417 55.7743ZM208.885 61.9949C210.029 64.6644 210.604 67.5947 210.604 70.7921H211.604C211.604 67.4721 211.007 64.4062 209.804 61.601L208.885 61.9949ZM210.605 70.813C210.733 73.8921 210.413 76.9727 209.642 80.0561L210.612 80.2986C211.405 77.1252 211.736 73.949 211.604 70.7713L210.605 70.813ZM209.643 80.0506L189.504 156.892L190.471 157.146L210.611 80.3041L209.643 80.0506ZM239.847 56.2143C237.318 56.2143 234.601 56.6135 231.699 57.405L231.962 58.3698C234.795 57.5971 237.422 57.2143 239.847 57.2143V56.2143ZM231.693 57.4067C228.835 58.2233 225.828 60.3138 222.671 63.6025L223.392 64.295C226.492 61.0661 229.351 59.1157 231.968 58.3682L231.693 57.4067ZM222.671 63.6028C219.62 66.7857 216.335 71.9226 212.808 78.9761L213.702 79.4233C217.215 72.399 220.447 67.3686 223.393 64.2947L222.671 63.6028ZM212.805 78.9828C209.4 86.0534 205.742 95.8559 201.829 108.379L202.783 108.678C206.69 96.174 210.332 86.4239 213.706 79.4166L212.805 78.9828ZM201.829 108.379C197.912 120.912 193.803 136.895 189.5 156.324L190.476 156.541C194.776 137.126 198.878 121.173 202.783 108.678L201.829 108.379ZM190.482 156.507L194.588 129.133L193.599 128.985L189.493 156.358L190.482 156.507ZM194.578 129.183C198.487 113.938 202.068 101.437 205.322 91.676L204.373 91.3598C201.109 101.151 197.521 113.677 193.609 128.935L194.578 129.183ZM205.323 91.6741C208.576 81.7832 211.822 74.0641 215.056 68.5016L214.192 67.999C210.908 73.6467 207.637 81.4393 204.373 91.3616L205.323 91.6741ZM215.059 68.4973C218.292 62.806 221.821 58.9135 225.624 56.7582L225.131 55.8882C221.114 58.1648 217.473 62.2237 214.189 68.0033L215.059 68.4973ZM225.635 56.752C229.457 54.4586 233.928 53.3037 239.065 53.3037V52.3037C233.773 52.3037 229.119 53.4952 225.121 55.8945L225.635 56.752ZM239.065 53.3037C245.087 53.3037 249.629 55.0937 252.77 58.6115L253.516 57.9455C250.139 54.1637 245.295 52.3037 239.065 52.3037V53.3037ZM252.77 58.6115C255.939 62.1609 257.531 66.536 257.531 71.7698H258.531C258.531 66.3148 256.864 61.6957 253.516 57.9455L252.77 58.6115ZM257.531 71.7698C257.531 75.9923 256.572 79.9543 254.654 83.6627L255.542 84.1221C257.534 80.2701 258.531 76.1504 258.531 71.7698H257.531ZM254.651 83.6688C252.864 87.2426 250.313 90.1765 246.992 92.4755L247.561 93.2977C251.019 90.904 253.682 87.8418 255.545 84.116L254.651 83.6688ZM246.996 92.4731C243.827 94.6275 240.147 95.7105 235.936 95.7105V96.7105C240.329 96.7105 244.209 95.5775 247.558 93.3L246.996 92.4731ZM235.936 95.7105C231.195 95.7105 227.692 94.494 225.34 92.142L224.633 92.8491C227.234 95.4503 231.032 96.7105 235.936 96.7105V95.7105ZM225.34 92.142C222.988 89.7899 221.772 86.2875 221.772 81.5461H220.772C220.772 86.4506 222.032 90.2478 224.633 92.8491L225.34 92.142ZM221.772 81.5461C221.772 77.7233 222.726 74.1597 224.638 70.8465L223.772 70.3467C221.773 73.8118 220.772 77.5478 220.772 81.5461H221.772ZM224.638 70.8465C226.557 67.5204 229.115 64.7053 232.318 62.3992L231.734 61.5877C228.419 63.9743 225.763 66.8946 223.772 70.3467L224.638 70.8465ZM232.328 62.3915C235.528 59.9601 238.973 58.4308 242.669 57.7936L242.499 56.8081C238.635 57.4744 235.041 59.0735 231.723 61.5954L232.328 62.3915ZM242.742 56.8265C242.336 56.6911 241.867 56.5573 241.337 56.4247L241.094 57.3949C241.607 57.523 242.05 57.6499 242.426 57.7752L242.742 56.8265ZM241.374 56.4355C240.92 56.2843 240.408 56.2143 239.847 56.2143V57.2143C240.328 57.2143 240.729 57.2746 241.057 57.3841L241.374 56.4355ZM346.804 99.1434L347.288 99.2676L347.391 98.8666L347.016 98.6908L346.804 99.1434ZM330.771 86.8253L330.381 87.1388L330.385 87.1434L330.771 86.8253ZM328.229 57.1053L327.867 56.76L327.859 56.769L328.229 57.1053ZM350.91 57.8874L350.499 58.172V58.172L350.91 57.8874ZM351.888 94.8418L351.398 94.7392L351.397 94.7468L351.888 94.8418ZM344.458 118.5L344 118.299L343.997 118.305L344.458 118.5ZM331.749 139.422L331.364 139.102L331.364 139.102L331.749 139.422ZM313.565 154.282L313.798 154.724L313.801 154.722L313.565 154.282ZM270.744 156.237L270.501 156.673L270.508 156.678L270.516 156.682L270.744 156.237ZM261.359 147.047L260.909 147.265L260.912 147.271L261.359 147.047ZM266.052 110.484L266.48 110.742L266.482 110.739L266.052 110.484ZM286.387 85.6521L286.044 85.2878L286.041 85.2904L286.387 85.6521ZM315.715 61.2114L316.015 61.6119L317.289 60.6604L315.699 60.7116L315.715 61.2114ZM305.353 64.3398L305.63 64.7558L305.634 64.7529L305.353 64.3398ZM297.923 70.5966L297.559 70.2533L297.923 70.5966ZM291.275 76.8534L291.59 77.2415L291.593 77.2394L291.275 76.8534ZM278.565 78.0266L278.271 78.431L278.292 78.4458L278.314 78.4585L278.565 78.0266ZM269.767 78.2221L270.161 78.5291L269.767 78.2221ZM267.225 83.8924L267.699 84.0505L267.702 84.0433L267.704 84.036L267.225 83.8924ZM265.856 87.9984V88.4984H266.217L266.331 88.1565L265.856 87.9984ZM262.141 87.9984L261.663 87.8541L261.468 88.4984H262.141V87.9984ZM266.443 73.725L266.922 73.8693L266.924 73.8604L266.443 73.725ZM274.85 56.9098L275.181 57.2852L274.85 56.9098ZM291.275 53.9769L291.051 54.4241L291.275 53.9769ZM297.336 56.9098L297.123 57.3622L297.134 57.3674L297.146 57.3721L297.336 56.9098ZM311.609 57.8874L311.668 58.384L311.682 58.3823L311.696 58.3798L311.609 57.8874ZM319.039 55.3456L319.254 55.797L319.404 55.7256L319.482 55.5785L319.039 55.3456ZM320.995 51.6306L321.21 51.1792L320.776 50.9726L320.552 51.3977L320.995 51.6306ZM325.101 53.5859L325.527 53.8466L325.817 53.373L325.316 53.1344L325.101 53.5859ZM313.174 75.6803L312.722 75.4659L312.72 75.4693L313.174 75.6803ZM303.984 98.3613L304.456 98.5268L304.457 98.5243L303.984 98.3613ZM297.923 119.283L298.411 119.39L297.923 119.283ZM297.727 146.07L297.296 146.323L297.727 146.07ZM316.302 146.656L316.078 146.209L316.302 146.656ZM326.469 139.031L326.83 139.377L326.469 139.031ZM335.072 127.886L335.497 128.151L335.5 128.145L335.072 127.886ZM341.916 114.199L342.379 114.387L342.381 114.382L341.916 114.199ZM347.016 98.6908C340.693 95.7227 335.409 91.6615 331.157 86.5071L330.385 87.1434C334.736 92.4171 340.14 96.5679 346.592 99.596L347.016 98.6908ZM331.16 86.5117C326.928 81.2531 324.819 75.3668 324.819 68.8369H323.819C323.819 75.6027 326.011 81.7086 330.381 87.1388L331.16 86.5117ZM324.819 68.8369C324.819 63.9722 326.097 60.1939 328.599 57.4417L327.859 56.769C325.147 59.7521 323.819 63.7949 323.819 68.8369H324.819ZM328.591 57.4506C331.214 54.7025 334.851 53.3037 339.57 53.3037V52.3037C334.642 52.3037 330.719 53.7727 327.867 56.7601L328.591 57.4506ZM339.57 53.3037C344.668 53.3037 348.271 54.9534 350.499 58.172L351.321 57.6028C348.857 54.0432 344.899 52.3037 339.57 52.3037V53.3037ZM350.499 58.172C352.767 61.4474 353.93 66.0268 353.93 71.9653H354.93C354.93 65.9115 353.746 61.1057 351.321 57.6028L350.499 58.172ZM353.93 71.9653C353.93 79.0954 353.087 86.6862 351.398 94.7392L352.377 94.9444C354.078 86.8339 354.93 79.1738 354.93 71.9653H353.93ZM351.397 94.7468C349.84 102.791 347.375 110.642 344 118.299L344.915 118.702C348.319 110.978 350.807 103.056 352.379 94.9368L351.397 94.7468ZM343.997 118.305C340.757 125.952 336.546 132.883 331.364 139.102L332.133 139.742C337.379 133.446 341.641 126.43 344.918 118.696L343.997 118.305ZM331.364 139.102C326.321 145.179 320.31 150.091 313.328 153.841L313.801 154.722C320.897 150.912 327.008 145.917 332.133 139.741L331.364 139.102ZM313.331 153.84C306.505 157.446 298.636 159.256 289.71 159.256V160.256C298.774 160.256 306.807 158.417 313.798 154.724L313.331 153.84ZM289.71 159.256C281.667 159.256 275.435 158.087 270.973 155.792L270.516 156.682C275.178 159.079 281.59 160.256 289.71 160.256V159.256ZM270.988 155.8C266.623 153.361 263.577 150.364 261.806 146.824L260.912 147.271C262.792 151.03 266.003 154.16 270.501 156.673L270.988 155.8ZM261.809 146.83C260.015 143.112 259.122 139.341 259.122 135.511H258.122C258.122 139.502 259.054 143.422 260.909 147.265L261.809 146.83ZM259.122 135.511C259.122 127.141 261.567 118.887 266.48 110.742L265.624 110.226C260.63 118.505 258.122 126.936 258.122 135.511H259.122ZM266.482 110.739C271.407 102.444 278.154 94.2012 286.732 86.0138L286.041 85.2904C277.412 93.5272 270.603 101.839 265.622 110.229L266.482 110.739ZM286.729 86.0164C295.447 77.8187 305.209 69.6838 316.015 61.6119L315.416 60.8108C304.584 68.9024 294.793 77.0613 286.044 85.2878L286.729 86.0164ZM315.699 60.7116C311.579 60.8445 308.029 61.9096 305.071 63.9267L305.634 64.7529C308.411 62.8595 311.77 61.8389 315.732 61.7111L315.699 60.7116ZM305.075 63.9238C302.307 65.7692 299.801 67.8791 297.559 70.2533L298.286 70.9399C300.476 68.6215 302.923 66.5602 305.63 64.7558L305.075 63.9238ZM297.559 70.2533C295.356 72.5863 293.155 74.6573 290.957 76.4675L291.593 77.2394C293.826 75.3997 296.058 73.2996 298.286 70.9399L297.559 70.2533ZM290.959 76.4654C288.965 78.0861 286.665 78.8953 284.04 78.8953V79.8953C286.89 79.8953 289.413 79.0099 291.59 77.2415L290.959 76.4654ZM284.04 78.8953C282.03 78.8953 280.294 78.4562 278.817 77.5947L278.314 78.4585C279.965 79.4219 281.88 79.8953 284.04 79.8953V78.8953ZM278.86 77.6222C277.338 76.5153 275.605 75.9624 273.677 75.9624V76.9624C275.4 76.9624 276.926 77.4522 278.271 78.431L278.86 77.6222ZM273.677 75.9624C271.853 75.9624 270.393 76.6021 269.372 77.9151L270.161 78.5291C270.965 77.4959 272.113 76.9624 273.677 76.9624V75.9624ZM269.372 77.9151C268.402 79.1621 267.534 81.1233 266.746 83.7487L267.704 84.036C268.48 81.4474 269.306 79.6284 270.161 78.5291L269.372 77.9151ZM266.751 83.7343L265.382 87.8403L266.331 88.1565L267.699 84.0505L266.751 83.7343ZM265.856 87.4984H262.141V88.4984H265.856V87.4984ZM262.62 88.1427L266.922 73.8693L265.964 73.5807L261.663 87.8541L262.62 88.1427ZM266.924 73.8604C269.266 65.5345 272.037 60.0516 275.181 57.2852L274.52 56.5344C271.146 59.5034 268.313 65.2307 265.962 73.5896L266.924 73.8604ZM275.181 57.2852C278.375 54.4746 281.586 53.1082 284.822 53.1082V52.1082C281.281 52.1082 277.844 53.6096 274.52 56.5344L275.181 57.2852ZM284.822 53.1082C287.238 53.1082 289.309 53.553 291.051 54.4241L291.498 53.5297C289.591 52.5759 287.36 52.1082 284.822 52.1082V53.1082ZM291.051 54.4241C292.88 55.3387 294.904 56.318 297.123 57.3622L297.549 56.4574C295.336 55.4159 293.319 54.4401 291.498 53.5297L291.051 54.4241ZM297.146 57.3721C299.447 58.3196 302.518 58.7785 306.33 58.7785V57.7785C302.582 57.7785 299.657 57.3249 297.526 56.4475L297.146 57.3721ZM306.33 58.7785C307.662 58.7785 309.444 58.6456 311.668 58.384L311.551 57.3909C309.343 57.6506 307.605 57.7785 306.33 57.7785V58.7785ZM311.696 58.3798C313.969 57.9788 316.489 57.1136 319.254 55.797L318.824 54.8942C316.115 56.1845 313.682 57.014 311.522 57.395L311.696 58.3798ZM319.482 55.5785L321.437 51.8635L320.552 51.3977L318.597 55.1127L319.482 55.5785ZM320.78 52.082L324.886 54.0373L325.316 53.1344L321.21 51.1792L320.78 52.082ZM324.674 53.3251C320.363 60.3795 316.379 67.7598 312.722 75.4659L313.625 75.8947C317.268 68.2193 321.235 60.87 325.527 53.8466L324.674 53.3251ZM312.72 75.4693C309.194 83.0446 306.124 90.6209 303.511 98.1983L304.457 98.5243C307.058 90.9809 310.114 83.4366 313.627 75.8913L312.72 75.4693ZM303.512 98.1957C300.9 105.641 298.873 112.635 297.434 119.175L298.411 119.39C299.84 112.895 301.854 105.941 304.456 98.5268L303.512 98.1957ZM297.434 119.175C295.996 125.714 295.272 131.357 295.272 136.098H296.272C296.272 131.453 296.982 125.886 298.411 119.39L297.434 119.175ZM295.272 136.098C295.272 140.562 295.925 143.993 297.296 146.323L298.158 145.816C296.922 143.714 296.272 140.497 296.272 136.098H295.272ZM297.296 146.323C298.718 148.74 301.264 149.894 304.766 149.894V148.894C301.49 148.894 299.343 147.831 298.158 145.816L297.296 146.323ZM304.766 149.894C308.885 149.894 312.807 148.963 316.526 147.103L316.078 146.209C312.497 148 308.728 148.894 304.766 148.894V149.894ZM316.526 147.103C320.232 145.25 323.666 142.673 326.83 139.377L326.109 138.684C323.016 141.906 319.672 144.412 316.078 146.209L316.526 147.103ZM326.83 139.377C329.984 136.091 332.873 132.349 335.496 128.151L334.648 127.621C332.058 131.765 329.211 135.453 326.109 138.684L326.83 139.377ZM335.5 128.145C338.121 123.82 340.414 119.234 342.379 114.387L341.453 114.011C339.507 118.81 337.238 123.349 334.645 127.627L335.5 128.145ZM342.381 114.382C344.344 109.41 345.98 104.372 347.288 99.2676L346.32 99.0192C345.021 104.082 343.399 109.081 341.451 114.015L342.381 114.382ZM431.38 7.44175L431.074 7.83748L431.082 7.84384L431.38 7.44175ZM428.838 32.2735L429.15 32.664L429.151 32.6629L428.838 32.2735ZM398.922 34.4243L398.617 34.8201L398.625 34.8264L398.922 34.4243ZM386.409 72.1608L386.883 72.3189L386.409 72.1608ZM379.174 66.6861L379.528 67.0396L379.534 67.0331L379.541 67.0263L379.174 66.6861ZM373.895 76.2669L373.429 76.0856L373.427 76.0905L373.895 76.2669ZM369.398 88.1939V88.6939H369.744L369.866 88.3703L369.398 88.1939ZM365.683 88.1939L365.212 88.025L364.972 88.6939H365.683V88.1939ZM371.158 72.9429L370.689 72.7701L370.687 72.774L371.158 72.9429ZM378.001 61.2114L377.64 60.8658L377.639 60.8661L378.001 61.2114ZM387.973 54.759L388.136 55.2317L387.973 54.759ZM412.218 55.3456L411.972 55.7809L412.218 55.3456ZM418.671 61.9935L418.219 62.2085L418.223 62.2171L418.671 61.9935ZM419.062 80.1774L419.535 80.3373L419.536 80.3355L419.062 80.1774ZM398.727 140.399L398.253 140.239L398.251 140.247L398.727 140.399ZM398.14 147.047L397.703 147.29L397.709 147.301L397.716 147.312L398.14 147.047ZM405.57 146.656L405.861 147.063L405.87 147.056L405.879 147.049L405.57 146.656ZM411.436 136.293L411.903 136.471L411.904 136.469L411.436 136.293ZM415.542 125.344V124.844H415.196L415.074 125.168L415.542 125.344ZM419.257 125.344L419.73 125.506L419.957 124.844H419.257V125.344ZM414.369 139.617L414.84 139.785L414.842 139.779L414.369 139.617ZM406.939 152.131L406.593 151.77L406.939 152.131ZM396.967 157.997L396.83 157.516L396.819 157.519L396.809 157.522L396.967 157.997ZM372.331 156.237L372.043 156.646L372.052 156.652L372.06 156.658L372.331 156.237ZM365.879 145.092L365.384 145.168L365.385 145.17L365.879 145.092ZM368.42 126.126L367.946 125.968L367.945 125.97L368.42 126.126ZM395.121 24.8435C395.121 17.9208 397.357 12.8751 401.762 9.60285L401.166 8.80011C396.446 12.3061 394.121 17.6885 394.121 24.8435H395.121ZM401.762 9.60285C406.223 6.28941 411.783 4.61781 418.475 4.61781V3.61781C411.611 3.61781 405.83 5.33532 401.166 8.80011L401.762 9.60285ZM418.475 4.61781C424.16 4.61781 428.332 5.71843 431.074 7.83739L431.685 7.04611C428.692 4.73314 424.261 3.61781 418.475 3.61781V4.61781ZM431.082 7.84384C433.928 9.94707 435.377 13.1064 435.377 17.4136H436.377C436.377 12.8569 434.827 9.36836 431.677 7.03966L431.082 7.84384ZM435.377 17.4136C435.377 23.3917 433.097 28.2007 428.524 31.8842L429.151 32.6629C433.964 28.786 436.377 23.6884 436.377 17.4136H435.377ZM428.525 31.8831C424.066 35.4509 418.511 37.2483 411.827 37.2483V38.2483C418.7 38.2483 424.485 36.3958 429.15 32.664L428.525 31.8831ZM411.827 37.2483C406.278 37.2483 402.098 36.1498 399.22 34.0222L398.625 34.8264C401.743 37.1308 406.166 38.2483 411.827 38.2483V37.2483ZM399.228 34.0287C396.502 31.9225 395.121 28.8864 395.121 24.8435H394.121C394.121 29.1431 395.607 32.4942 398.617 34.82L399.228 34.0287ZM386.883 72.3189C387.8 69.5693 388.15 67.4057 387.826 65.897C387.661 65.1252 387.313 64.4953 386.749 64.0646C386.189 63.6369 385.472 63.4487 384.649 63.4487V64.4487C385.325 64.4487 385.806 64.6027 386.142 64.8594C386.474 65.113 386.721 65.5096 386.849 66.1065C387.112 67.3352 386.843 69.2777 385.934 72.0027L386.883 72.3189ZM384.649 63.4487C382.519 63.4487 380.57 64.4487 378.808 66.3459L379.541 67.0263C381.168 65.2737 382.869 64.4487 384.649 64.4487V63.4487ZM378.821 66.3325C377.048 68.1056 375.257 71.384 373.429 76.0856L374.361 76.4481C376.182 71.7644 377.912 68.6557 379.528 67.0396L378.821 66.3325ZM373.427 76.0905L368.93 88.0175L369.866 88.3703L374.363 76.4433L373.427 76.0905ZM369.398 87.6939H365.683V88.6939H369.398V87.6939ZM366.154 88.3629L371.628 73.1119L370.687 72.774L365.212 88.025L366.154 88.3629ZM371.627 73.1158C373.436 68.2065 375.686 64.3613 378.363 61.5566L377.639 60.8661C374.842 63.7968 372.53 67.7727 370.689 72.7701L371.627 73.1158ZM378.362 61.557C381.177 58.6142 384.434 56.5083 388.136 55.2317L387.81 54.2863C383.952 55.6168 380.56 57.8124 377.64 60.8658L378.362 61.557ZM388.136 55.2317C391.858 53.9481 395.909 53.3037 400.291 53.3037V52.3037C395.81 52.3037 391.648 52.9629 387.81 54.2863L388.136 55.2317ZM400.291 53.3037C405.194 53.3037 409.075 54.1433 411.972 55.7809L412.464 54.9103C409.365 53.1587 405.295 52.3037 400.291 52.3037V53.3037ZM411.972 55.7809C414.893 57.432 416.966 59.5762 418.219 62.2084L419.122 61.7785C417.768 58.9361 415.539 56.6483 412.464 54.9103L411.972 55.7809ZM418.223 62.2171C419.488 64.7468 420.126 67.6017 420.126 70.7921H421.126C421.126 67.465 420.46 64.4541 419.118 61.7699L418.223 62.2171ZM420.126 70.7921C420.126 73.864 419.614 76.9391 418.587 80.0193L419.536 80.3355C420.595 77.1589 421.126 73.9771 421.126 70.7921H420.126ZM418.588 80.0174L398.253 140.239L399.201 140.559L419.535 80.3373L418.588 80.0174ZM398.251 140.247C397.723 141.895 397.402 143.303 397.3 144.461C397.199 145.61 397.306 146.576 397.703 147.29L398.577 146.804C398.322 146.346 398.202 145.617 398.296 144.549C398.389 143.492 398.688 142.163 399.203 140.552L398.251 140.247ZM397.716 147.312C398.466 148.512 399.61 149.111 401.073 149.111V148.111C399.93 148.111 399.118 147.669 398.564 146.782L397.716 147.312ZM401.073 149.111C402.41 149.111 404.017 148.38 405.861 147.063L405.28 146.249C403.474 147.539 402.083 148.111 401.073 148.111V149.111ZM405.879 147.049C406.867 146.273 407.85 144.986 408.841 143.236C409.835 141.48 410.855 139.222 411.903 136.471L410.969 136.115C409.931 138.839 408.931 141.046 407.97 142.744C407.005 144.449 406.099 145.605 405.261 146.263L405.879 147.049ZM411.904 136.469L416.01 125.519L415.074 125.168L410.968 136.118L411.904 136.469ZM415.542 125.844H419.257V124.844H415.542V125.844ZM418.784 125.182L413.896 139.455L414.842 139.779L419.73 125.506L418.784 125.182ZM413.898 139.449C411.959 144.878 409.517 148.973 406.593 151.77L407.285 152.492C410.357 149.554 412.868 145.306 414.84 139.785L413.898 139.449ZM406.593 151.77C403.648 154.586 400.394 156.497 396.83 157.516L397.104 158.477C400.839 157.41 404.233 155.411 407.285 152.492L406.593 151.77ZM396.809 157.522C393.338 158.679 389.872 159.256 386.409 159.256V160.256C389.985 160.256 393.558 159.66 397.125 158.471L396.809 157.522ZM386.409 159.256C380.739 159.256 376.148 158.097 372.601 155.816L372.06 156.658C375.813 159.07 380.608 160.256 386.409 160.256V159.256ZM372.619 155.828C369.228 153.442 367.137 149.858 366.372 145.014L365.385 145.17C366.184 150.233 368.395 154.078 372.043 156.646L372.619 155.828ZM366.373 145.016C365.607 140.041 366.431 133.804 368.896 126.282L367.945 125.97C365.456 133.568 364.586 139.976 365.384 145.168L366.373 145.016ZM368.895 126.284L386.883 72.3189L385.934 72.0027L367.946 125.968L368.895 126.284ZM23.3248 212.971L23.6564 213.345L23.6622 213.34L23.3248 212.971ZM11.2022 229.395L11.646 229.626L11.6477 229.622L11.2022 229.395ZM2.7946 252.272L3.27967 252.393L3.28011 252.391L2.7946 252.272ZM3.96775 292.941L4.33633 292.603L3.96775 292.941ZM26.8443 294.31L26.5978 293.875L26.8443 294.31ZM38.7714 281.992L38.9571 281.527L38.5823 281.378L38.3567 281.712L38.7714 281.992ZM42.6819 283.556L43.1037 283.824L43.4274 283.316L42.8676 283.092L42.6819 283.556ZM32.319 296.07L31.9711 295.71L31.9654 295.716L32.319 296.07ZM17.6546 306.041L17.8567 306.499L17.8615 306.497L17.6546 306.041ZM-26.9253 302.326L-26.6266 301.925L-26.9253 302.326ZM-33.7687 258.138L-34.2465 257.99L-34.2481 257.996L-33.7687 258.138ZM-24.3835 237.607L-24.807 237.342L-24.8085 237.344L-24.3835 237.607ZM-9.32801 219.814L-8.99583 220.188L-9.32801 219.814ZM10.6156 207.496L10.8027 207.96L10.8097 207.957L10.6156 207.496ZM53.6313 208.865L53.9682 208.496L53.6313 208.865ZM48.7432 245.037L49.0382 245.441L49.0408 245.439L48.7432 245.037ZM28.213 245.233L27.8876 245.613L28.213 245.233ZM30.1682 218.446L30.5471 218.772L30.1682 218.446ZM44.0506 209.061L44.1942 209.539L45.0708 209.277L44.3759 208.681L44.0506 209.061ZM41.1177 207.301L41.2932 206.833L41.1177 207.301ZM37.4027 206.214C32.4227 206.214 27.615 208.371 22.9874 212.602L23.6622 213.34C28.1591 209.229 32.7367 207.214 37.4027 207.214V206.214ZM22.9933 212.597C18.3733 216.689 14.2972 222.218 10.7567 229.168L11.6477 229.622C15.1462 222.755 19.1518 217.335 23.6563 213.345L22.9933 212.597ZM10.7585 229.165C7.21835 235.983 4.40286 243.646 2.30909 252.152L3.28011 252.391C5.35756 243.952 8.14713 236.364 11.646 229.626L10.7585 229.165ZM2.30952 252.151C0.213997 260.533 -0.833817 269.046 -0.833817 277.69H0.166183C0.166183 269.128 1.20398 260.696 3.27967 252.393L2.30952 252.151ZM-0.833817 277.69C-0.833817 284.777 0.606297 290.014 3.59917 293.279L4.33633 292.603C1.59378 289.611 0.166183 284.681 0.166183 277.69H-0.833817ZM3.59917 293.279C6.57219 296.522 10.492 298.134 15.3083 298.134V297.134C10.7393 297.134 7.09874 295.617 4.33633 292.603L3.59917 293.279ZM15.3083 298.134C19.1898 298.134 23.1193 296.995 27.0908 294.745L26.5978 293.875C22.7482 296.056 18.987 297.134 15.3083 297.134V298.134ZM27.0908 294.745C31.0975 292.474 35.1253 288.297 39.186 282.271L38.3567 281.712C34.3357 287.679 30.4121 291.713 26.5978 293.875L27.0908 294.745ZM38.5857 282.456L42.4962 284.02L42.8676 283.092L38.9571 281.527L38.5857 282.456ZM42.26 283.288C39.5464 287.552 36.118 291.693 31.9711 295.71L32.6669 296.429C36.8624 292.364 40.3427 288.163 43.1037 283.824L42.26 283.288ZM31.9654 295.716C27.9711 299.71 23.1341 303.001 17.4477 305.586L17.8615 306.497C23.6459 303.867 28.5852 300.511 32.6726 296.423L31.9654 295.716ZM17.4525 305.584C11.9241 308.027 5.41302 309.256 -2.09355 309.256V310.256C5.52054 310.256 12.1749 309.009 17.8566 306.499L17.4525 305.584ZM-2.09355 309.256C-11.9141 309.256 -20.0809 306.803 -26.6266 301.925L-27.2241 302.727C-20.474 307.757 -12.0862 310.256 -2.09355 310.256V309.256ZM-26.6266 301.925C-33.1124 297.093 -36.3972 289.444 -36.3972 278.863H-37.3972C-37.3972 289.66 -34.0341 297.653 -27.2241 302.727L-26.6266 301.925ZM-36.3972 278.863C-36.3972 272.137 -35.3624 265.276 -33.2893 258.28L-34.2481 257.996C-36.3463 265.077 -37.3972 272.033 -37.3972 278.863H-36.3972ZM-33.291 258.285C-31.0879 251.158 -27.9775 244.353 -23.9585 237.871L-24.8085 237.344C-28.8713 243.897 -32.0176 250.779 -34.2464 257.99L-33.291 258.285ZM-23.96 237.873C-19.8139 231.265 -14.8262 225.371 -8.99583 220.188L-9.66019 219.441C-15.5614 224.686 -20.6106 230.654 -24.807 237.342L-23.96 237.873ZM-8.99583 220.188C-3.1738 215.013 3.42478 210.937 10.8027 207.96L10.4285 207.033C2.94652 210.052 -3.75067 214.188 -9.66019 219.441L-8.99583 220.188ZM10.8097 207.957C18.1733 204.857 26.1884 203.304 34.8608 203.304V202.304C26.0663 202.304 17.918 203.879 10.4216 207.036L10.8097 207.957ZM34.8608 203.304C42.8619 203.304 48.9826 205.303 53.2944 209.235L53.9682 208.496C49.4162 204.345 43.0232 202.304 34.8608 202.304V203.304ZM53.2944 209.235C57.6335 213.191 59.7792 217.819 59.7792 223.138H60.7792C60.7792 217.509 58.493 212.621 53.9682 208.496L53.2944 209.235ZM59.7792 223.138C59.7792 227.222 58.7591 231.183 56.7096 235.026L57.592 235.496C59.7137 231.518 60.7792 227.397 60.7792 223.138H59.7792ZM56.7096 235.026C54.6585 238.872 51.9047 242.073 48.4456 244.636L49.0408 245.439C52.6206 242.787 55.4719 239.472 57.592 235.496L56.7096 235.026ZM48.4482 244.634C45.1441 247.048 41.4671 248.252 37.4027 248.252V249.252C41.6807 249.252 45.564 247.98 49.0382 245.441L48.4482 244.634ZM37.4027 248.252C34.1409 248.252 31.1914 247.127 28.5384 244.853L27.8876 245.613C30.7093 248.031 33.8862 249.252 37.4027 249.252V248.252ZM28.5384 244.853C25.9368 242.623 24.6069 239.388 24.6069 235.066H23.6069C23.6069 239.607 25.0144 243.15 27.8876 245.613L28.5384 244.853ZM24.6069 235.066C24.6069 228.794 26.587 223.371 30.5471 218.772L29.7893 218.12C25.6677 222.906 23.6069 228.563 23.6069 235.066H24.6069ZM30.5471 218.772C34.5345 214.142 39.0837 211.073 44.1942 209.539L43.9069 208.582C38.5894 210.177 33.8836 213.365 29.7893 218.12L30.5471 218.772ZM44.3759 208.681C43.4226 207.864 42.395 207.246 41.2932 206.833L40.9421 207.769C41.926 208.138 42.8536 208.693 43.7252 209.44L44.3759 208.681ZM41.2932 206.833C40.1807 206.415 38.8801 206.214 37.4027 206.214V207.214C38.793 207.214 39.969 207.404 40.9421 207.769L41.2932 206.833ZM93.0053 265.959L92.7931 265.506L92.5361 265.626L92.5078 265.909L93.0053 265.959ZM105.323 258.92L105.604 259.334L105.323 258.92ZM116.468 249.925L116.815 250.286L116.817 250.283L116.468 249.925ZM129.178 232.524L128.734 232.293L128.73 232.3L129.178 232.524ZM133.479 207.692L133.063 207.969L133.075 207.987L133.089 208.004L133.479 207.692ZM122.53 211.016L122.875 211.377L122.876 211.377L122.53 211.016ZM113.536 222.747L113.96 223.011L113.963 223.006L113.536 222.747ZM105.323 239.172L104.86 238.984L104.857 238.993L105.323 239.172ZM99.4577 258.138L98.9715 258.021L98.9698 258.028L99.4577 258.138ZM101.804 291.964L101.476 292.341L101.486 292.349L101.804 291.964ZM125.267 292.746L125.443 293.214L125.267 292.746ZM140.909 281.992L141.133 281.545L140.81 281.383L140.556 281.638L140.909 281.992ZM144.038 283.556L144.454 283.833L144.768 283.362L144.261 283.109L144.038 283.556ZM132.697 296.07L132.371 295.691L132.697 296.07ZM116.077 306.041L116.258 306.508L116.266 306.504L116.077 306.041ZM77.5588 306.628L77.369 307.091L77.3731 307.092L77.5588 306.628ZM65.2407 297.438L64.8347 297.73L64.8399 297.737L64.8453 297.744L65.2407 297.438ZM64.263 259.311L63.7878 259.155L63.7855 259.163L64.263 259.311ZM74.6259 237.803L75.0444 238.077L74.6259 237.803ZM90.4635 219.814L90.7876 220.195L90.7882 220.195L90.4635 219.814ZM111.189 207.301L111.005 206.836L111.189 207.301ZM152.641 207.105L152.375 207.529L152.382 207.533L152.389 207.537L152.641 207.105ZM155.769 234.088L156.197 234.347L156.2 234.341L155.769 234.088ZM145.015 246.015L145.321 246.411L145.328 246.405L145.015 246.015ZM129.569 255.596L129.792 256.043L129.569 255.596ZM111.385 263.026L111.23 262.55L111.227 262.551L111.385 263.026ZM92.8098 267.914L92.3123 267.864L92.2456 268.531L92.9039 268.405L92.8098 267.914ZM93.2176 266.411C97.4138 264.444 101.543 262.085 105.604 259.334L105.043 258.506C101.023 261.229 96.9393 263.562 92.7931 265.506L93.2176 266.411ZM105.604 259.334C109.667 256.581 113.405 253.565 116.815 250.286L116.122 249.565C112.754 252.803 109.061 255.784 105.043 258.506L105.604 259.334ZM116.817 250.283C122.072 245.161 126.341 239.315 129.625 232.747L128.73 232.3C125.497 238.768 121.293 244.523 116.119 249.567L116.817 250.283ZM129.621 232.754C133.049 226.163 134.761 219.045 134.761 211.407H133.761C133.761 218.889 132.085 225.849 128.734 232.293L129.621 232.754ZM134.761 211.407C134.761 210.474 134.695 209.671 134.555 209.006C134.416 208.347 134.198 207.79 133.87 207.38L133.089 208.004C133.282 208.246 133.455 208.634 133.576 209.212C133.697 209.787 133.761 210.515 133.761 211.407H134.761ZM133.895 207.415C133.27 206.476 132.321 206.019 131.133 206.019V207.019C132.03 207.019 132.646 207.343 133.063 207.969L133.895 207.415ZM131.133 206.019C128.334 206.019 125.347 207.623 122.184 210.655L122.876 211.377C125.969 208.412 128.717 207.019 131.133 207.019V206.019ZM122.184 210.655C119.145 213.562 116.12 217.511 113.108 222.488L113.963 223.006C116.947 218.077 119.919 214.205 122.875 211.377L122.184 210.655ZM113.111 222.483C110.095 227.334 107.346 232.835 104.86 238.984L105.787 239.359C108.255 233.255 110.979 227.806 113.96 223.011L113.111 222.483ZM104.857 238.993C102.502 245.14 100.541 251.483 98.9715 258.021L99.9439 258.254C101.503 251.757 103.452 245.456 105.79 239.35L104.857 238.993ZM98.9698 258.028C97.5286 264.448 96.8069 270.676 96.8069 276.713H97.8069C97.8069 270.756 98.519 264.602 99.9456 258.247L98.9698 258.028ZM96.8069 276.713C96.8069 284.299 98.3031 289.582 101.476 292.341L102.132 291.586C99.3088 289.131 97.8069 284.247 97.8069 276.713H96.8069ZM101.486 292.349C104.593 294.916 108.625 296.179 113.536 296.179V295.179C108.8 295.179 105.011 293.964 102.122 291.578L101.486 292.349ZM113.536 296.179C116.239 296.179 120.222 295.172 125.443 293.214L125.092 292.277C119.885 294.23 116.046 295.179 113.536 295.179V296.179ZM125.443 293.214C130.741 291.227 136.014 287.594 141.263 282.345L140.556 281.638C135.376 286.817 130.221 290.354 125.092 292.277L125.443 293.214ZM140.686 282.439L143.814 284.003L144.261 283.109L141.133 281.545L140.686 282.439ZM143.622 283.279C140.783 287.536 137.036 291.674 132.371 295.691L133.023 296.448C137.744 292.384 141.556 288.179 144.454 283.833L143.622 283.279ZM132.371 295.691C127.724 299.693 122.231 302.99 115.888 305.578L116.266 306.504C122.698 303.879 128.285 300.528 133.023 296.448L132.371 295.691ZM115.897 305.575C109.576 308.026 102.469 309.256 94.5695 309.256V310.256C102.573 310.256 109.805 309.01 116.258 306.508L115.897 305.575ZM94.5695 309.256C88.5009 309.256 82.8943 308.224 77.7445 306.164L77.3731 307.092C82.6513 309.204 88.3853 310.256 94.5695 310.256V309.256ZM77.7486 306.165C72.7397 304.11 68.7068 301.099 65.636 297.132L64.8453 297.744C68.0314 301.86 72.2106 304.974 77.369 307.091L77.7486 306.165ZM65.6467 297.146C62.7195 293.074 61.2436 288.097 61.2436 282.187H60.2436C60.2436 288.27 61.7657 293.46 64.8347 297.73L65.6467 297.146ZM61.2436 282.187C61.2436 274.548 62.4087 266.973 64.7406 259.459L63.7855 259.163C61.4247 266.769 60.2436 274.445 60.2436 282.187H61.2436ZM64.7382 259.466C67.201 251.948 70.636 244.819 75.0444 238.077L74.2074 237.529C69.752 244.343 66.2784 251.552 63.7879 259.155L64.7382 259.466ZM75.0444 238.077C79.4503 231.338 84.6978 225.378 90.7876 220.195L90.1394 219.434C83.9763 224.679 78.6654 230.711 74.2074 237.529L75.0444 238.077ZM90.7882 220.195C97.0037 214.886 103.865 210.743 111.374 207.766L111.005 206.836C103.393 209.855 96.4369 214.055 90.1388 219.434L90.7882 220.195ZM111.374 207.766C118.872 204.792 126.891 203.304 135.434 203.304V202.304C126.772 202.304 118.627 203.813 111.005 206.836L111.374 207.766ZM135.434 203.304C142.275 203.304 147.912 204.723 152.375 207.529L152.907 206.682C148.245 203.752 142.411 202.304 135.434 202.304V203.304ZM152.389 207.537C156.913 210.177 159.18 214.305 159.18 220.01H160.18C160.18 213.984 157.753 209.509 152.893 206.673L152.389 207.537ZM159.18 220.01C159.18 224.871 157.902 229.476 155.338 233.834L156.2 234.341C158.851 229.836 160.18 225.056 160.18 220.01H159.18ZM155.342 233.829C152.769 238.073 149.227 242.006 144.703 245.625L145.328 246.405C149.928 242.725 153.555 238.706 156.197 234.347L155.342 233.829ZM144.71 245.619C140.176 249.117 135.055 252.294 129.345 255.149L129.792 256.043C135.553 253.162 140.73 249.952 145.321 246.411L144.71 245.619ZM129.345 255.149C123.633 258.005 117.594 260.472 111.23 262.55L111.54 263.501C117.949 261.408 124.034 258.922 129.792 256.043L129.345 255.149ZM111.227 262.551C104.99 264.63 98.8194 266.254 92.7158 267.423L92.9039 268.405C99.0532 267.227 105.266 265.592 111.543 263.5L111.227 262.551ZM93.3073 267.964L93.5029 266.008L92.5078 265.909L92.3123 267.864L93.3073 267.964ZM178.664 304.282L178.211 304.07L178.005 304.511L178.44 304.729L178.664 304.282ZM181.792 305.455L181.671 305.94L181.704 305.948L181.737 305.952L181.792 305.455ZM195.479 301.74L195.126 301.386L195.479 301.74ZM196.457 276.908L196.916 276.71L196.457 276.908ZM188.245 261.657L187.819 261.919L187.823 261.925L188.245 261.657ZM180.033 247.384L179.588 247.612L179.591 247.618L180.033 247.384ZM193.719 206.714L193.926 207.169L193.719 206.714ZM231.26 204.759L231.136 205.243L231.139 205.244L231.26 204.759ZM243.97 211.602L243.616 211.956L243.623 211.963L243.63 211.97L243.97 211.602ZM247.489 233.306L247.022 233.128L247.489 233.306ZM242.796 240.149L243.124 240.527L243.126 240.525L242.796 240.149ZM225.981 238.194L225.573 238.483L225.579 238.491L225.981 238.194ZM224.613 215.122L224.155 214.921L224.151 214.928L224.148 214.936L224.613 215.122ZM228.914 207.887L229.283 208.225L229.731 207.737L229.138 207.44L228.914 207.887ZM213.663 211.016L213.291 210.681L213.287 210.687L213.282 210.692L213.663 211.016ZM210.144 222.356L209.644 222.343V222.356H210.144ZM211.708 231.155L211.236 231.319L211.24 231.332L211.245 231.344L211.708 231.155ZM216.205 239.954L215.778 240.214L215.783 240.222L216.205 239.954ZM221.68 248.948L221.248 249.2L221.249 249.202L221.68 248.948ZM230.674 266.936L230.204 267.106L230.206 267.114L230.21 267.122L230.674 266.936ZM228.914 295.092L228.5 294.812L228.494 294.82L228.914 295.092ZM215.814 305.846L216.021 306.301L216.025 306.299L215.814 305.846ZM176.709 307.41L176.843 306.928L176.835 306.926L176.709 307.41ZM163.217 299.785L162.851 300.125L162.858 300.132L163.217 299.785ZM161.849 272.411L162.253 272.706L162.26 272.696L161.849 272.411ZM181.988 296.07L181.525 295.881L181.522 295.888L181.519 295.896L181.988 296.07ZM178.44 304.729C179.513 305.265 180.59 305.67 181.671 305.94L181.914 304.97C180.909 304.719 179.901 304.341 178.888 303.834L178.44 304.729ZM181.737 305.952C182.93 306.084 184.187 306.15 185.507 306.15V305.15C184.22 305.15 183.001 305.086 181.848 304.958L181.737 305.952ZM185.507 306.15C189.667 306.15 193.123 304.804 195.833 302.093L195.126 301.386C192.622 303.89 189.43 305.15 185.507 305.15V306.15ZM195.833 302.093C198.681 299.246 200.085 295.46 200.085 290.79H199.085C199.085 295.246 197.753 298.759 195.126 301.386L195.833 302.093ZM200.085 290.79C200.085 286.279 199.024 281.584 196.916 276.71L195.998 277.107C198.061 281.878 199.085 286.438 199.085 290.79H200.085ZM196.916 276.71C194.818 271.858 192.067 266.751 188.667 261.389L187.823 261.925C191.2 267.251 193.925 272.312 195.998 277.107L196.916 276.71ZM188.671 261.395C185.547 256.319 182.815 251.57 180.475 247.15L179.591 247.618C181.943 252.061 184.686 256.828 187.819 261.919L188.671 261.395ZM180.477 247.155C178.17 242.668 177.013 237.729 177.013 232.328H176.013C176.013 237.877 177.203 242.975 179.588 247.612L180.477 247.155ZM177.013 232.328C177.013 226.813 178.423 221.89 181.235 217.544L180.395 217.001C177.472 221.519 176.013 226.633 176.013 232.328H177.013ZM181.235 217.544C184.041 213.207 188.261 209.745 193.926 207.169L193.513 206.259C187.707 208.898 183.324 212.474 180.395 217.001L181.235 217.544ZM193.926 207.169C199.577 204.601 206.735 203.304 215.423 203.304V202.304C206.644 202.304 199.333 203.613 193.513 206.259L193.926 207.169ZM215.423 203.304C220.858 203.304 226.095 203.951 231.136 205.243L231.385 204.275C226.259 202.96 220.938 202.304 215.423 202.304V203.304ZM231.139 205.244C236.28 206.529 240.431 208.771 243.616 211.956L244.323 211.249C240.99 207.916 236.669 205.596 231.382 204.274L231.139 205.244ZM243.63 211.97C246.889 214.977 248.553 219.388 248.553 225.289H249.553C249.553 219.198 247.829 214.484 244.309 211.235L243.63 211.97ZM248.553 225.289C248.553 227.828 248.046 230.44 247.022 233.128L247.956 233.484C249.018 230.697 249.553 227.964 249.553 225.289H248.553ZM247.022 233.128C246.006 235.793 244.488 238.005 242.467 239.773L243.126 240.525C245.276 238.644 246.886 236.293 247.956 233.484L247.022 233.128ZM242.469 239.771C240.623 241.371 238.205 242.191 235.171 242.191V243.191C238.393 243.191 241.06 242.316 243.124 240.527L242.469 239.771ZM235.171 242.191C231.41 242.191 228.5 240.76 226.383 237.897L225.579 238.491C227.895 241.624 231.111 243.191 235.171 243.191V242.191ZM226.389 237.905C224.247 234.881 223.157 231.013 223.157 226.267H222.157C222.157 231.166 223.284 235.25 225.573 238.483L226.389 237.905ZM223.157 226.267C223.157 222.148 223.801 218.497 225.077 215.308L224.148 214.936C222.817 218.264 222.157 222.044 222.157 226.267H223.157ZM225.07 215.323C226.495 212.085 227.902 209.731 229.283 208.225L228.546 207.55C227.058 209.172 225.598 211.641 224.155 214.921L225.07 215.323ZM229.138 207.44C227.988 206.865 226.262 206.605 224.026 206.605V207.605C226.222 207.605 227.755 207.867 228.691 208.335L229.138 207.44ZM224.026 206.605C219.367 206.605 215.759 207.94 213.291 210.681L214.035 211.35C216.26 208.878 219.56 207.605 224.026 207.605V206.605ZM213.282 210.692C210.965 213.418 209.776 217.325 209.644 222.343L210.643 222.369C210.772 217.481 211.929 213.828 214.044 211.34L213.282 210.692ZM209.644 222.356C209.644 225.286 210.176 228.274 211.236 231.319L212.18 230.991C211.154 228.04 210.644 225.162 210.644 222.356H209.644ZM211.245 231.344C212.429 234.239 213.941 237.196 215.778 240.214L216.632 239.694C214.819 236.715 213.333 233.806 212.171 230.966L211.245 231.344ZM215.783 240.222C217.604 243.084 219.426 246.077 221.248 249.2L222.112 248.696C220.284 245.562 218.455 242.559 216.627 239.685L215.783 240.222ZM221.249 249.202C225.544 256.49 228.524 262.456 230.204 267.106L231.144 266.766C229.434 262.031 226.419 256.005 222.11 248.694L221.249 249.202ZM230.21 267.122C232.013 271.632 232.911 276.066 232.911 280.428H233.911C233.911 275.925 232.984 271.365 231.138 266.751L230.21 267.122ZM232.911 280.428C232.911 285.672 231.442 290.462 228.5 294.812L229.328 295.372C232.382 290.858 233.911 285.872 233.911 280.428H232.911ZM228.494 294.82C225.688 299.157 221.402 302.686 215.602 305.393L216.025 306.299C221.957 303.531 226.405 299.891 229.334 295.364L228.494 294.82ZM215.607 305.391C209.956 307.959 202.862 309.256 194.306 309.256V310.256C202.956 310.256 210.201 308.946 216.021 306.301L215.607 305.391ZM194.306 309.256C188.223 309.256 182.402 308.48 176.843 306.928L176.574 307.892C182.225 309.469 188.137 310.256 194.306 310.256V309.256ZM176.835 306.926C171.439 305.513 167.026 303.014 163.577 299.438L162.858 300.132C166.448 303.855 171.029 306.439 176.582 307.894L176.835 306.926ZM163.584 299.444C160.303 295.911 158.634 291.027 158.634 284.729H157.634C157.634 291.206 159.354 296.359 162.851 300.125L163.584 299.444ZM158.634 284.729C158.634 279.996 159.847 275.997 162.252 272.706L161.445 272.116C158.897 275.603 157.634 279.816 157.634 284.729H158.634ZM162.26 272.696C164.515 269.438 167.557 267.827 171.43 267.827V266.827C167.221 266.827 163.875 268.606 161.438 272.126L162.26 272.696ZM171.43 267.827C175.046 267.827 177.964 269.312 180.219 272.32L181.019 271.72C178.582 268.471 175.373 266.827 171.43 266.827V267.827ZM180.219 272.32C182.482 275.337 183.639 279.392 183.639 284.534H184.639C184.639 279.247 183.449 274.96 181.019 271.72L180.219 272.32ZM183.639 284.534C183.639 288.646 182.932 292.427 181.525 295.881L182.451 296.258C183.912 292.673 184.639 288.763 184.639 284.534H183.639ZM181.519 295.896C180.217 299.41 179.115 302.133 178.211 304.07L179.117 304.493C180.038 302.52 181.151 299.768 182.457 296.243L181.519 295.896Z" fill="#6C6456" mask="url(#path-1-outside-1_1_198)"/>
</svg>
