<svg width="214" height="172" viewBox="0 0 214 172" fill="none" xmlns="http://www.w3.org/2000/svg">
<mask id="path-1-outside-1_267_91" maskUnits="userSpaceOnUse" x="-1" y="-1" width="216" height="174" fill="black">
<rect fill="white" x="-1" y="-1" width="216" height="174"/>
<path d="M129.925 119.586C128.844 122.057 126.991 124.76 124.366 127.694C121.895 130.473 118.652 132.867 114.637 134.875C110.622 136.728 105.912 137.654 100.506 137.654C95.7192 137.654 91.009 136.728 86.3761 134.875C81.8976 132.867 78.1913 129.779 75.2571 125.609C72.323 121.285 70.8559 115.725 70.8559 108.93C70.8559 99.3558 74.2534 90.9393 81.0483 83.6811C87.9976 76.2684 98.5761 70.4001 112.784 66.0761C117.88 64.5318 122.976 62.9874 128.072 61.4431C133.168 59.8988 138.265 58.3545 143.361 56.8102C148.612 55.2659 153.785 53.7216 158.881 52.1773C163.977 50.633 169.074 49.0887 174.17 47.5444C178.494 46.1545 183.049 44.6102 187.837 42.9115C192.624 41.2128 196.717 38.8963 200.114 35.9622C203.511 32.8736 205.21 28.7039 205.21 23.4533C205.21 17.4305 202.971 12.7976 198.492 9.55459C194.014 6.31156 188.609 4.69004 182.277 4.69004C179.806 4.69004 177.722 4.9989 176.023 5.61662C180.501 7.31535 183.822 9.6318 185.984 12.566C188.3 15.3457 189.458 18.5888 189.458 22.2951C189.458 26.3103 188.223 29.7849 185.752 32.7191C183.436 35.6533 180.424 37.8925 176.718 39.4368C173.011 40.8267 169.151 41.5217 165.136 41.5217C158.958 41.5217 153.862 39.8229 149.847 36.4255C145.986 33.028 144.056 28.7039 144.056 23.4533C144.056 18.666 145.523 14.6508 148.457 11.4077C151.546 8.16472 155.484 5.69384 160.271 3.99511C163.668 2.60524 167.22 1.75587 170.927 1.447C174.787 0.983708 177.953 0.752061 180.424 0.752061C186.601 0.752061 192.161 1.83308 197.103 3.99511C202.199 6.00269 206.214 9.47737 209.148 14.4191C212.082 19.2065 213.549 25.9242 213.549 34.5723C213.549 44.6102 211.387 52.9495 207.063 59.59C202.894 66.2305 196.717 71.79 188.532 76.2684C180.501 80.7469 170.695 84.7621 159.113 88.314C154.789 89.7039 150.465 91.0938 146.141 92.4836C141.817 93.7191 137.415 94.9545 132.937 96.1899C128.613 97.4254 124.289 98.738 119.965 100.128C115.641 101.363 111.317 102.676 106.993 104.066C102.36 105.456 98.5761 107 95.6419 108.699C92.7078 110.398 90.5457 112.328 89.1559 114.49C87.766 116.652 87.0711 119.046 87.0711 121.671C87.0711 125.995 88.6154 128.929 91.704 130.473C94.7926 132.018 98.0356 132.79 101.433 132.79C105.912 132.79 109.772 132.018 113.015 130.473C116.413 128.775 119.193 126.767 121.355 124.451C123.517 122.134 125.061 119.972 125.987 117.965L129.925 119.586ZM105.834 34.109C109.077 34.109 111.78 33.1052 113.942 31.0976C116.258 29.09 117.417 26.6191 117.417 23.685C117.417 21.0596 116.258 18.8976 113.942 17.1989C111.78 15.5002 108.691 14.6508 104.676 14.6508C99.7343 14.6508 94.8698 15.9634 90.0824 18.5888C85.4495 21.2141 81.5888 24.9204 78.5002 29.7077C75.566 34.4951 74.0989 40.1318 74.0989 46.6178C74.0989 47.6989 74.1761 48.8571 74.3306 50.0925C74.485 51.1735 74.6394 52.3318 74.7939 53.5672C77.5736 53.1039 80.3533 52.7951 83.1331 52.6406C85.9128 52.3318 87.9976 52.1773 89.3875 52.1773C94.947 52.1773 97.7267 53.7989 97.7267 57.0419C97.7267 58.7406 96.9546 59.9761 95.4103 60.7482C93.866 61.5204 92.2445 61.9064 90.5457 61.9064C87.6116 61.9064 84.6002 61.2887 81.5116 60.0533C78.5774 58.6634 76.2609 57.5824 74.5622 56.8102C70.0837 58.8178 65.9913 62.2925 62.285 67.2343C58.7331 72.176 55.8762 78.0444 53.7141 84.8393C51.7065 91.4798 50.7027 98.5836 50.7027 106.151C50.7027 115.725 52.5559 123.756 56.2622 130.242C59.9686 136.573 65.4508 141.361 72.709 144.604C79.9673 147.847 88.847 149.468 99.3483 149.468C106.606 149.468 113.787 148.696 120.891 147.152C128.149 145.453 134.713 142.905 140.581 139.508C146.449 136.11 151.16 131.709 154.711 126.304C158.418 120.744 160.271 114.104 160.271 106.382C160.271 100.514 158.881 94.8773 156.101 89.4722C153.322 84.0672 148.148 79.8203 140.581 76.7317L143.129 74.1836C150.233 76.9634 155.638 81.3646 159.344 87.3874C163.205 93.4102 165.136 100.282 165.136 108.004C165.136 115.108 163.36 122.366 159.808 129.779C156.41 137.191 151.082 144.063 143.824 150.395C136.72 156.572 127.609 161.591 116.49 165.452C105.371 169.313 92.1673 171.243 76.8787 171.243C62.8255 171.243 50.0078 169.39 38.4255 165.684C26.9977 161.823 17.8863 156.032 11.0914 148.31C4.29646 140.589 0.898995 130.86 0.898995 119.123C0.898995 108.622 3.67874 99.0469 9.23823 90.3988C14.9521 81.5963 23.0597 74.1836 33.561 68.1609C44.2167 61.9837 56.8799 57.5824 71.5508 54.9571C63.366 52.7951 57.4205 49.6292 53.7141 45.4596C50.1622 41.29 48.3863 36.8115 48.3863 32.0242C48.3863 26.0014 50.5483 21.0596 54.8724 17.1989C59.3508 13.1837 64.9875 10.2495 71.7825 8.39637C78.5774 6.38877 85.6812 5.38498 93.0938 5.38498C103.595 5.38498 111.162 7.08371 115.795 10.4812C120.428 13.7242 122.744 17.8938 122.744 22.99C122.744 28.2406 120.814 32.1014 116.953 34.5723C113.247 37.0432 109.618 38.2786 106.066 38.2786L105.834 34.109Z"/>
</mask>
<path d="M129.925 119.586L131.208 120.147L131.782 118.836L130.458 118.292L129.925 119.586ZM124.366 127.694L123.323 126.76L123.32 126.764L124.366 127.694ZM114.637 134.875L115.224 136.146L115.243 136.137L115.263 136.127L114.637 134.875ZM86.3761 134.875L85.8034 136.152L85.8296 136.164L85.8562 136.175L86.3761 134.875ZM75.2571 125.609L74.0987 126.395L74.1054 126.405L74.1122 126.415L75.2571 125.609ZM81.0483 83.6811L80.0269 82.7236L80.0263 82.7243L81.0483 83.6811ZM112.784 66.0761L112.378 64.7362L112.376 64.7367L112.784 66.0761ZM128.072 61.4431L128.478 62.783L128.478 62.783L128.072 61.4431ZM143.361 56.8102L142.966 55.4671L142.955 55.4704L143.361 56.8102ZM158.881 52.1773L159.287 53.5172L159.287 53.5172L158.881 52.1773ZM174.17 47.5444L174.576 48.8843L174.587 48.8809L174.598 48.8773L174.17 47.5444ZM200.114 35.9622L201.029 37.0217L201.043 37.0101L201.056 36.9981L200.114 35.9622ZM198.492 9.55459L197.671 10.6885L197.671 10.6885L198.492 9.55459ZM176.023 5.61662L175.544 4.30091L172.002 5.58893L175.526 6.92562L176.023 5.61662ZM185.984 12.566L184.857 13.3965L184.881 13.4301L184.908 13.4622L185.984 12.566ZM185.752 32.7191L184.681 31.8173L184.667 31.8343L184.653 31.8516L185.752 32.7191ZM176.718 39.4368L177.209 40.7477L177.233 40.7388L177.256 40.7292L176.718 39.4368ZM149.847 36.4255L148.922 37.4764L148.932 37.4854L148.943 37.4942L149.847 36.4255ZM148.457 11.4077L147.443 10.4422L147.431 10.4552L147.419 10.4685L148.457 11.4077ZM160.271 3.99511L160.739 5.31451L160.77 5.30342L160.801 5.29087L160.271 3.99511ZM170.927 1.447L171.043 2.84217L171.068 2.84006L171.093 2.83703L170.927 1.447ZM197.103 3.99511L196.541 5.27773L196.565 5.28815L196.589 5.29768L197.103 3.99511ZM209.148 14.4191L207.944 15.1339L207.949 15.1423L207.955 15.1507L209.148 14.4191ZM207.063 59.59L205.89 58.826L205.884 58.8357L205.878 58.8455L207.063 59.59ZM188.532 76.2684L187.86 75.0402L187.85 75.0457L188.532 76.2684ZM159.113 88.314L158.702 86.9755L158.693 86.9783L158.684 86.9812L159.113 88.314ZM146.141 92.4836L146.525 93.8298L146.547 93.8235L146.569 93.8165L146.141 92.4836ZM132.937 96.1899L132.565 94.8403L132.552 94.8438L132.937 96.1899ZM119.965 100.128L120.349 101.474L120.371 101.468L120.393 101.461L119.965 100.128ZM106.993 104.066L107.395 105.407L107.408 105.403L107.421 105.399L106.993 104.066ZM95.6419 108.699L94.9405 107.487L94.9405 107.487L95.6419 108.699ZM91.704 130.473L91.0779 131.726L91.0779 131.726L91.704 130.473ZM113.015 130.473L113.617 131.737L113.629 131.732L113.641 131.726L113.015 130.473ZM125.987 117.965L126.521 116.67L125.279 116.159L124.716 117.378L125.987 117.965ZM105.834 34.109V32.709H104.354L104.436 34.1867L105.834 34.109ZM113.942 31.0976L113.025 30.0396L113.007 30.0554L112.989 30.0717L113.942 31.0976ZM113.942 17.1989L113.077 18.2997L113.095 18.3141L113.114 18.3279L113.942 17.1989ZM90.0824 18.5888L89.4093 17.3612L89.4007 17.3659L89.3922 17.3707L90.0824 18.5888ZM78.5002 29.7077L77.3238 28.9488L77.315 28.9624L77.3065 28.9762L78.5002 29.7077ZM74.3306 50.0925L72.9414 50.2662L72.9429 50.2784L72.9446 50.2905L74.3306 50.0925ZM74.7939 53.5672L73.4047 53.7409L73.5855 55.1879L75.024 54.9482L74.7939 53.5672ZM83.1331 52.6406L83.2107 54.0385L83.2493 54.0363L83.2877 54.0321L83.1331 52.6406ZM81.5116 60.0533L80.9123 61.3185L80.9514 61.3371L80.9916 61.3531L81.5116 60.0533ZM74.5622 56.8102L75.1415 55.5357L74.5662 55.2742L73.9895 55.5327L74.5622 56.8102ZM62.285 67.2343L61.165 66.3943L61.1565 66.4056L61.1482 66.4172L62.285 67.2343ZM53.7141 84.8393L52.38 84.4148L52.377 84.4245L52.374 84.4342L53.7141 84.8393ZM56.2622 130.242L55.0467 130.936L55.0503 130.943L55.054 130.949L56.2622 130.242ZM72.709 144.604L72.1379 145.882L72.1379 145.882L72.709 144.604ZM120.891 147.152L121.189 148.52L121.2 148.518L121.21 148.515L120.891 147.152ZM140.581 139.508L141.283 140.719L141.283 140.719L140.581 139.508ZM154.711 126.304L153.547 125.527L153.542 125.535L154.711 126.304ZM140.581 76.7317L139.591 75.7418L138.101 77.2317L140.052 78.0279L140.581 76.7317ZM143.129 74.1836L143.639 72.8799L142.787 72.5462L142.139 73.1937L143.129 74.1836ZM159.344 87.3874L158.152 88.1212L158.159 88.1321L158.166 88.143L159.344 87.3874ZM159.808 129.779L158.545 129.174L158.54 129.184L158.535 129.195L159.808 129.779ZM143.824 150.395L144.743 151.451L144.744 151.45L143.824 150.395ZM116.49 165.452L116.031 164.129L116.031 164.129L116.49 165.452ZM38.4255 165.684L37.9774 167.01L37.9881 167.014L37.9989 167.017L38.4255 165.684ZM11.0914 148.31L10.0404 149.235L10.0404 149.235L11.0914 148.31ZM9.23823 90.3988L8.06392 89.6365L8.06058 89.6418L9.23823 90.3988ZM33.561 68.1609L34.2575 69.3753L34.2631 69.3721L33.561 68.1609ZM71.5508 54.9571L71.7974 56.3352L71.9084 53.6035L71.5508 54.9571ZM53.7141 45.4596L52.6484 46.3675L52.658 46.3787L52.6678 46.3897L53.7141 45.4596ZM54.8724 17.1989L55.8048 18.2432L55.8069 18.2413L54.8724 17.1989ZM71.7825 8.39637L72.1508 9.74704L72.165 9.74316L72.1792 9.73899L71.7825 8.39637ZM115.795 10.4812L114.967 11.6101L114.98 11.6193L114.992 11.6281L115.795 10.4812ZM116.953 34.5723L116.199 33.3931L116.188 33.4002L116.177 33.4074L116.953 34.5723ZM106.066 38.2786L104.668 38.3563L104.742 39.6786H106.066V38.2786ZM128.643 119.025C127.642 121.313 125.89 123.891 123.323 126.76L125.409 128.627C128.092 125.628 130.047 122.801 131.208 120.147L128.643 119.025ZM123.32 126.764C120.989 129.386 117.899 131.679 114.011 133.623L115.263 136.127C119.405 134.056 122.801 131.561 125.412 128.624L123.32 126.764ZM114.05 133.604C110.255 135.355 105.753 136.254 100.506 136.254V139.054C106.07 139.054 110.988 138.101 115.224 136.146L114.05 133.604ZM100.506 136.254C95.9048 136.254 91.3707 135.365 86.8961 133.575L85.8562 136.175C90.6473 138.091 95.5335 139.054 100.506 139.054V136.254ZM86.9488 133.597C82.7092 131.697 79.1973 128.775 76.4021 124.803L74.1122 126.415C77.1854 130.782 81.0861 134.038 85.8034 136.152L86.9488 133.597ZM76.4156 124.823C73.6799 120.791 72.2559 115.528 72.2559 108.93H69.4559C69.4559 115.922 70.966 121.778 74.0987 126.395L76.4156 124.823ZM72.2559 108.93C72.2559 99.7259 75.5079 91.6477 82.0703 84.6379L80.0263 82.7243C72.9988 90.2309 69.4559 98.9856 69.4559 108.93H72.2559ZM82.0696 84.6386C88.7914 77.4687 99.117 71.6989 113.191 67.4154L112.376 64.7367C98.0352 69.1013 87.2039 75.0682 80.0269 82.7236L82.0696 84.6386ZM113.19 67.4159C113.2 67.4129 113.21 67.4099 113.22 67.4068C113.23 67.4038 113.239 67.4008 113.249 67.3978C113.259 67.3948 113.269 67.3918 113.279 67.3887C113.289 67.3857 113.299 67.3827 113.309 67.3797C113.319 67.3767 113.329 67.3737 113.339 67.3706C113.349 67.3676 113.359 67.3646 113.369 67.3616C113.379 67.3586 113.389 67.3556 113.399 67.3525C113.409 67.3495 113.419 67.3465 113.429 67.3435C113.439 67.3405 113.448 67.3375 113.458 67.3344C113.468 67.3314 113.478 67.3284 113.488 67.3254C113.498 67.3224 113.508 67.3194 113.518 67.3163C113.528 67.3133 113.538 67.3103 113.548 67.3073C113.558 67.3043 113.568 67.3013 113.578 67.2983C113.588 67.2952 113.598 67.2922 113.608 67.2892C113.618 67.2862 113.628 67.2832 113.638 67.2802C113.648 67.2771 113.658 67.2741 113.667 67.2711C113.677 67.2681 113.687 67.2651 113.697 67.2621C113.707 67.259 113.717 67.256 113.727 67.253C113.737 67.25 113.747 67.247 113.757 67.244C113.767 67.2409 113.777 67.2379 113.787 67.2349C113.797 67.2319 113.807 67.2289 113.817 67.2259C113.827 67.2228 113.837 67.2198 113.847 67.2168C113.857 67.2138 113.867 67.2108 113.876 67.2078C113.886 67.2048 113.896 67.2017 113.906 67.1987C113.916 67.1957 113.926 67.1927 113.936 67.1897C113.946 67.1867 113.956 67.1836 113.966 67.1806C113.976 67.1776 113.986 67.1746 113.996 67.1716C114.006 67.1686 114.016 67.1655 114.026 67.1625C114.036 67.1595 114.046 67.1565 114.056 67.1535C114.066 67.1505 114.076 67.1474 114.086 67.1444C114.095 67.1414 114.105 67.1384 114.115 67.1354C114.125 67.1324 114.135 67.1293 114.145 67.1263C114.155 67.1233 114.165 67.1203 114.175 67.1173C114.185 67.1143 114.195 67.1112 114.205 67.1082C114.215 67.1052 114.225 67.1022 114.235 67.0992C114.245 67.0962 114.255 67.0932 114.265 67.0901C114.275 67.0871 114.285 67.0841 114.295 67.0811C114.304 67.0781 114.314 67.0751 114.324 67.072C114.334 67.069 114.344 67.066 114.354 67.063C114.364 67.06 114.374 67.057 114.384 67.0539C114.394 67.0509 114.404 67.0479 114.414 67.0449C114.424 67.0419 114.434 67.0389 114.444 67.0358C114.454 67.0328 114.464 67.0298 114.474 67.0268C114.484 67.0238 114.494 67.0208 114.504 67.0177C114.514 67.0147 114.523 67.0117 114.533 67.0087C114.543 67.0057 114.553 67.0027 114.563 66.9996C114.573 66.9966 114.583 66.9936 114.593 66.9906C114.603 66.9876 114.613 66.9846 114.623 66.9816C114.633 66.9785 114.643 66.9755 114.653 66.9725C114.663 66.9695 114.673 66.9665 114.683 66.9635C114.693 66.9604 114.703 66.9574 114.713 66.9544C114.723 66.9514 114.732 66.9484 114.742 66.9454C114.752 66.9423 114.762 66.9393 114.772 66.9363C114.782 66.9333 114.792 66.9303 114.802 66.9273C114.812 66.9242 114.822 66.9212 114.832 66.9182C114.842 66.9152 114.852 66.9122 114.862 66.9092C114.872 66.9061 114.882 66.9031 114.892 66.9001C114.902 66.8971 114.912 66.8941 114.922 66.8911C114.932 66.888 114.942 66.885 114.951 66.882C114.961 66.879 114.971 66.876 114.981 66.873C114.991 66.87 115.001 66.8669 115.011 66.8639C115.021 66.8609 115.031 66.8579 115.041 66.8549C115.051 66.8519 115.061 66.8488 115.071 66.8458C115.081 66.8428 115.091 66.8398 115.101 66.8368C115.111 66.8338 115.121 66.8307 115.131 66.8277C115.141 66.8247 115.151 66.8217 115.161 66.8187C115.17 66.8157 115.18 66.8126 115.19 66.8096C115.2 66.8066 115.21 66.8036 115.22 66.8006C115.23 66.7976 115.24 66.7945 115.25 66.7915C115.26 66.7885 115.27 66.7855 115.28 66.7825C115.29 66.7795 115.3 66.7764 115.31 66.7734C115.32 66.7704 115.33 66.7674 115.34 66.7644C115.35 66.7614 115.36 66.7584 115.37 66.7553C115.379 66.7523 115.389 66.7493 115.399 66.7463C115.409 66.7433 115.419 66.7403 115.429 66.7372C115.439 66.7342 115.449 66.7312 115.459 66.7282C115.469 66.7252 115.479 66.7222 115.489 66.7191C115.499 66.7161 115.509 66.7131 115.519 66.7101C115.529 66.7071 115.539 66.7041 115.549 66.701C115.559 66.698 115.569 66.695 115.579 66.692C115.589 66.689 115.598 66.686 115.608 66.6829C115.618 66.6799 115.628 66.6769 115.638 66.6739C115.648 66.6709 115.658 66.6679 115.668 66.6648C115.678 66.6618 115.688 66.6588 115.698 66.6558C115.708 66.6528 115.718 66.6498 115.728 66.6468C115.738 66.6437 115.748 66.6407 115.758 66.6377C115.768 66.6347 115.778 66.6317 115.788 66.6287C115.798 66.6256 115.807 66.6226 115.817 66.6196C115.827 66.6166 115.837 66.6136 115.847 66.6106C115.857 66.6075 115.867 66.6045 115.877 66.6015C115.887 66.5985 115.897 66.5955 115.907 66.5925C115.917 66.5894 115.927 66.5864 115.937 66.5834C115.947 66.5804 115.957 66.5774 115.967 66.5744C115.977 66.5713 115.987 66.5683 115.997 66.5653C116.007 66.5623 116.017 66.5593 116.026 66.5563C116.036 66.5532 116.046 66.5502 116.056 66.5472C116.066 66.5442 116.076 66.5412 116.086 66.5382C116.096 66.5352 116.106 66.5321 116.116 66.5291C116.126 66.5261 116.136 66.5231 116.146 66.5201C116.156 66.5171 116.166 66.514 116.176 66.511C116.186 66.508 116.196 66.505 116.206 66.502C116.216 66.499 116.226 66.4959 116.235 66.4929C116.245 66.4899 116.255 66.4869 116.265 66.4839C116.275 66.4809 116.285 66.4778 116.295 66.4748C116.305 66.4718 116.315 66.4688 116.325 66.4658C116.335 66.4628 116.345 66.4597 116.355 66.4567C116.365 66.4537 116.375 66.4507 116.385 66.4477C116.395 66.4447 116.405 66.4416 116.415 66.4386C116.425 66.4356 116.435 66.4326 116.445 66.4296C116.454 66.4266 116.464 66.4236 116.474 66.4205C116.484 66.4175 116.494 66.4145 116.504 66.4115C116.514 66.4085 116.524 66.4055 116.534 66.4024C116.544 66.3994 116.554 66.3964 116.564 66.3934C116.574 66.3904 116.584 66.3874 116.594 66.3843C116.604 66.3813 116.614 66.3783 116.624 66.3753C116.634 66.3723 116.644 66.3693 116.654 66.3662C116.663 66.3632 116.673 66.3602 116.683 66.3572C116.693 66.3542 116.703 66.3512 116.713 66.3481C116.723 66.3451 116.733 66.3421 116.743 66.3391C116.753 66.3361 116.763 66.3331 116.773 66.33C116.783 66.327 116.793 66.324 116.803 66.321C116.813 66.318 116.823 66.315 116.833 66.312C116.843 66.3089 116.853 66.3059 116.863 66.3029C116.873 66.2999 116.882 66.2969 116.892 66.2939C116.902 66.2908 116.912 66.2878 116.922 66.2848C116.932 66.2818 116.942 66.2788 116.952 66.2758C116.962 66.2727 116.972 66.2697 116.982 66.2667C116.992 66.2637 117.002 66.2607 117.012 66.2577C117.022 66.2546 117.032 66.2516 117.042 66.2486C117.052 66.2456 117.062 66.2426 117.072 66.2396C117.082 66.2365 117.091 66.2335 117.101 66.2305C117.111 66.2275 117.121 66.2245 117.131 66.2215C117.141 66.2184 117.151 66.2154 117.161 66.2124C117.171 66.2094 117.181 66.2064 117.191 66.2034C117.201 66.2004 117.211 66.1973 117.221 66.1943C117.231 66.1913 117.241 66.1883 117.251 66.1853C117.261 66.1823 117.271 66.1792 117.281 66.1762C117.291 66.1732 117.301 66.1702 117.31 66.1672C117.32 66.1642 117.33 66.1611 117.34 66.1581C117.35 66.1551 117.36 66.1521 117.37 66.1491C117.38 66.1461 117.39 66.143 117.4 66.14C117.41 66.137 117.42 66.134 117.43 66.131C117.44 66.128 117.45 66.1249 117.46 66.1219C117.47 66.1189 117.48 66.1159 117.49 66.1129C117.5 66.1099 117.51 66.1068 117.519 66.1038C117.529 66.1008 117.539 66.0978 117.549 66.0948C117.559 66.0918 117.569 66.0888 117.579 66.0857C117.589 66.0827 117.599 66.0797 117.609 66.0767C117.619 66.0737 117.629 66.0707 117.639 66.0676C117.649 66.0646 117.659 66.0616 117.669 66.0586C117.679 66.0556 117.689 66.0526 117.699 66.0495C117.709 66.0465 117.719 66.0435 117.729 66.0405C117.738 66.0375 117.748 66.0345 117.758 66.0314C117.768 66.0284 117.778 66.0254 117.788 66.0224C117.798 66.0194 117.808 66.0164 117.818 66.0133C117.828 66.0103 117.838 66.0073 117.848 66.0043C117.858 66.0013 117.868 65.9983 117.878 65.9952C117.888 65.9922 117.898 65.9892 117.908 65.9862C117.918 65.9832 117.928 65.9802 117.938 65.9772C117.947 65.9741 117.957 65.9711 117.967 65.9681C117.977 65.9651 117.987 65.9621 117.997 65.9591C118.007 65.956 118.017 65.953 118.027 65.95C118.037 65.947 118.047 65.944 118.057 65.941C118.067 65.9379 118.077 65.9349 118.087 65.9319C118.097 65.9289 118.107 65.9259 118.117 65.9229C118.127 65.9198 118.137 65.9168 118.147 65.9138C118.157 65.9108 118.166 65.9078 118.176 65.9048C118.186 65.9017 118.196 65.8987 118.206 65.8957C118.216 65.8927 118.226 65.8897 118.236 65.8867C118.246 65.8836 118.256 65.8806 118.266 65.8776C118.276 65.8746 118.286 65.8716 118.296 65.8686C118.306 65.8656 118.316 65.8625 118.326 65.8595C118.336 65.8565 118.346 65.8535 118.356 65.8505C118.366 65.8475 118.375 65.8444 118.385 65.8414C118.395 65.8384 118.405 65.8354 118.415 65.8324C118.425 65.8294 118.435 65.8263 118.445 65.8233C118.455 65.8203 118.465 65.8173 118.475 65.8143C118.485 65.8113 118.495 65.8082 118.505 65.8052C118.515 65.8022 118.525 65.7992 118.535 65.7962C118.545 65.7932 118.555 65.7901 118.565 65.7871C118.575 65.7841 118.585 65.7811 118.594 65.7781C118.604 65.7751 118.614 65.772 118.624 65.769C118.634 65.766 118.644 65.763 118.654 65.76C118.664 65.757 118.674 65.754 118.684 65.7509C118.694 65.7479 118.704 65.7449 118.714 65.7419C118.724 65.7389 118.734 65.7359 118.744 65.7328C118.754 65.7298 118.764 65.7268 118.774 65.7238C118.784 65.7208 118.794 65.7178 118.803 65.7147C118.813 65.7117 118.823 65.7087 118.833 65.7057C118.843 65.7027 118.853 65.6997 118.863 65.6966C118.873 65.6936 118.883 65.6906 118.893 65.6876C118.903 65.6846 118.913 65.6816 118.923 65.6785C118.933 65.6755 118.943 65.6725 118.953 65.6695C118.963 65.6665 118.973 65.6635 118.983 65.6604C118.993 65.6574 119.003 65.6544 119.013 65.6514C119.022 65.6484 119.032 65.6454 119.042 65.6424C119.052 65.6393 119.062 65.6363 119.072 65.6333C119.082 65.6303 119.092 65.6273 119.102 65.6243C119.112 65.6212 119.122 65.6182 119.132 65.6152C119.142 65.6122 119.152 65.6092 119.162 65.6062C119.172 65.6031 119.182 65.6001 119.192 65.5971C119.202 65.5941 119.212 65.5911 119.222 65.5881C119.231 65.585 119.241 65.582 119.251 65.579C119.261 65.576 119.271 65.573 119.281 65.57C119.291 65.5669 119.301 65.5639 119.311 65.5609C119.321 65.5579 119.331 65.5549 119.341 65.5519C119.351 65.5488 119.361 65.5458 119.371 65.5428C119.381 65.5398 119.391 65.5368 119.401 65.5338C119.411 65.5308 119.421 65.5277 119.431 65.5247C119.441 65.5217 119.45 65.5187 119.46 65.5157C119.47 65.5127 119.48 65.5096 119.49 65.5066C119.5 65.5036 119.51 65.5006 119.52 65.4976C119.53 65.4946 119.54 65.4915 119.55 65.4885C119.56 65.4855 119.57 65.4825 119.58 65.4795C119.59 65.4765 119.6 65.4734 119.61 65.4704C119.62 65.4674 119.63 65.4644 119.64 65.4614C119.65 65.4584 119.659 65.4553 119.669 65.4523C119.679 65.4493 119.689 65.4463 119.699 65.4433C119.709 65.4403 119.719 65.4372 119.729 65.4342C119.739 65.4312 119.749 65.4282 119.759 65.4252C119.769 65.4222 119.779 65.4192 119.789 65.4161C119.799 65.4131 119.809 65.4101 119.819 65.4071C119.829 65.4041 119.839 65.4011 119.849 65.398C119.859 65.395 119.869 65.392 119.878 65.389C119.888 65.386 119.898 65.383 119.908 65.3799C119.918 65.3769 119.928 65.3739 119.938 65.3709C119.948 65.3679 119.958 65.3649 119.968 65.3618C119.978 65.3588 119.988 65.3558 119.998 65.3528C120.008 65.3498 120.018 65.3468 120.028 65.3437C120.038 65.3407 120.048 65.3377 120.058 65.3347C120.068 65.3317 120.078 65.3287 120.087 65.3256C120.097 65.3226 120.107 65.3196 120.117 65.3166C120.127 65.3136 120.137 65.3106 120.147 65.3076C120.157 65.3045 120.167 65.3015 120.177 65.2985C120.187 65.2955 120.197 65.2925 120.207 65.2895C120.217 65.2864 120.227 65.2834 120.237 65.2804C120.247 65.2774 120.257 65.2744 120.267 65.2714C120.277 65.2683 120.287 65.2653 120.297 65.2623C120.306 65.2593 120.316 65.2563 120.326 65.2533C120.336 65.2502 120.346 65.2472 120.356 65.2442C120.366 65.2412 120.376 65.2382 120.386 65.2352C120.396 65.2321 120.406 65.2291 120.416 65.2261C120.426 65.2231 120.436 65.2201 120.446 65.2171C120.456 65.2141 120.466 65.211 120.476 65.208C120.486 65.205 120.496 65.202 120.506 65.199C120.515 65.196 120.525 65.1929 120.535 65.1899C120.545 65.1869 120.555 65.1839 120.565 65.1809C120.575 65.1779 120.585 65.1748 120.595 65.1718C120.605 65.1688 120.615 65.1658 120.625 65.1628C120.635 65.1598 120.645 65.1567 120.655 65.1537C120.665 65.1507 120.675 65.1477 120.685 65.1447C120.695 65.1417 120.705 65.1386 120.715 65.1356C120.725 65.1326 120.734 65.1296 120.744 65.1266C120.754 65.1236 120.764 65.1205 120.774 65.1175C120.784 65.1145 120.794 65.1115 120.804 65.1085C120.814 65.1055 120.824 65.1025 120.834 65.0994C120.924 65.0721 120.863 65.0906 120.953 65.0632C121.044 65.0359 120.983 65.0544 121.073 65.027C121.163 64.9997 121.102 65.0182 121.192 64.9909C121.283 64.9635 121.222 64.982 121.312 64.9547C121.402 64.9273 121.341 64.9458 121.431 64.9185C121.521 64.8911 121.46 64.9096 121.551 64.8823C121.641 64.8549 121.58 64.8734 121.67 64.8461C121.76 64.8187 121.699 64.8372 121.79 64.8099C121.88 64.7825 121.819 64.801 121.909 64.7737C121.999 64.7463 121.938 64.7648 122.028 64.7375C122.119 64.7101 122.058 64.7286 122.148 64.7013C122.238 64.6739 122.177 64.6924 122.267 64.6651C122.358 64.6378 122.297 64.6563 122.387 64.6289C122.477 64.6016 122.416 64.6201 122.506 64.5927C122.596 64.5654 122.535 64.5839 122.626 64.5565C122.716 64.5292 122.655 64.5477 122.745 64.5203C122.835 64.493 122.774 64.5115 122.865 64.4841C122.955 64.4568 122.894 64.4753 122.984 64.4479C123.074 64.4206 123.013 64.4391 123.103 64.4117C123.194 64.3844 123.133 64.4029 123.223 64.3755C123.313 64.3482 123.252 64.3667 123.342 64.3393C123.352 64.3363 123.362 64.3333 123.372 64.3303C123.382 64.3273 123.392 64.3243 123.402 64.3213C123.412 64.3182 123.422 64.3152 123.432 64.3122C123.442 64.3092 123.452 64.3062 123.462 64.3032C123.472 64.3001 123.482 64.2971 123.492 64.2941C123.502 64.2911 123.511 64.2881 123.521 64.2851C123.531 64.282 123.541 64.279 123.551 64.276C123.561 64.273 123.571 64.27 123.581 64.267C123.591 64.2639 123.601 64.2609 123.611 64.2579C123.621 64.2549 123.631 64.2519 123.641 64.2489C123.651 64.2458 123.661 64.2428 123.671 64.2398C123.681 64.2368 123.691 64.2338 123.701 64.2308C123.711 64.2277 123.721 64.2247 123.73 64.2217C123.74 64.2187 123.75 64.2157 123.76 64.2127C123.77 64.2097 123.78 64.2066 123.79 64.2036C123.8 64.2006 123.81 64.1976 123.82 64.1946C123.83 64.1916 123.84 64.1885 123.85 64.1855C123.86 64.1825 123.87 64.1795 123.88 64.1765C123.89 64.1735 123.9 64.1704 123.91 64.1674C123.92 64.1644 123.93 64.1614 123.939 64.1584C123.966 64.1503 124.032 64.1302 124.059 64.1222C124.144 64.0964 124.093 64.1117 124.178 64.086C124.216 64.0747 124.38 64.0249 124.417 64.0136C124.454 64.0023 124.619 63.9525 124.656 63.9412C124.693 63.9299 124.858 63.8801 124.895 63.8688C124.932 63.8576 125.097 63.8077 125.134 63.7964C125.171 63.7852 125.336 63.7353 125.373 63.724C125.41 63.7128 125.575 63.6629 125.612 63.6517C125.649 63.6404 125.813 63.5905 125.851 63.5793C125.888 63.568 126.052 63.5181 126.089 63.5069C126.127 63.4956 126.291 63.4457 126.328 63.4345C126.365 63.4232 126.53 63.3734 126.567 63.3621C126.604 63.3508 126.769 63.301 126.806 63.2897C126.843 63.2784 127.008 63.2286 127.045 63.2173C127.082 63.2061 127.247 63.1562 127.284 63.1449C127.321 63.1337 127.486 63.0838 127.523 63.0725C127.56 63.0613 127.724 63.0114 127.762 63.0002C127.799 62.9889 127.963 62.939 128.001 62.9278C128.038 62.9165 128.202 62.8666 128.239 62.8554C128.277 62.8441 128.441 62.7942 128.478 62.783L127.666 60.1033C127.39 60.1869 126.987 60.3093 126.711 60.3929C126.435 60.4765 126.031 60.5988 125.755 60.6824C125.479 60.766 125.076 60.8884 124.8 60.972C124.524 61.0556 124.12 61.1779 123.844 61.2615C123.82 61.2688 123.808 61.2724 123.784 61.2796C123.761 61.2869 123.749 61.2905 123.725 61.2977C123.701 61.305 123.689 61.3086 123.665 61.3158C123.641 61.3231 123.629 61.3267 123.605 61.3339C123.568 61.3452 123.583 61.3408 123.546 61.352C123.535 61.3552 123.496 61.3669 123.486 61.3701C123.475 61.3733 123.437 61.385 123.426 61.3882C123.415 61.3914 123.377 61.4031 123.366 61.4063C123.356 61.4095 123.317 61.4212 123.307 61.4244C123.296 61.4276 123.258 61.4393 123.247 61.4425C123.236 61.4457 123.198 61.4574 123.187 61.4606C123.177 61.4636 123.167 61.4666 123.157 61.4697C123.147 61.4727 123.137 61.4757 123.127 61.4787C123.118 61.4817 123.108 61.4847 123.098 61.4878C123.088 61.4908 123.078 61.4938 123.068 61.4968C123.058 61.4998 123.048 61.5028 123.038 61.5059C123.028 61.5089 123.018 61.5119 123.008 61.5149C122.998 61.5179 122.988 61.5209 122.978 61.524C122.968 61.527 122.958 61.53 122.948 61.533C122.938 61.536 122.928 61.539 122.918 61.542C122.908 61.5451 122.899 61.5481 122.889 61.5511C122.879 61.5541 122.869 61.5571 122.859 61.5601C122.849 61.5632 122.839 61.5662 122.829 61.5692C122.819 61.5722 122.809 61.5752 122.799 61.5782C122.789 61.5813 122.779 61.5843 122.769 61.5873C122.759 61.5903 122.749 61.5933 122.739 61.5963C122.729 61.5994 122.719 61.6024 122.709 61.6054C122.699 61.6084 122.69 61.6114 122.68 61.6144C122.67 61.6175 122.66 61.6205 122.65 61.6235C122.613 61.6347 122.567 61.6484 122.53 61.6597C122.52 61.6627 122.51 61.6657 122.5 61.6687C122.49 61.6717 122.48 61.6748 122.471 61.6778C122.461 61.6808 122.451 61.6838 122.441 61.6868C122.431 61.6898 122.421 61.6929 122.411 61.6959C122.401 61.6989 122.391 61.7019 122.381 61.7049C122.371 61.7079 122.361 61.711 122.351 61.714C122.341 61.717 122.331 61.72 122.321 61.723C122.311 61.726 122.301 61.7291 122.291 61.7321C122.281 61.7351 122.271 61.7381 122.262 61.7411C122.252 61.7441 122.242 61.7472 122.232 61.7502C122.222 61.7532 122.212 61.7562 122.202 61.7592C122.192 61.7622 122.182 61.7652 122.172 61.7683C122.162 61.7713 122.152 61.7743 122.142 61.7773C122.132 61.7803 122.122 61.7833 122.112 61.7864C122.102 61.7894 122.092 61.7924 122.082 61.7954C122.072 61.7984 122.062 61.8014 122.052 61.8045C122.043 61.8075 122.033 61.8105 122.023 61.8135C122.013 61.8165 122.003 61.8195 121.993 61.8226C121.983 61.8256 121.973 61.8286 121.963 61.8316C121.953 61.8346 121.943 61.8376 121.933 61.8407C121.923 61.8437 121.913 61.8467 121.903 61.8497C121.893 61.8527 121.883 61.8557 121.873 61.8588C121.863 61.8618 121.853 61.8648 121.843 61.8678C121.834 61.8708 121.824 61.8738 121.814 61.8768C121.804 61.8799 121.794 61.8829 121.784 61.8859C121.774 61.8889 121.764 61.8919 121.754 61.8949C121.744 61.898 121.734 61.901 121.724 61.904C121.714 61.907 121.704 61.91 121.694 61.913C121.684 61.9161 121.674 61.9191 121.664 61.9221C121.654 61.9251 121.644 61.9281 121.634 61.9311C121.624 61.9342 121.615 61.9372 121.605 61.9402C121.595 61.9432 121.585 61.9462 121.575 61.9492C121.565 61.9523 121.555 61.9553 121.545 61.9583C121.535 61.9613 121.525 61.9643 121.515 61.9673C121.505 61.9703 121.495 61.9734 121.485 61.9764C121.475 61.9794 121.465 61.9824 121.455 61.9854C121.445 61.9884 121.435 61.9915 121.425 61.9945C121.415 61.9975 121.406 62.0005 121.396 62.0035C121.386 62.0065 121.376 62.0096 121.366 62.0126C121.356 62.0156 121.346 62.0186 121.336 62.0216C121.326 62.0246 121.316 62.0277 121.306 62.0307C121.296 62.0337 121.286 62.0367 121.276 62.0397C121.266 62.0427 121.256 62.0458 121.246 62.0488C121.236 62.0518 121.226 62.0548 121.216 62.0578C121.206 62.0608 121.196 62.0639 121.187 62.0669C121.177 62.0699 121.167 62.0729 121.157 62.0759C121.147 62.0789 121.137 62.0819 121.127 62.085C121.117 62.088 121.107 62.091 121.097 62.094C121.087 62.097 121.077 62.1 121.067 62.1031C121.057 62.1061 121.047 62.1091 121.037 62.1121C121.027 62.1151 121.017 62.1181 121.007 62.1212C120.997 62.1242 120.987 62.1272 120.978 62.1302C120.968 62.1332 120.958 62.1362 120.948 62.1393C120.938 62.1423 120.928 62.1453 120.918 62.1483C120.908 62.1513 120.898 62.1543 120.888 62.1574C120.878 62.1604 120.868 62.1634 120.858 62.1664C120.848 62.1694 120.838 62.1724 120.828 62.1755C120.818 62.1785 120.808 62.1815 120.798 62.1845C120.788 62.1875 120.778 62.1905 120.768 62.1935C120.759 62.1966 120.749 62.1996 120.739 62.2026C120.729 62.2056 120.719 62.2086 120.709 62.2116C120.699 62.2147 120.689 62.2177 120.679 62.2207C120.669 62.2237 120.659 62.2267 120.649 62.2297C120.639 62.2328 120.629 62.2358 120.619 62.2388C120.609 62.2418 120.599 62.2448 120.589 62.2478C120.579 62.2509 120.569 62.2539 120.559 62.2569C120.55 62.2599 120.54 62.2629 120.53 62.2659C120.52 62.269 120.51 62.272 120.5 62.275C120.49 62.278 120.48 62.281 120.47 62.284C120.46 62.2871 120.45 62.2901 120.44 62.2931C120.43 62.2961 120.42 62.2991 120.41 62.3021C120.4 62.3051 120.39 62.3082 120.38 62.3112C120.37 62.3142 120.36 62.3172 120.35 62.3202C120.34 62.3232 120.331 62.3263 120.321 62.3293C120.311 62.3323 120.301 62.3353 120.291 62.3383C120.281 62.3413 120.271 62.3444 120.261 62.3474C120.251 62.3504 120.241 62.3534 120.231 62.3564C120.221 62.3594 120.211 62.3625 120.201 62.3655C120.191 62.3685 120.181 62.3715 120.171 62.3745C120.161 62.3775 120.151 62.3806 120.141 62.3836C120.131 62.3866 120.122 62.3896 120.112 62.3926C120.102 62.3956 120.092 62.3987 120.082 62.4017C120.072 62.4047 120.062 62.4077 120.052 62.4107C120.042 62.4137 120.032 62.4167 120.022 62.4198C119.932 62.4471 119.993 62.4286 119.903 62.456C119.812 62.4833 119.873 62.4648 119.783 62.4922C119.693 62.5195 119.754 62.501 119.664 62.5283C119.573 62.5557 119.634 62.5372 119.544 62.5645C119.454 62.5919 119.515 62.5734 119.425 62.6007C119.335 62.6281 119.396 62.6096 119.305 62.6369C119.215 62.6643 119.276 62.6458 119.186 62.6731C119.096 62.7005 119.157 62.682 119.066 62.7093C118.976 62.7367 119.037 62.7182 118.947 62.7455C118.857 62.7729 118.918 62.7544 118.828 62.7817C118.737 62.8091 118.798 62.7906 118.708 62.8179C118.618 62.8453 118.679 62.8268 118.589 62.8541C118.498 62.8814 118.559 62.8629 118.469 62.8903C118.379 62.9176 118.44 62.8991 118.35 62.9265C118.26 62.9538 118.321 62.9353 118.23 62.9627C118.14 62.99 118.201 62.9715 118.111 62.9989C118.021 63.0262 118.082 63.0077 117.991 63.0351C117.901 63.0624 117.962 63.0439 117.872 63.0713C117.782 63.0986 117.843 63.0801 117.753 63.1075C117.662 63.1348 117.723 63.1163 117.633 63.1437C117.543 63.171 117.604 63.1525 117.514 63.1799C117.423 63.2072 117.485 63.1887 117.394 63.216C117.304 63.2434 117.365 63.2249 117.275 63.2522C117.185 63.2796 117.246 63.2611 117.155 63.2884C117.065 63.3158 117.126 63.2973 117.036 63.3246C116.946 63.352 117.007 63.3335 116.916 63.3608C116.826 63.3882 116.887 63.3697 116.797 63.397C116.707 63.4244 116.768 63.4059 116.678 63.4332C116.587 63.4606 116.648 63.4421 116.558 63.4694C116.468 63.4968 116.529 63.4783 116.439 63.5056C116.348 63.5329 116.41 63.5144 116.319 63.5418C116.229 63.5691 116.29 63.5506 116.2 63.578C116.11 63.6053 116.171 63.5868 116.08 63.6142C115.99 63.6415 116.051 63.623 115.961 63.6504C115.871 63.6777 115.932 63.6592 115.842 63.6866C115.751 63.7139 115.812 63.6954 115.722 63.7228C115.632 63.7501 115.693 63.7316 115.603 63.759C115.512 63.7863 115.573 63.7678 115.483 63.7952C115.393 63.8225 115.454 63.804 115.364 63.8314C115.273 63.8587 115.335 63.8402 115.244 63.8675C115.154 63.8949 115.215 63.8764 115.125 63.9037C115.035 63.9311 115.096 63.9126 115.005 63.9399C114.915 63.9673 114.976 63.9488 114.886 63.9761C114.796 64.0035 114.857 63.985 114.767 64.0123C114.676 64.0397 114.737 64.0212 114.647 64.0485C114.557 64.0759 114.618 64.0574 114.528 64.0847C114.437 64.1121 114.498 64.0936 114.408 64.1209C114.318 64.1483 114.379 64.1298 114.289 64.1571C114.199 64.1845 114.26 64.166 114.169 64.1933C114.079 64.2206 114.14 64.2021 114.05 64.2295C113.96 64.2568 114.021 64.2383 113.93 64.2657C113.84 64.293 113.901 64.2745 113.811 64.3019C113.721 64.3292 113.782 64.3107 113.692 64.3381C113.601 64.3654 113.662 64.3469 113.572 64.3743C113.482 64.4016 113.543 64.3831 113.453 64.4105C113.362 64.4378 113.423 64.4193 113.333 64.4467C113.243 64.474 113.304 64.4555 113.214 64.4829C113.124 64.5102 113.185 64.4917 113.094 64.519C113.004 64.5464 113.065 64.5279 112.975 64.5552C112.885 64.5826 112.946 64.5641 112.855 64.5914C112.765 64.6188 112.826 64.6003 112.736 64.6276C112.646 64.655 112.707 64.6365 112.617 64.6638C112.526 64.6912 112.587 64.6727 112.497 64.7C112.407 64.7274 112.468 64.7089 112.378 64.7362L113.19 67.4159ZM128.478 62.783C133.574 61.2387 138.671 59.6944 143.767 58.1501L142.955 55.4704C137.859 57.0147 132.762 58.559 127.666 60.1033L128.478 62.783ZM143.756 58.1534C149.01 56.608 154.187 55.0626 159.287 53.5172L158.475 50.8375C153.383 52.3807 148.213 53.9239 142.966 55.4671L143.756 58.1534ZM159.287 53.5172C164.383 51.9729 169.48 50.4286 174.576 48.8843L173.764 46.2046C168.667 47.7489 163.571 49.2932 158.475 50.8375L159.287 53.5172ZM174.598 48.8773C178.937 47.4826 183.506 45.9338 188.305 44.2309L187.369 41.5921C182.593 43.2867 178.051 44.8265 173.741 46.2116L174.598 48.8773ZM188.305 44.2309C193.235 42.4817 197.484 40.0834 201.029 37.0217L199.199 34.9026C195.949 37.7092 192.014 39.9439 187.369 41.5921L188.305 44.2309ZM201.056 36.9981C204.788 33.6048 206.61 29.0359 206.61 23.4533H203.81C203.81 28.372 202.235 32.1423 199.172 34.9262L201.056 36.9981ZM206.61 23.4533C206.61 17.0283 204.192 11.9532 199.314 8.42068L197.671 10.6885C201.75 13.642 203.81 17.8328 203.81 23.4533H206.61ZM199.314 8.42068C194.563 4.98031 188.859 3.29004 182.277 3.29004V6.09004C188.358 6.09004 193.465 7.6428 197.671 10.6885L199.314 8.42068ZM182.277 3.29004C179.699 3.29004 177.441 3.61111 175.544 4.30091L176.501 6.93233C178.002 6.38669 179.914 6.09004 182.277 6.09004V3.29004ZM175.526 6.92562C179.831 8.55829 182.897 10.7375 184.857 13.3965L187.111 11.7355C184.746 8.52609 181.172 6.07241 176.519 4.30762L175.526 6.92562ZM184.908 13.4622C187.009 15.9838 188.058 18.9076 188.058 22.2951H190.858C190.858 18.2699 189.591 14.7077 187.059 11.6697L184.908 13.4622ZM188.058 22.2951C188.058 25.997 186.929 29.1481 184.681 31.8173L186.823 33.6209C189.517 30.4218 190.858 26.6235 190.858 22.2951H188.058ZM184.653 31.8516C182.495 34.5851 179.683 36.6849 176.179 38.1445L177.256 40.7292C181.166 39.1002 184.376 36.7215 186.851 33.5866L184.653 31.8516ZM176.226 38.126C172.679 39.4561 168.985 40.1217 165.136 40.1217V42.9217C169.316 42.9217 173.344 42.1974 177.209 40.7477L176.226 38.126ZM165.136 40.1217C159.229 40.1217 154.471 38.5041 150.751 35.3567L148.943 37.4942C153.253 41.1418 158.688 42.9217 165.136 42.9217V40.1217ZM150.772 35.3745C147.22 32.2491 145.456 28.3113 145.456 23.4533H142.656C142.656 29.0966 144.752 33.8069 148.922 37.4764L150.772 35.3745ZM145.456 23.4533C145.456 18.9775 146.817 15.3074 149.495 12.347L147.419 10.4685C144.229 13.9941 142.656 18.3545 142.656 23.4533H145.456ZM149.471 12.3733C152.389 9.30961 156.131 6.94968 160.739 5.31451L159.803 2.67571C154.836 4.43799 150.703 7.01983 147.443 10.4422L149.471 12.3733ZM160.801 5.29087C164.065 3.95575 167.477 3.13934 171.043 2.84217L170.81 0.0518381C166.964 0.372395 163.272 1.25472 159.741 2.69934L160.801 5.29087ZM171.093 2.83703C174.926 2.37708 178.031 2.15206 180.424 2.15206V-0.647939C177.875 -0.647939 174.648 -0.409662 170.76 0.0569745L171.093 2.83703ZM180.424 2.15206C186.436 2.15206 191.801 3.20357 196.541 5.27773L197.664 2.71249C192.521 0.462587 186.767 -0.647939 180.424 -0.647939V2.15206ZM196.589 5.29768C201.382 7.18551 205.16 10.4451 207.944 15.1339L210.352 13.7044C207.268 8.5096 203.016 4.81988 197.616 2.69254L196.589 5.29768ZM207.955 15.1507C210.7 19.6294 212.149 26.054 212.149 34.5723H214.949C214.949 25.7944 213.465 18.7835 210.342 13.6876L207.955 15.1507ZM212.149 34.5723C212.149 44.411 210.031 52.4665 205.89 58.826L208.237 60.3539C212.744 53.4325 214.949 44.8095 214.949 34.5723H212.149ZM205.878 58.8455C201.857 65.2483 195.875 70.6547 187.86 75.0403L189.204 77.4966C197.558 72.9252 203.93 67.2127 208.249 60.3345L205.878 58.8455ZM187.85 75.0457C179.928 79.4638 170.218 83.444 158.702 86.9755L159.523 89.6525C171.172 86.0802 181.075 82.03 189.214 77.4912L187.85 75.0457ZM158.684 86.9812C158.323 87.0972 158.235 87.1257 157.874 87.2418C157.513 87.3578 157.424 87.3863 157.063 87.5024C156.702 87.6184 156.613 87.6469 156.252 87.763C155.891 87.879 155.802 87.9075 155.441 88.0236C155.08 88.1396 154.992 88.1682 154.631 88.2842C154.27 88.4002 154.181 88.4288 153.82 88.5448C153.459 88.6608 153.37 88.6894 153.009 88.8054C152.648 88.9214 152.559 88.95 152.198 89.066C152.189 89.0689 152.106 89.0957 152.097 89.0985C152.088 89.1014 152.005 89.1282 151.996 89.1311C151.987 89.134 151.903 89.1608 151.894 89.1637C151.885 89.1666 151.802 89.1934 151.793 89.1963C151.784 89.1992 151.701 89.226 151.692 89.2289C151.683 89.2317 151.599 89.2585 151.59 89.2614C151.581 89.2643 151.498 89.2911 151.489 89.294C151.48 89.2969 151.397 89.3237 151.388 89.3266C151.379 89.3295 151.295 89.3563 151.286 89.3592C151.277 89.362 151.194 89.3888 151.185 89.3917C151.176 89.3946 151.092 89.4214 151.083 89.4243C151.074 89.4272 150.991 89.454 150.982 89.4569C150.973 89.4598 150.89 89.4866 150.881 89.4895C150.872 89.4923 150.788 89.5191 150.779 89.522C150.77 89.5249 150.687 89.5517 150.678 89.5546C150.669 89.5575 150.586 89.5843 150.577 89.5872C150.568 89.5901 150.484 89.6169 150.475 89.6198C150.466 89.6226 150.383 89.6494 150.374 89.6523C150.365 89.6552 150.282 89.682 150.273 89.6849C150.264 89.6878 150.18 89.7146 150.171 89.7175C150.162 89.7204 150.079 89.7472 150.07 89.7501C150.061 89.7529 149.978 89.7797 149.969 89.7826C149.96 89.7855 149.876 89.8123 149.867 89.8152C149.858 89.8181 149.775 89.8449 149.766 89.8478C149.757 89.8507 149.674 89.8775 149.665 89.8804C149.656 89.8832 149.572 89.91 149.563 89.9129C149.554 89.9158 149.471 89.9426 149.462 89.9455C149.453 89.9484 149.37 89.9752 149.361 89.9781C149.352 89.981 149.268 90.0078 149.259 90.0107C149.25 90.0135 149.167 90.0403 149.158 90.0432C149.149 90.0461 149.066 90.0729 149.057 90.0758C149.048 90.0787 148.964 90.1055 148.955 90.1084C148.946 90.1113 148.863 90.1381 148.854 90.141C148.845 90.1438 148.762 90.1706 148.753 90.1735C148.744 90.1764 148.66 90.2032 148.651 90.2061C148.642 90.209 148.559 90.2358 148.55 90.2387C148.541 90.2416 148.458 90.2684 148.449 90.2713C148.44 90.2742 148.356 90.3009 148.347 90.3038C148.338 90.3067 148.255 90.3335 148.246 90.3364C148.237 90.3393 148.153 90.3661 148.144 90.369C148.135 90.3719 148.052 90.3987 148.043 90.4016C148.034 90.4045 147.951 90.4312 147.942 90.4341C147.933 90.437 147.849 90.4638 147.84 90.4667C147.831 90.4696 147.748 90.4964 147.739 90.4993C147.73 90.5022 147.647 90.529 147.638 90.5319C147.629 90.5348 147.545 90.5615 147.536 90.5644C147.527 90.5673 147.444 90.5941 147.435 90.597C147.426 90.5999 147.343 90.6267 147.334 90.6296C147.325 90.6325 147.241 90.6593 147.232 90.6622C147.223 90.6651 147.14 90.6918 147.131 90.6947C147.122 90.6976 147.039 90.7244 147.03 90.7273C147.021 90.7302 146.937 90.757 146.928 90.7599C146.919 90.7628 146.836 90.7896 146.827 90.7925C146.818 90.7954 146.735 90.8221 146.726 90.825C146.717 90.8279 146.633 90.8547 146.624 90.8576C146.615 90.8605 146.532 90.8873 146.523 90.8902C146.514 90.8931 146.431 90.9199 146.422 90.9228C146.413 90.9257 146.329 90.9524 146.32 90.9553C146.311 90.9582 146.228 90.985 146.219 90.9879C146.21 90.9908 146.127 91.0176 146.118 91.0205C146.109 91.0234 146.025 91.0502 146.016 91.0531C146.007 91.056 145.924 91.0827 145.915 91.0856C145.906 91.0885 145.823 91.1153 145.814 91.1182C145.805 91.1211 145.721 91.1479 145.712 91.1508L146.569 93.8165C146.93 93.7004 147.019 93.6719 147.38 93.5559C147.741 93.4398 147.83 93.4113 148.191 93.2953C148.552 93.1792 148.64 93.1507 149.001 93.0347C149.362 92.9186 149.451 92.8901 149.812 92.7741C150.173 92.658 150.262 92.6295 150.623 92.5135C150.984 92.3974 151.073 92.3689 151.434 92.2529C151.795 92.1368 151.883 92.1083 152.244 91.9923C152.605 91.8762 152.694 91.8477 153.055 91.7317C153.064 91.7288 153.147 91.702 153.156 91.6991C153.165 91.6962 153.249 91.6694 153.258 91.6665C153.267 91.6636 153.35 91.6368 153.359 91.6339C153.368 91.631 153.451 91.6042 153.46 91.6014C153.469 91.5985 153.553 91.5717 153.562 91.5688C153.571 91.5659 153.654 91.5391 153.663 91.5362C153.672 91.5333 153.756 91.5065 153.765 91.5036C153.774 91.5007 153.857 91.4739 153.866 91.4711C153.875 91.4682 153.958 91.4414 153.967 91.4385C153.976 91.4356 154.06 91.4088 154.069 91.4059C154.078 91.403 154.161 91.3762 154.17 91.3733C154.179 91.3704 154.262 91.3436 154.271 91.3408C154.28 91.3379 154.364 91.3111 154.373 91.3082C154.382 91.3053 154.465 91.2785 154.474 91.2756C154.483 91.2727 154.566 91.2459 154.575 91.243C154.584 91.2401 154.668 91.2133 154.677 91.2105C154.686 91.2076 154.769 91.1808 154.778 91.1779C154.787 91.175 154.87 91.1482 154.879 91.1453C154.888 91.1424 154.972 91.1156 154.981 91.1127C154.99 91.1098 155.073 91.083 155.082 91.0802C155.091 91.0773 155.174 91.0505 155.183 91.0476C155.192 91.0447 155.276 91.0179 155.285 91.015C155.294 91.0121 155.377 90.9853 155.386 90.9824C155.395 90.9795 155.478 90.9527 155.487 90.9499C155.496 90.947 155.58 90.9202 155.589 90.9173C155.598 90.9144 155.681 90.8876 155.69 90.8847C155.699 90.8818 155.782 90.855 155.791 90.8521C155.8 90.8492 155.884 90.8224 155.893 90.8196C155.902 90.8167 155.985 90.7899 155.994 90.787C156.003 90.7841 156.086 90.7573 156.095 90.7544C156.104 90.7515 156.188 90.7247 156.197 90.7218C156.206 90.7189 156.289 90.6921 156.298 90.6892C156.307 90.6864 156.39 90.6596 156.399 90.6567C156.408 90.6538 156.492 90.627 156.501 90.6241C156.51 90.6212 156.593 90.5944 156.602 90.5915C156.611 90.5886 156.695 90.5618 156.704 90.5589C156.713 90.5561 156.796 90.5293 156.805 90.5264C156.814 90.5235 156.897 90.4967 156.906 90.4938C156.915 90.4909 156.999 90.4641 157.008 90.4612C157.017 90.4583 157.1 90.4315 157.109 90.4286C157.118 90.4258 157.201 90.399 157.21 90.3961C157.219 90.3932 157.303 90.3664 157.312 90.3635C157.321 90.3606 157.404 90.3338 157.413 90.3309C157.422 90.328 157.505 90.3012 157.514 90.2983C157.523 90.2955 157.607 90.2687 157.616 90.2658C157.625 90.2629 157.708 90.2361 157.717 90.2332C157.726 90.2303 157.809 90.2035 157.818 90.2006C157.827 90.1977 157.911 90.1709 157.92 90.168C157.929 90.1652 158.012 90.1384 158.021 90.1355C158.03 90.1326 158.113 90.1058 158.122 90.1029C158.131 90.1 158.215 90.0732 158.224 90.0703C158.233 90.0674 158.316 90.0406 158.325 90.0377C158.334 90.0349 158.417 90.0081 158.426 90.0052C158.435 90.0023 158.519 89.9755 158.528 89.9726C158.537 89.9697 158.62 89.9429 158.629 89.94C158.638 89.9371 158.721 89.9103 158.73 89.9074C158.739 89.9046 158.823 89.8778 158.832 89.8749C158.841 89.872 158.924 89.8452 158.933 89.8423C158.942 89.8394 159.025 89.8126 159.034 89.8097C159.043 89.8068 159.127 89.78 159.136 89.7771C159.145 89.7743 159.228 89.7475 159.237 89.7446C159.246 89.7417 159.329 89.7149 159.338 89.712C159.347 89.7091 159.431 89.6823 159.44 89.6794C159.449 89.6765 159.532 89.6497 159.541 89.6468L158.684 86.9812ZM145.756 91.1375C141.436 92.3717 137.039 93.606 132.565 94.8404L133.309 97.5395C137.792 96.303 142.197 95.0664 146.525 93.8298L145.756 91.1375ZM132.552 94.8438C128.213 96.0835 123.875 97.4006 119.536 98.7951L120.393 101.461C124.703 100.076 129.012 98.7673 133.321 97.5361L132.552 94.8438ZM119.58 98.7818C115.241 100.021 110.903 101.339 106.564 102.733L107.421 105.399C111.731 104.013 116.04 102.705 120.349 101.474L119.58 98.7818ZM106.59 102.725C101.893 104.134 97.9996 105.716 94.9405 107.487L96.3434 109.91C99.1527 108.284 102.826 106.777 107.395 105.407L106.59 102.725ZM94.9405 107.487C91.8728 109.263 89.5206 111.334 87.9782 113.733L90.3335 115.247C91.5709 113.322 93.5427 111.532 96.3434 109.91L94.9405 107.487ZM87.9782 113.733C86.4399 116.126 85.6711 118.783 85.6711 121.671H88.4711C88.4711 119.308 89.0921 117.178 90.3335 115.247L87.9782 113.733ZM85.6711 121.671C85.6711 126.365 87.387 129.88 91.0779 131.726L92.3301 129.221C89.8437 127.978 88.4711 125.625 88.4711 121.671H85.6711ZM91.0779 131.726C94.3576 133.366 97.8146 134.19 101.433 134.19V131.39C98.2566 131.39 95.2276 130.67 92.3301 129.221L91.0779 131.726ZM101.433 134.19C106.07 134.19 110.146 133.391 113.617 131.737L112.413 129.209C109.399 130.645 105.753 131.39 101.433 131.39V134.19ZM113.641 131.726C117.159 129.967 120.082 127.866 122.378 125.406L120.331 123.495C118.303 125.668 115.666 127.583 112.389 129.221L113.641 131.726ZM122.378 125.406C124.602 123.024 126.249 120.739 127.259 118.551L124.716 117.378C123.873 119.206 122.432 121.245 120.331 123.495L122.378 125.406ZM125.454 119.259L129.392 120.881L130.458 118.292L126.521 116.67L125.454 119.259ZM105.834 35.509C109.393 35.509 112.447 34.3963 114.895 32.1235L112.989 30.0717C111.113 31.8141 108.762 32.709 105.834 32.709V35.509ZM114.859 32.1556C117.466 29.8956 118.817 27.0454 118.817 23.685H116.017C116.017 26.1928 115.05 28.2844 113.025 30.0396L114.859 32.1556ZM118.817 23.685C118.817 20.5671 117.407 18.0035 114.77 16.0699L113.114 18.3279C115.11 19.7917 116.017 21.5522 116.017 23.685H118.817ZM114.807 16.098C112.307 14.1341 108.866 13.2508 104.676 13.2508V16.0508C108.517 16.0508 111.253 16.8662 113.077 18.2997L114.807 16.098ZM104.676 13.2508C99.475 13.2508 94.3808 14.6349 89.4093 17.3612L90.7556 19.8163C95.3587 17.292 99.9936 16.0508 104.676 16.0508V13.2508ZM89.3922 17.3707C84.5489 20.1153 80.5262 23.985 77.3238 28.9488L79.6766 30.4667C82.6514 25.8558 86.3502 22.3129 90.7727 19.8068L89.3922 17.3707ZM77.3065 28.9762C74.2176 34.016 72.6989 39.9143 72.6989 46.6178H75.4989C75.4989 40.3492 76.9144 34.9741 79.6938 30.4393L77.3065 28.9762ZM72.6989 46.6178C72.6989 47.7648 72.7808 48.9816 72.9414 50.2662L75.7198 49.9189C75.5715 48.7326 75.4989 47.6329 75.4989 46.6178H72.6989ZM72.9446 50.2905C73.0978 51.3624 73.2511 52.5124 73.4047 53.7409L76.183 53.3936C76.0277 52.1511 75.8722 50.9847 75.7165 49.8945L72.9446 50.2905ZM75.024 54.9482C77.7539 54.4932 80.4827 54.19 83.2107 54.0385L83.0554 51.2428C80.224 51.4001 77.3933 51.7147 74.5637 52.1863L75.024 54.9482ZM83.2877 54.0321C86.0565 53.7244 88.0782 53.5773 89.3875 53.5773V50.7773C87.917 50.7773 85.7692 50.9391 82.9785 51.2492L83.2877 54.0321ZM89.3875 53.5773C92.077 53.5773 93.8649 53.9777 94.9365 54.6028C95.8922 55.1602 96.3267 55.9135 96.3267 57.0419H99.1267C99.1267 54.9272 98.1714 53.2482 96.3474 52.1842C94.6392 51.1878 92.2575 50.7773 89.3875 50.7773V53.5773ZM96.3267 57.0419C96.3267 57.6732 96.1857 58.1401 95.9604 58.5005C95.7343 58.8623 95.369 59.2036 94.7842 59.496L96.0364 62.0004C96.9959 61.5207 97.7888 60.8582 98.3348 59.9845C98.8817 59.1095 99.1267 58.1093 99.1267 57.0419H96.3267ZM94.7842 59.496C93.431 60.1726 92.0235 60.5064 90.5457 60.5064V63.3064C92.4655 63.3064 94.301 62.8681 96.0364 62.0004L94.7842 59.496ZM90.5457 60.5064C87.8119 60.5064 84.9767 59.9315 82.0315 58.7534L80.9916 61.3531C84.2236 62.6459 87.4112 63.3064 90.5457 63.3064V60.5064ZM82.1109 58.788C79.1742 57.397 76.8501 56.3123 75.1415 55.5357L73.9829 58.0848C75.6718 58.8524 77.9806 59.9299 80.9123 61.3185L82.1109 58.788ZM73.9895 55.5327C69.2454 57.6594 64.9776 61.3109 61.165 66.3943L63.405 68.0743C67.0051 63.2741 70.9221 59.9763 75.1349 58.0878L73.9895 55.5327ZM61.1482 66.4172C57.497 71.4971 54.5793 77.503 52.38 84.4148L55.0482 85.2638C57.173 78.5858 59.9693 72.855 63.4218 68.0514L61.1482 66.4172ZM52.374 84.4342C50.3233 91.2174 49.3027 98.4587 49.3027 106.151H52.1027C52.1027 98.7085 53.0898 91.7422 55.0542 85.2445L52.374 84.4342ZM49.3027 106.151C49.3027 115.902 51.19 124.187 55.0467 130.936L57.4778 129.547C53.9218 123.324 52.1027 115.549 52.1027 106.151H49.3027ZM55.054 130.949C58.9204 137.554 64.6365 142.53 72.1379 145.882L73.2802 143.326C66.2652 140.191 61.0167 135.593 57.4705 129.535L55.054 130.949ZM72.1379 145.882C79.6237 149.227 88.7103 150.868 99.3483 150.868V148.068C88.9837 148.068 80.3109 146.467 73.2802 143.326L72.1379 145.882ZM99.3483 150.868C106.707 150.868 113.987 150.085 121.189 148.52L120.594 145.784C113.588 147.307 106.506 148.068 99.3483 148.068V150.868ZM121.21 148.515C128.59 146.788 135.284 144.192 141.283 140.719L139.88 138.296C134.142 141.618 127.709 144.118 120.572 145.789L121.21 148.515ZM141.283 140.719C147.33 137.218 152.204 132.669 155.881 127.073L153.542 125.535C150.115 130.749 145.569 135.002 139.88 138.296L141.283 140.719ZM155.876 127.08C159.759 121.257 161.671 114.336 161.671 106.382H158.871C158.871 113.872 157.077 120.232 153.547 125.527L155.876 127.08ZM161.671 106.382C161.671 100.283 160.224 94.4277 157.346 88.8319L154.856 90.1125C157.538 95.3268 158.871 100.745 158.871 106.382H161.671ZM157.346 88.8319C154.368 83.0408 148.879 78.6066 141.11 75.4356L140.052 78.0279C147.417 81.0341 152.275 85.0935 154.856 90.1125L157.346 88.8319ZM141.571 77.7217L144.119 75.1736L142.139 73.1937L139.591 75.7418L141.571 77.7217ZM142.619 75.4874C149.463 78.1655 154.618 82.3783 158.152 88.1212L160.537 86.6537C156.658 80.351 151.003 75.7612 143.639 72.8799L142.619 75.4874ZM158.166 88.143C161.87 93.9223 163.736 100.528 163.736 108.004H166.536C166.536 100.037 164.54 92.8981 160.523 86.6319L158.166 88.143ZM163.736 108.004C163.736 114.868 162.021 121.92 158.545 129.174L161.07 130.383C164.698 122.812 166.536 115.348 166.536 108.004H163.736ZM158.535 129.195C155.234 136.398 150.039 143.115 142.904 149.34L144.744 151.45C152.125 145.011 157.587 137.985 161.08 130.362L158.535 129.195ZM142.906 149.339C135.966 155.373 127.022 160.313 116.031 164.129L116.949 166.774C128.196 162.869 137.475 157.771 144.743 151.451L142.906 149.339ZM116.031 164.129C105.096 167.926 92.0551 169.843 76.8787 169.843V172.643C92.2794 172.643 105.646 170.699 116.949 166.774L116.031 164.129ZM76.8787 169.843C62.9483 169.843 50.277 168.006 38.8522 164.35L37.9989 167.017C49.7386 170.774 62.7028 172.643 76.8787 172.643V169.843ZM38.8736 164.357C27.638 160.561 18.749 154.893 12.1424 147.385L10.0404 149.235C17.0237 157.171 26.3574 163.084 37.9774 167.01L38.8736 164.357ZM12.1424 147.385C5.60407 139.955 2.29899 130.57 2.29899 119.123H-0.501005C-0.501005 131.149 2.98885 141.222 10.0404 149.235L12.1424 147.385ZM2.29899 119.123C2.29899 108.884 5.00481 99.5731 10.4159 91.1559L8.06058 89.6418C2.35266 98.5207 -0.501005 108.359 -0.501005 119.123H2.29899ZM10.4125 91.1611C15.988 82.5718 23.9194 75.3045 34.2575 69.3753L32.8645 66.9464C22.2 73.0628 13.9163 80.6207 8.06394 89.6366L10.4125 91.1611ZM34.2631 69.3721C44.7517 63.2917 57.2543 58.9376 71.7974 56.3352L71.3042 53.579C56.5056 56.2271 43.6816 60.6756 32.8588 66.9497L34.2631 69.3721ZM71.9084 53.6035C63.8612 51.4778 58.2119 48.4124 54.7605 44.5295L52.6678 46.3897C56.629 50.8461 62.8708 54.1123 71.1933 56.3106L71.9084 53.6035ZM54.7799 44.5518C51.4107 40.5967 49.7863 36.4312 49.7863 32.0242H46.9863C46.9863 37.1918 48.9137 41.9833 52.6484 46.3675L54.7799 44.5518ZM49.7863 32.0242C49.7863 26.3825 51.7912 21.8268 55.8048 18.2432L53.9399 16.1546C49.3055 20.2925 46.9863 25.6203 46.9863 32.0242H49.7863ZM55.8069 18.2413C60.0977 14.3944 65.5302 11.5527 72.1508 9.74704L71.4141 7.0457C64.4449 8.9464 58.604 11.973 53.9378 16.1565L55.8069 18.2413ZM72.1792 9.73899C78.8395 7.77118 85.8093 6.78498 93.0938 6.78498V3.98498C85.5531 3.98498 78.3153 5.00637 71.3858 7.05374L72.1792 9.73899ZM93.0938 6.78498C103.512 6.78498 110.703 8.4834 114.967 11.6101L116.623 9.35221C111.621 5.68403 103.678 3.98498 93.0938 3.98498V6.78498ZM114.992 11.6281C119.299 14.6427 121.344 18.4061 121.344 22.99H124.144C124.144 17.3815 121.557 12.8058 116.598 9.33425L114.992 11.6281ZM121.344 22.99C121.344 27.8449 119.593 31.2207 116.199 33.3931L117.708 35.7515C122.035 32.9822 124.144 28.6364 124.144 22.99H121.344ZM116.177 33.4074C112.642 35.764 109.279 36.8786 106.066 36.8786V39.6786C109.957 39.6786 113.852 38.3224 117.73 35.7372L116.177 33.4074ZM107.464 38.201L107.232 34.0313L104.436 34.1867L104.668 38.3563L107.464 38.201Z" fill="white" mask="url(#path-1-outside-1_267_91)"/>
</svg>
