<svg width="73" height="72" viewBox="0 0 73 72" fill="none" xmlns="http://www.w3.org/2000/svg">
<path d="M61.8772 10.4641C63.0837 22.0543 55.9497 29.1828 55.8612 29.2684C51.6592 33.4689 44.5985 34.3308 40.3458 34.4406C43.6069 31.0431 48.5866 24.6968 48.5866 17.6288C48.5894 17.4305 48.5894 15.4308 47.9017 12.5874C51.5734 10.7859 57.6795 9.61045 61.8772 10.4641ZM45.5618 17.6051C45.5618 23.5465 41.1756 29.1489 38.2451 32.2345C38.1481 27.5249 37.1834 19.5178 32.1856 14.5198C32.0463 14.3778 30.6316 12.9659 28.1355 11.4415C29.456 7.57006 32.9423 2.4231 36.5182 0.052124C45.569 7.39546 45.5647 17.4812 45.5618 17.6051ZM11.2251 10.6245C22.8057 9.42076 29.9424 16.552 30.031 16.6405C34.2315 20.8425 35.0922 27.9047 35.2031 32.1585C31.8056 28.8973 25.4593 23.9176 18.3942 23.9176C18.1875 23.9219 16.1906 23.9233 13.3527 24.6067C11.5485 20.9336 10.3716 14.8279 11.2251 10.6245ZM0.814575 35.9835C8.18347 26.9031 18.2776 26.9539 18.3676 26.9413C24.3091 26.9413 29.9114 31.3276 32.997 34.2566C28.2875 34.3536 20.2803 35.3183 15.2824 40.3161C15.1403 40.4539 13.7256 41.8686 12.2012 44.3647C8.32833 43.0442 3.18267 39.558 0.814575 35.9835ZM11.3868 61.2766C10.1802 49.6863 17.3142 42.5579 17.4028 42.4722C21.6047 38.2702 28.6655 37.4084 32.9196 37.2986C29.6585 40.6961 24.6773 47.0424 24.6773 54.1103C24.6745 54.3086 24.6745 56.3083 25.3622 59.1518C21.6919 60.9561 15.5844 62.1316 11.3868 61.2766ZM36.7446 71.6871C27.6967 64.3449 27.6996 54.2594 27.7024 54.1356C27.7024 48.1941 32.0887 42.5917 35.0192 39.5061C35.1162 44.2157 36.0809 52.2229 41.0787 57.2193C41.2165 57.3614 42.6214 58.7789 45.1259 60.3061C43.8012 64.1775 40.318 69.319 36.7446 71.6871ZM62.0391 61.1164C50.4543 62.3215 43.3205 55.1875 43.2333 55.0989C39.0328 50.8984 38.1721 43.8362 38.0612 39.5821C41.4587 42.8432 47.805 47.8229 54.8701 47.8229H54.9544C55.3974 47.8229 57.2959 47.7793 59.9156 47.1437C61.7185 50.8182 62.8913 56.9173 62.0391 61.1164ZM72.4497 35.7574C65.0808 44.8377 54.991 44.8151 54.8967 44.7996C48.9495 44.7996 43.3399 40.405 40.2575 37.4743C44.9588 37.3829 52.966 36.4407 57.9819 31.4244C58.124 31.2866 59.5386 29.8719 61.063 27.3758C64.936 28.6963 70.0815 32.1826 72.4496 35.7571L72.4497 35.7574Z" fill="white"/>
</svg>
